<svg width="22" height="22" viewBox="0 0 22 22" fill="none" xmlns="http://www.w3.org/2000/svg">
<path d="M11 21C16.5228 21 21 16.5228 21 11C21 5.47715 16.5228 1 11 1C5.47715 1 1 5.47715 1 11C1 16.5228 5.47715 21 11 21Z" fill="#FFD93B"/>
<path d="M20.9997 11C20.9997 16.525 16.5216 21 10.9997 21C7.85595 21 5.0497 19.55 3.21533 17.2781C4.93095 18.6656 7.11533 19.4938 9.49345 19.4938C15.0153 19.4938 19.4934 15.0188 19.4934 9.49376C19.4934 7.11564 18.6653 4.93126 17.2778 3.21564C19.5466 5.05001 20.9997 7.85626 20.9997 11Z" fill="#F4C534"/>
<path d="M8.63616 7.32316C7.79116 7.19129 6.95553 7.03566 6.30428 6.43566C6.28178 6.41504 6.26678 6.39004 6.24616 6.36816C5.58928 6.47254 4.98491 6.69129 4.55678 7.02879C3.38928 8.06754 3.38553 10.3332 4.55678 11.3719C5.79741 12.3532 8.50241 12.3532 9.74241 11.3719C10.8424 10.3963 10.9093 8.33941 9.94366 7.23254C9.56741 7.36629 9.12616 7.40004 8.63616 7.32316Z" fill="#F4C534"/>
<path d="M9.06694 7.35939C8.92756 7.35564 8.78506 7.34627 8.63631 7.32314C8.10569 7.24002 7.57881 7.14752 7.09881 6.94189C6.21881 6.95064 5.42131 7.17002 4.98631 7.51127C4.57193 7.88002 4.32506 8.51377 4.32568 9.20564C4.32631 9.89439 4.57318 10.5231 4.95756 10.865C5.43006 11.2388 6.24943 11.4619 7.14943 11.4619C8.04943 11.4619 8.86881 11.2388 9.31381 10.8888C9.72819 10.5213 9.97569 9.89002 9.97569 9.20064C9.97569 8.51064 9.72819 7.87939 9.34194 7.53564C9.26069 7.47189 9.16631 7.41377 9.06694 7.35939Z" fill="white"/>
<path d="M10.0341 5.94316C10.5191 6.40691 10.6266 7.46316 9.48344 7.63878C8.77344 7.76378 7.91656 7.52128 7.24031 7.28378C5.65906 6.65441 4.48969 5.86191 3.82031 5.17566C4.71281 5.33253 6.70969 6.10691 7.55594 6.42628C7.97406 6.58191 8.97531 6.94628 9.43156 6.96066C9.82406 6.97566 10.2078 6.90253 10.0341 5.94316Z" fill="#3E4347"/>
<path d="M8.36659 10.8763C9.03866 10.8763 9.58347 10.2402 9.58347 9.45566C9.58347 8.67107 9.03866 8.03503 8.36659 8.03503C7.69453 8.03503 7.14972 8.67107 7.14972 9.45566C7.14972 10.2402 7.69453 10.8763 8.36659 10.8763Z" fill="#3E4347"/>
<path d="M8.98545 8.68539C8.85501 8.51704 8.63777 8.46694 8.50025 8.57349C8.36272 8.68005 8.35699 8.90291 8.48744 9.07126C8.61788 9.23962 8.83512 9.28972 8.97264 9.18316C9.11017 9.07661 9.1159 8.85375 8.98545 8.68539Z" fill="#5A5F63"/>
<path d="M13.3637 7.3231C14.2093 7.19123 15.0443 7.0356 15.6955 6.4356C15.718 6.41498 15.733 6.38998 15.7537 6.3681C16.4105 6.4731 17.0149 6.69123 17.443 7.02935C18.6105 8.0681 18.6149 10.3337 17.443 11.3725C16.2024 12.3537 13.4974 12.3537 12.2574 11.3725C11.1574 10.3969 11.0905 8.33998 12.0562 7.2331C12.4324 7.36623 12.8737 7.39998 13.3637 7.3231Z" fill="#F4C534"/>
<path d="M12.9337 7.35939C13.073 7.35564 13.2155 7.34627 13.3643 7.32314C13.8949 7.24002 14.4218 7.14752 14.9018 6.94189C15.7818 6.95064 16.5793 7.17002 17.0143 7.51127C17.4287 7.88002 17.6755 8.51377 17.6749 9.20564C17.6743 9.89439 17.4274 10.5231 17.043 10.865C16.5705 11.2388 15.7512 11.4619 14.8512 11.4619C13.9512 11.4619 13.1318 11.2388 12.6868 10.8888C12.2724 10.5213 12.0249 9.89002 12.0249 9.20064C12.0249 8.51064 12.2724 7.87939 12.6587 7.53564C12.7393 7.47189 12.8337 7.41377 12.9337 7.35939Z" fill="white"/>
<path d="M11.9662 5.94316C11.4818 6.40691 11.3737 7.46316 12.5168 7.63878C13.2268 7.76378 14.0837 7.52128 14.76 7.28378C16.3418 6.65441 17.5112 5.86191 18.18 5.17566C17.2875 5.33253 15.2906 6.10691 14.4443 6.42628C14.0262 6.58191 13.0249 6.94628 12.5687 6.96066C12.1762 6.97566 11.7924 6.90253 11.9662 5.94316Z" fill="#3E4347"/>
<path d="M13.6312 10.8763C14.3032 10.8763 14.8481 10.2402 14.8481 9.45566C14.8481 8.67107 14.3032 8.03503 13.6312 8.03503C12.9591 8.03503 12.4143 8.67107 12.4143 9.45566C12.4143 10.2402 12.9591 10.8763 13.6312 10.8763Z" fill="#3E4347"/>
<path d="M13.4998 8.57257C13.3622 8.46601 13.145 8.51611 13.0145 8.68447C12.8841 8.85283 12.8898 9.07569 13.0274 9.18224C13.1649 9.2888 13.3821 9.2387 13.5126 9.07035C13.643 8.90199 13.6373 8.67913 13.4998 8.57257Z" fill="#5A5F63"/>
<path d="M15.9007 14.7575C14.9695 16.5125 13.1401 17.7107 11.0107 17.7107C8.87072 17.7107 7.04072 16.5013 6.09947 14.7357C5.96072 14.4788 6.24947 14.19 6.51697 14.3188C9.60947 15.7094 12.5945 15.6669 15.4838 14.34C15.7507 14.2119 16.0401 14.49 15.9007 14.7575Z" fill="#3E4347"/>
</svg>
