<svg width="22" height="22" viewBox="0 0 22 22" fill="none" xmlns="http://www.w3.org/2000/svg">
<path d="M11 21C16.5228 21 21 16.5228 21 11C21 5.47715 16.5228 1 11 1C5.47715 1 1 5.47715 1 11C1 16.5228 5.47715 21 11 21Z" fill="#FFD93B"/>
<path d="M21 11C21 16.525 16.5219 21 11 21C7.85626 21 5.05001 19.55 3.21564 17.2781C4.93126 18.6656 7.11564 19.4938 9.49376 19.4938C15.0156 19.4938 19.4938 15.0188 19.4938 9.49376C19.4938 7.11564 18.6656 4.93126 17.2781 3.21564C19.5469 5.05001 21 7.85626 21 11Z" fill="#F4C534"/>
<path d="M6.08127 15.7818C6.05877 16.6106 6.99627 17.0193 8.18752 17.1881C8.66627 17.2543 9.12377 17.2956 9.54064 17.2656C10.4631 17.2062 11.5206 17.3756 12.4813 17.7687C12.9144 17.9456 13.3988 18.0481 13.8956 18.0025C15.15 17.8881 15.9444 16.6056 15.9156 15.8C15.8863 14.405 14.8444 12.2987 13.2981 12.8456C12.3819 13.2819 9.63252 14.0525 8.60939 13.6312C7.02627 12.9344 6.18002 14.0606 6.08127 15.7818Z" fill="#3E4347"/>
<path d="M8.60937 13.6306C8.39499 13.5362 8.19562 13.4781 8.00812 13.4475C8.01124 13.4606 8.01562 13.4762 8.01874 13.4893C8.39249 14.4581 9.61687 14.6343 10.9994 14.4768C12.36 14.3287 13.5137 13.9637 13.8506 12.7575C13.675 12.75 13.4906 12.7762 13.2981 12.8443C12.3819 13.2812 9.63249 14.0518 8.60937 13.6306Z" fill="white"/>
<path d="M8.30124 17.0756C8.36374 16.5069 8.79186 16.0637 9.38311 15.7694C9.70061 15.6119 10.12 15.5869 10.4756 15.7356C10.6812 15.8237 10.9275 15.8844 11.2087 15.8919C11.2744 15.8906 11.3412 15.895 11.4037 15.8887C12.3337 15.8112 13.2762 16.2781 13.6206 17.2081C13.6962 17.4087 13.7444 17.6231 13.7681 17.8481C13.7731 17.9012 13.7731 17.9544 13.775 18.0069C13.3206 18.0312 12.8794 17.9306 12.4812 17.7687C11.5206 17.3775 10.4637 17.205 9.54061 17.2656C9.15561 17.2937 8.73624 17.2562 8.29749 17.2012C8.29811 17.1569 8.29686 17.1194 8.30124 17.0756Z" fill="#E24B4B"/>
<path d="M7.32563 12.2237C9.18269 12.2237 10.6881 10.8255 10.6881 9.1006C10.6881 7.37575 9.18269 5.97748 7.32563 5.97748C5.46858 5.97748 3.96313 7.37575 3.96313 9.1006C3.96313 10.8255 5.46858 12.2237 7.32563 12.2237Z" fill="#F4C534"/>
<path d="M10.1831 9.10065C10.0956 10.5244 8.74559 11.6781 7.16746 11.6781C5.58934 11.6781 4.38059 10.5238 4.46809 9.10065C4.55559 7.6769 5.90559 6.52252 7.48371 6.52252C9.06184 6.52252 10.2706 7.6769 10.1831 9.10065Z" fill="white"/>
<path d="M8.25185 10.5944C9.03196 10.5944 9.66435 9.93122 9.66435 9.11315C9.66435 8.29507 9.03196 7.6319 8.25185 7.6319C7.47175 7.6319 6.83936 8.29507 6.83936 9.11315C6.83936 9.93122 7.47175 10.5944 8.25185 10.5944Z" fill="#3E4347"/>
<path d="M9.10999 8.54937C9.03812 8.66562 8.84999 8.67062 8.68437 8.56562C8.52374 8.46625 8.44687 8.28937 8.51874 8.17875C8.58499 8.06812 8.77874 8.0575 8.93874 8.16187C9.10437 8.26187 9.18187 8.43812 9.10999 8.54937Z" fill="#5A5F63"/>
<path d="M14.6744 11.5025C16.5314 11.5025 18.0369 10.1042 18.0369 8.37935C18.0369 6.6545 16.5314 5.25623 14.6744 5.25623C12.8173 5.25623 11.3119 6.6545 11.3119 8.37935C11.3119 10.1042 12.8173 11.5025 14.6744 11.5025Z" fill="#F4C534"/>
<path d="M17.5319 8.37939C17.4444 9.80252 16.0944 10.9569 14.5163 10.9569C12.9382 10.9569 11.7294 9.80252 11.8169 8.37939C11.9044 6.95564 13.2544 5.80127 14.8325 5.80127C16.41 5.80189 17.6188 6.95627 17.5319 8.37939Z" fill="white"/>
<path d="M13.7975 9.61185C14.5776 9.61185 15.21 8.94867 15.21 8.1306C15.21 7.31253 14.5776 6.64935 13.7975 6.64935C13.0174 6.64935 12.385 7.31253 12.385 8.1306C12.385 8.94867 13.0174 9.61185 13.7975 9.61185Z" fill="#3E4347"/>
<path d="M14.6556 7.56689C14.5837 7.68314 14.3956 7.68877 14.23 7.58314C14.07 7.48377 13.9925 7.30689 14.0644 7.19627C14.1306 7.08564 14.3244 7.07439 14.4844 7.17939C14.65 7.27939 14.7275 7.45627 14.6556 7.56689Z" fill="#5A5F63"/>
</svg>
