<svg width="22" height="22" viewBox="0 0 22 22" fill="none" xmlns="http://www.w3.org/2000/svg">
<path d="M11 21C16.5228 21 21 16.5228 21 11C21 5.47715 16.5228 1 11 1C5.47715 1 1 5.47715 1 11C1 16.5228 5.47715 21 11 21Z" fill="#FFD93B"/>
<path d="M20.9528 11C20.9528 16.525 16.4747 21 10.9528 21C7.80908 21 5.00283 19.55 3.16846 17.2781C4.88408 18.6656 7.06846 19.4938 9.44658 19.4938C14.9685 19.4938 19.4466 15.0188 19.4466 9.49376C19.4466 7.11564 18.6185 4.93126 17.231 3.21564C19.4997 5.05001 20.9528 7.85626 20.9528 11Z" fill="#F4C534"/>
<path d="M12.4524 8.13312C14.4705 7.86937 16.5924 8.31187 17.9036 9.30438C18.208 9.53813 18.6292 9.24625 18.5211 8.8775C17.7574 6.22562 14.1486 5.33999 12.1236 7.50187C11.8805 7.76875 12.098 8.17937 12.4524 8.13312Z" fill="#3E4347"/>
<path d="M9.54652 8.13312C7.5284 7.86937 5.40652 8.31187 4.09527 9.30438C3.7909 9.53813 3.36965 9.24625 3.47777 8.8775C4.24152 6.22562 7.85027 5.33999 9.87527 7.50187C10.119 7.76875 9.90152 8.17937 9.54652 8.13312Z" fill="#3E4347"/>
<path d="M17.6579 5.51748C17.6579 5.51748 16.1917 4.11561 14.9048 3.71936C14.3998 3.51686 14.0123 3.58373 13.4854 3.12311C13.4223 3.05936 14.0173 2.56061 15.2398 2.94873C16.7386 3.42436 17.8442 5.39311 17.6579 5.51748Z" fill="#3E4347"/>
<path d="M4.34129 5.51748C4.34129 5.51748 5.80754 4.11561 7.09441 3.71936C7.59941 3.51686 7.98691 3.58373 8.51378 3.12311C8.57691 3.05936 7.98191 2.56061 6.75941 2.94873C5.26066 3.42436 4.15504 5.39311 4.34129 5.51748Z" fill="#3E4347"/>
<path d="M17.2742 13.9087C16.4811 16.625 13.9786 18.6175 10.9999 18.6175C8.02174 18.6175 5.51174 16.625 4.72612 13.895C4.50549 13.1362 4.92612 12.3231 5.66362 12.0331C9.15237 10.6681 12.703 10.6406 16.3224 12.04C17.0674 12.33 17.4949 13.1362 17.2742 13.9087Z" fill="#3E4347"/>
<path d="M15.1132 16.9538C14.7157 15.2644 13.455 14.1881 11.8163 14.8C10.0225 15.4731 9.02691 14.3369 8.14629 15.4663C7.80691 15.8975 7.56441 16.4025 7.43066 16.9531C9.70816 18.2081 12.2944 18.0956 15.1132 16.9538Z" fill="#E24B4B"/>
<path d="M11 14.395C13.7544 14.395 16.1213 14.1625 17.2069 12.9075C17.0457 12.5231 16.7357 12.2013 16.3232 12.0406C12.7038 10.6406 9.15316 10.6681 5.66441 12.0331C5.25504 12.1944 4.94879 12.5188 4.79004 12.9038C5.87379 14.1613 8.24254 14.395 11 14.395Z" fill="white"/>
<path d="M11 17.1313C8.54129 17.1313 6.38691 15.42 5.18066 15.0363C6.25879 17.1613 8.45691 18.6175 11.0007 18.6175C13.5488 18.6175 15.7444 17.1569 16.8238 15.035C15.6175 15.4169 13.4613 17.1313 11 17.1313Z" fill="white"/>
</svg>
