<svg width="22" height="22" viewBox="0 0 22 22" fill="none" xmlns="http://www.w3.org/2000/svg">
<path d="M11 21C16.5228 21 21 16.5228 21 11C21 5.47715 16.5228 1 11 1C5.47715 1 1 5.47715 1 11C1 16.5228 5.47715 21 11 21Z" fill="#FFD93B"/>
<path d="M21 11C21 16.525 16.5219 21 11 21C7.85626 21 5.05001 19.55 3.21564 17.2781C4.93126 18.6656 7.11564 19.4938 9.49376 19.4938C15.0156 19.4938 19.4938 15.0188 19.4938 9.49376C19.4938 7.11564 18.6656 4.93126 17.2781 3.21564C19.5469 5.05001 21 7.85626 21 11Z" fill="#F4C534"/>
<path d="M9.15411 4.84437C7.81912 4.32937 6.53974 4.51625 5.73474 5.4275C6.25912 3.94687 7.68912 3.31437 9.01974 3.63562L9.15411 4.84437Z" fill="#3E4347"/>
<path d="M10.6291 9.39751C10.6348 11.3444 9.38414 12.9231 7.83602 12.9231C6.28789 12.9231 5.02914 11.345 5.02352 9.39751C5.01789 7.45064 6.26852 5.87189 7.81664 5.87189C9.36414 5.87189 10.6235 7.45064 10.6291 9.39751Z" fill="#3E4347"/>
<path d="M10.1281 9.39749C10.2575 11.0981 9.3319 12.4769 8.06065 12.4769C6.7894 12.4769 5.65377 11.0981 5.5244 9.39749C5.39502 7.69686 6.32065 6.31812 7.5919 6.31812C8.86315 6.31749 9.99877 7.69624 10.1281 9.39749Z" fill="white"/>
<path d="M8.65622 11.2881C9.32138 11.2881 9.86059 10.6848 9.86059 9.94064C9.86059 9.19644 9.32138 8.59314 8.65622 8.59314C7.99106 8.59314 7.45184 9.19644 7.45184 9.94064C7.45184 10.6848 7.99106 11.2881 8.65622 11.2881Z" fill="#3E4347"/>
<path d="M9.31122 9.72561C9.17747 9.84811 8.93684 9.79499 8.76747 9.61436C8.59809 9.43436 8.56997 9.18811 8.69684 9.07124C8.83059 8.94874 9.07122 8.99561 9.23434 9.18186C9.40434 9.36249 9.43809 9.60874 9.31122 9.72561Z" fill="#5A5F63"/>
<path d="M12.845 4.84437C14.18 4.32937 15.4593 4.51625 16.2643 5.4275C15.74 3.94687 14.31 3.31437 12.9793 3.63562L12.845 4.84437Z" fill="#3E4347"/>
<path d="M11.3706 9.39751C11.365 11.3444 12.6156 12.9231 14.1637 12.9231C15.7119 12.9231 16.9706 11.345 16.9762 9.39751C16.9819 7.45064 15.7312 5.87189 14.1831 5.87189C12.6356 5.87189 11.3762 7.45064 11.3706 9.39751Z" fill="#3E4347"/>
<path d="M11.8719 9.39749C11.7425 11.0981 12.6681 12.4769 13.9394 12.4769C15.2106 12.4769 16.3462 11.0981 16.4756 9.39749C16.605 7.69686 15.6794 6.31812 14.4081 6.31812C13.1369 6.31749 12.0012 7.69624 11.8719 9.39749Z" fill="white"/>
<path d="M13.3437 11.2881C14.0089 11.2881 14.5481 10.6848 14.5481 9.94064C14.5481 9.19644 14.0089 8.59314 13.3437 8.59314C12.6786 8.59314 12.1393 9.19644 12.1393 9.94064C12.1393 10.6848 12.6786 11.2881 13.3437 11.2881Z" fill="#3E4347"/>
<path d="M12.6887 9.72561C12.8219 9.84811 13.0631 9.79499 13.2325 9.61436C13.4019 9.43436 13.4294 9.18811 13.3031 9.07124C13.17 8.94874 12.9287 8.99561 12.7656 9.18186C12.5956 9.36249 12.5619 9.60874 12.6887 9.72561Z" fill="#5A5F63"/>
<path d="M16.2506 15.4363C16.2506 15.4363 15.9556 15.0525 15.6006 14.7988C15.5631 14.7675 15.5256 14.7425 15.4819 14.7175C14.8662 16.5669 12.9475 17.2944 11.0069 17.3675C8.12874 17.2713 6.75249 15.7219 6.51936 14.7113C6.48186 14.7425 6.43811 14.7675 6.39436 14.7988C6.06186 15.0363 5.75061 15.4363 5.75061 15.4363C5.70936 15.23 5.85936 14.7981 6.21311 14.5488C6.51124 14.3206 6.96061 14.2606 7.19436 14.3425C6.98936 14.445 6.74936 14.5613 6.55686 14.6863C6.96124 15.4944 8.40436 16.69 10.9881 16.7425C13.5025 16.6981 14.9812 15.6175 15.4444 14.6925C15.1844 14.5238 15.075 14.4844 14.8069 14.3425C15.0406 14.2606 15.49 14.3206 15.7881 14.5488C16.0706 14.7475 16.2506 15.0594 16.2506 15.4363Z" fill="#3E4347"/>
<path d="M9.78186 18.2288C9.99374 18.2619 10.6619 18.5644 10.8725 18.5519C11.4287 18.5781 12.0244 18.2288 12.0244 18.2288C11.9175 18.6288 11.4794 19.0125 10.9 18.995C10.3169 18.9706 9.86811 18.5756 9.78186 18.2288Z" fill="#F4C534"/>
</svg>
