<svg width="22" height="22" viewBox="0 0 22 22" fill="none" xmlns="http://www.w3.org/2000/svg">
<path d="M10.9999 20.9998C16.5227 20.9998 20.9998 16.5227 20.9998 10.9999C20.9998 5.47712 16.5227 1 10.9999 1C5.47712 1 1 5.47712 1 10.9999C1 16.5227 5.47712 20.9998 10.9999 20.9998Z" fill="#FFD93B"/>
<path d="M20.9998 10.9999C20.9998 16.5248 16.5217 20.9998 10.9999 20.9998C7.85615 20.9998 5.04993 19.5498 3.21558 17.278C4.93118 18.6655 7.11554 19.4936 9.49364 19.4936C15.0155 19.4936 19.4935 15.0186 19.4935 9.49365C19.4935 7.11555 18.6654 4.93119 17.2779 3.21558C19.5467 5.04994 20.9998 7.85616 20.9998 10.9999Z" fill="#F4C534"/>
<path d="M17.8479 13.6284C17.1104 16.7284 14.3291 19.0409 10.9979 19.0409C7.66669 19.0409 4.88546 16.7284 4.14797 13.6222C4.09172 13.3847 4.31047 13.1784 4.54172 13.2472C8.87918 14.5409 13.1854 14.5659 17.4541 13.2534C17.6916 13.1784 17.9041 13.3909 17.8479 13.6284Z" fill="#3E4347"/>
<path d="M10.5959 16.4187C8.03594 16.4187 6.21221 15.6656 6.56721 17.4456C6.56908 17.455 6.57283 17.4637 6.57471 17.4731C7.78282 18.4525 9.32031 19.04 10.9984 19.04C12.6765 19.04 14.214 18.4518 15.4221 17.4737C15.424 17.4637 15.4278 17.455 15.4296 17.4456C15.7846 15.6656 13.1565 16.4187 10.5959 16.4187Z" fill="#E24B4B"/>
<path d="M4.64197 13.2728C5.02009 14.6291 7.71382 15.6753 10.9857 15.6753C14.2456 15.6753 16.9306 14.6366 17.3244 13.2872C13.1313 14.5497 8.90193 14.5241 4.64197 13.2728Z" fill="white"/>
<path d="M15.1715 13.2291C17.2953 13.2291 19.0171 11.5074 19.0171 9.3835C19.0171 7.25963 17.2953 5.5379 15.1715 5.5379C13.0476 5.5379 11.3259 7.25963 11.3259 9.3835C11.3259 11.5074 13.0476 13.2291 15.1715 13.2291Z" fill="#F4C534"/>
<path d="M18.4635 9.38393C18.3623 11.2133 16.8073 12.6951 14.9892 12.6951C13.1717 12.6951 11.7748 11.2127 11.8761 9.38393C11.9773 7.55457 13.5386 6.06708 15.3561 6.06708C17.1736 6.06708 18.5648 7.55519 18.4635 9.38393Z" fill="white"/>
<path d="M16.7304 9.38186C16.7341 10.2437 16.0322 10.9456 15.1704 10.9418C14.3085 10.9456 13.606 10.2431 13.6104 9.38123C13.6066 8.51936 14.3085 7.81749 15.1704 7.82124C16.0322 7.81749 16.7341 8.51999 16.7304 9.38186Z" fill="#3E4347"/>
<path d="M15.9534 8.59843C15.7715 8.41659 15.5295 8.36376 15.4129 8.48043C15.2962 8.5971 15.349 8.83908 15.5309 9.02092C15.7127 9.20275 15.9547 9.25558 16.0713 9.13891C16.188 9.02225 16.1352 8.78026 15.9534 8.59843Z" fill="white"/>
<path d="M6.82863 13.2291C8.95249 13.2291 10.6742 11.5074 10.6742 9.3835C10.6742 7.25963 8.95249 5.5379 6.82863 5.5379C4.70476 5.5379 2.98303 7.25963 2.98303 9.3835C2.98303 11.5074 4.70476 13.2291 6.82863 13.2291Z" fill="#F4C534"/>
<path d="M3.53693 9.38393C3.63818 11.2133 5.19317 12.6951 7.01128 12.6951C8.82877 12.6951 10.2256 11.2127 10.1244 9.38393C10.0231 7.55457 8.46189 6.06708 6.64441 6.06708C4.8263 6.06708 3.43569 7.55519 3.53693 9.38393Z" fill="white"/>
<path d="M5.26997 9.38186C5.26622 10.2437 5.96809 10.9456 6.82996 10.9418C7.69183 10.9456 8.3937 10.2431 8.38995 9.38123C8.3937 8.51936 7.69183 7.81749 6.82996 7.82124C5.96872 7.81749 5.26622 8.51999 5.26997 9.38186Z" fill="#3E4347"/>
<path d="M6.58634 8.48166C6.46967 8.36499 6.22769 8.41782 6.04585 8.59965C5.86401 8.78149 5.81118 9.02347 5.92785 9.14014C6.04452 9.2568 6.28651 9.20397 6.46834 9.02214C6.65018 8.84031 6.70301 8.59832 6.58634 8.48166Z" fill="white"/>
</svg>
