<svg width="22" height="22" viewBox="0 0 22 22" fill="none" xmlns="http://www.w3.org/2000/svg">
<path d="M11 21.8049C16.5228 21.8049 21 17.3278 21 11.8049C21 6.28208 16.5228 1.80493 11 1.80493C5.47715 1.80493 1 6.28208 1 11.8049C1 17.3278 5.47715 21.8049 11 21.8049Z" fill="#FFD93B"/>
<path d="M21 11.8049C21 17.3299 16.5218 21.8049 11 21.8049C7.85655 21.8049 5.04984 20.3551 3.21576 18.0828C4.93151 19.4702 7.11602 20.2985 9.49363 20.2985C15.0154 20.2985 19.4936 15.8235 19.4936 10.2985C19.4936 7.92024 18.6653 5.73638 17.2779 4.02063C19.5469 5.85536 21 8.66142 21 11.8049Z" fill="#F4C534"/>
<path d="M8.02163 1.80686C8.49429 3.01355 6.90987 5.76369 6.90987 5.76369C6.90987 5.76369 3.87886 4.82032 3.4062 3.61429C3.15134 2.96283 3.47447 2.22361 4.12592 1.96875C4.65254 1.76265 5.23638 1.93364 5.57446 2.35104C5.5387 1.81467 5.84947 1.29389 6.3761 1.08779C7.0295 0.831635 7.76677 1.15541 8.02163 1.80686Z" fill="#E24B4B"/>
<path d="M20.8454 4.9497C20.1498 6.40799 16.2944 7.30975 16.2944 7.30975C16.2944 7.30975 14.5695 3.74562 15.2658 2.28733C15.6416 1.49999 16.5895 1.16451 17.3775 1.5403C18.0147 1.84457 18.3566 2.52138 18.2643 3.18584C18.7227 2.69627 19.4612 2.53504 20.0984 2.83866C20.8883 3.2151 21.2212 4.16237 20.8454 4.9497Z" fill="#E24B4B"/>
<path d="M11.5104 10.3752C11.5104 12.6488 9.67111 14.4881 7.39753 14.4881C5.13045 14.4881 3.28467 12.6488 3.28467 10.3752C3.28467 8.10814 5.13045 6.26886 7.39753 6.26886C9.67111 6.26951 11.5104 8.10814 11.5104 10.3752Z" fill="#F4C534"/>
<path d="M10.7738 10.3759C10.5404 12.2639 8.84281 13.7911 6.97622 13.7911C5.11549 13.7911 3.78853 12.2639 4.02193 10.3759C4.25469 8.49305 5.95809 6.96649 7.81882 6.96649C9.68541 6.96649 11.0065 8.4937 10.7738 10.3759Z" fill="white"/>
<path d="M7.65235 10.3798C8.43045 10.3798 9.06123 9.74899 9.06123 8.97089C9.06123 8.19279 8.43045 7.56201 7.65235 7.56201C6.87425 7.56201 6.24347 8.19279 6.24347 8.97089C6.24347 9.74899 6.87425 10.3798 7.65235 10.3798Z" fill="#3E4347"/>
<path d="M8.36196 8.2587C8.19159 8.08834 7.95613 8.04758 7.83604 8.16768C7.71594 8.28777 7.7567 8.52324 7.92706 8.6936C8.09743 8.86397 8.33289 8.90472 8.45298 8.78463C8.57308 8.66453 8.53232 8.42907 8.36196 8.2587Z" fill="white"/>
<path d="M18.7154 10.9389C18.7154 12.7828 17.2239 14.2742 15.3801 14.2742C13.5421 14.2742 12.0448 12.7828 12.0448 10.9389C12.0448 9.1003 13.5414 7.6095 15.3801 7.6095C17.2239 7.60885 18.7154 9.1003 18.7154 10.9389Z" fill="#F4C534"/>
<path d="M18.1172 10.9395C18.2726 12.4349 17.1738 13.6435 15.6603 13.6435C14.1513 13.6435 12.797 12.4342 12.6416 10.9395C12.4869 9.44872 13.5902 8.23944 15.0992 8.23944C16.6134 8.23944 17.9625 9.44872 18.1172 10.9395Z" fill="white"/>
<path d="M14.8931 11.5305C15.6712 11.5305 16.302 10.8998 16.302 10.1216C16.302 9.34355 15.6712 8.71277 14.8931 8.71277C14.115 8.71277 13.4843 9.34355 13.4843 10.1216C13.4843 10.8998 14.115 11.5305 14.8931 11.5305Z" fill="#3E4347"/>
<path d="M15.6024 9.40794C15.432 9.23757 15.1965 9.19682 15.0765 9.31691C14.9564 9.437 14.9971 9.67247 15.1675 9.84283C15.3378 10.0132 15.5733 10.054 15.6934 9.93386C15.8135 9.81376 15.7727 9.5783 15.6024 9.40794Z" fill="white"/>
<path d="M4.58429 15.2111C5.08036 15.9639 5.57837 16.4789 6.19927 17.0178C7.48722 18.1029 9.19192 18.7362 10.9889 18.7576C12.877 18.7316 14.5225 18.0932 15.8007 17.0172C16.4145 16.4847 16.9287 15.949 17.4157 15.2111C17.0549 16.0049 16.6375 16.6817 16.0393 17.2759C14.6187 18.6686 13.0285 19.3369 11.011 19.3824C8.93446 19.335 7.35459 18.6406 5.96131 17.2753C5.35927 16.6772 4.94122 15.9945 4.58429 15.2111Z" fill="#3E4347"/>
</svg>
