<svg width="22" height="22" viewBox="0 0 22 22" fill="none" xmlns="http://www.w3.org/2000/svg">
<path d="M11 21C16.5228 21 21 16.5228 21 11C21 5.47715 16.5228 1 11 1C5.47715 1 1 5.47715 1 11C1 16.5228 5.47715 21 11 21Z" fill="#FFD93B"/>
<path d="M18.2137 12.5856C17.4887 15.9106 14.5387 18.3981 11.0012 18.3981C7.46375 18.3981 4.5075 15.9106 3.7825 12.5856C3.72625 12.3231 3.9575 12.0856 4.22 12.1481C8.73875 13.2231 13.2575 13.2231 17.7762 12.1481C18.045 12.085 18.2762 12.3231 18.2137 12.5856Z" fill="#3E4347"/>
<path d="M14.5275 17.1144C14.5287 17.0894 14.535 17.0662 14.535 17.0406C14.535 15.7344 13.4787 14.6719 12.1662 14.6719C11.5225 14.6719 10.9412 14.9281 10.5225 15.3406C10.185 15.1469 9.79124 15.0406 9.37249 15.0406C8.16936 15.0406 7.18374 15.9456 7.03436 17.1137H14.5275V17.1144Z" fill="#E24B4B"/>
<path d="M21 11C21 16.525 16.5219 21 11 21C7.85626 21 5.05001 19.55 3.21564 17.2781C4.93126 18.6656 7.11564 19.4938 9.49376 19.4938C15.0156 19.4938 19.4938 15.0188 19.4938 9.49376C19.4938 7.11564 18.6656 4.93126 17.2781 3.21564C19.5469 5.05001 21 7.85626 21 11Z" fill="#F4C534"/>
<path d="M4.67688 12.24C5.78063 13.8675 8.165 14.38 11 14.38C13.835 14.38 16.2194 13.8675 17.3231 12.24C13.1075 13.1731 8.8925 13.1731 4.67688 12.24Z" fill="white"/>
<path d="M5.4964 15.9231C6.84827 17.4375 8.80952 18.3956 11.0001 18.3956C13.2051 18.3956 15.177 17.425 16.5301 15.8937C12.8189 16.955 9.05202 17.0094 5.4964 15.9231Z" fill="white"/>
<g opacity="0.2">
<path opacity="0.2" d="M13.3075 15.6606C13.2512 15.9106 12.8637 16.0294 12.445 15.9294C12.0325 15.8294 11.7387 15.5481 11.8012 15.2981C11.8575 15.0481 12.245 14.9294 12.6637 15.0294C13.0762 15.1294 13.37 15.4106 13.3075 15.6606Z" fill="white"/>
</g>
<path d="M17.3817 8.33999C17.3499 8.39874 17.3124 8.45499 17.2736 8.51186C16.9274 7.68936 15.9792 6.98499 14.8549 6.48311C13.7324 5.99561 12.6455 5.81999 11.6849 5.94936C11.7199 5.90124 11.7555 5.85249 11.7936 5.80749C12.7455 4.80249 14.2199 4.54061 15.5674 5.07874C16.9086 5.66561 18.0555 6.96561 17.3817 8.33999Z" fill="#3E4347"/>
<path d="M4.61815 8.33999C4.65003 8.39874 4.68753 8.45499 4.72628 8.51186C5.07253 7.68936 6.02065 6.98499 7.14503 6.48311C8.26753 5.99561 9.3544 5.81999 10.315 5.94936C10.28 5.90124 10.2444 5.85249 10.2063 5.80749C9.2544 4.80249 7.78003 4.54061 6.43253 5.07874C5.09128 5.66561 3.9444 6.96561 4.61815 8.33999Z" fill="#3E4347"/>
<path d="M20.4831 10.8119C20.2263 10.2006 18.3119 8.74438 18.3119 8.74438C18.3119 8.74438 18.0125 11.1313 18.2694 11.7425C18.5263 12.3538 19.23 12.6413 19.8413 12.3844C20.4531 12.1275 20.74 11.4238 20.4831 10.8119Z" fill="#38C0DC"/>
<path d="M1.51689 10.8119C1.77376 10.2006 3.68814 8.74438 3.68814 8.74438C3.68814 8.74438 3.98751 11.1313 3.73064 11.7425C3.47376 12.3538 2.77001 12.6413 2.15876 12.3844C1.54751 12.1275 1.26001 11.4238 1.51689 10.8119Z" fill="#38C0DC"/>
</svg>
