<svg width="22" height="22" viewBox="0 0 22 22" fill="none" xmlns="http://www.w3.org/2000/svg">
<path d="M10.8676 21C16.3173 21 20.7352 16.5821 20.7352 11.1324C20.7352 5.6827 16.3173 1.26483 10.8676 1.26483C5.41787 1.26483 1 5.6827 1 11.1324C1 16.5821 5.41787 21 10.8676 21Z" fill="#FFD93B"/>
<path d="M17.2471 13.5718C16.6733 16.5756 14.0339 18.8388 10.8701 18.8388C7.70011 18.8388 5.06071 16.5756 4.49321 13.5718C4.43758 13.2818 4.70883 13.035 4.99259 13.1156C8.90262 14.195 12.8189 14.1887 16.7477 13.1093C17.0314 13.035 17.3027 13.2818 17.2471 13.5718Z" fill="#3E4347"/>
<path d="M5.664 13.2768C6.60339 15.0799 8.4659 15.6099 10.8447 15.6099C13.2147 15.6099 15.0691 15.0818 16.0122 13.2912C12.5572 14.1212 9.10716 14.1187 5.664 13.2768Z" fill="white"/>
<path d="M20.7351 11.1324C20.7351 16.5844 16.3163 21 10.8675 21C7.76557 21 4.99617 19.5694 3.18616 17.3275C4.8793 18.6969 7.03432 19.5138 9.38122 19.5138C14.83 19.5138 19.2488 15.0981 19.2488 9.64617C19.2488 7.29927 18.4319 5.14363 17.0625 3.45111C19.3013 5.26113 20.7351 8.0299 20.7351 11.1324Z" fill="#F4C534"/>
<path d="M9.934 7.2755C9.934 9.41802 7.3946 12.078 4.79645 11.0787C3.60894 10.6162 2.7483 9.4924 2.61393 8.21739C2.4908 6.813 3.20518 5.48486 4.43394 4.8236C6.44146 3.80422 9.934 4.88423 9.934 7.2755Z" fill="white"/>
<path d="M16.9437 11.0786C15.6712 11.568 14.3843 11.2174 13.3568 10.3118C11.7074 8.87112 10.9968 6.40673 13.158 5.08671C14.3924 4.33796 16.1306 4.22671 17.2893 4.82359C19.8831 6.2061 19.7169 9.99926 16.9437 11.0786Z" fill="white"/>
<path d="M19.9574 4.23423H19.6299C18.723 4.23423 17.8042 4.18173 16.9267 3.95923C15.3061 3.5436 13.3923 4.0411 12.3217 5.15299C11.9767 5.50424 11.491 5.67362 10.9992 5.67362H10.7535C10.256 5.67362 9.76477 5.50361 9.41977 5.14736C8.33101 4.03548 6.40536 3.5436 4.80222 3.95923C3.93034 4.18173 3.02346 4.23423 2.12845 4.23423H1.77719C1.56094 4.23423 1.38531 4.40985 1.38531 4.63236V5.85549C1.38531 6.01362 1.49032 6.13612 1.63094 6.20675C1.81219 6.29987 1.93532 6.48737 1.93532 6.70425C1.93532 6.74988 1.9297 6.803 1.91157 6.84988C0.840935 10.8168 5.51035 13.9999 8.81601 10.8112C9.51227 10.1212 10.0154 9.3249 10.2435 8.42427C10.3135 8.14364 10.5773 7.96176 10.8698 7.96176C11.1567 7.96176 11.4254 8.14301 11.4898 8.42427C11.7179 9.32553 12.221 10.1212 12.9173 10.8112C16.2061 13.9887 20.8924 10.8462 19.8217 6.84425C19.7517 6.58112 19.8805 6.32362 20.1024 6.20675C20.243 6.13612 20.348 6.00737 20.348 5.84987V4.63236C20.3492 4.40923 20.1736 4.23423 19.9574 4.23423ZM8.18475 10.0912C5.91473 12.0981 3.15283 10.5005 2.9072 8.18364C2.79033 6.89613 3.45158 5.68549 4.57472 5.08236C6.35974 4.16923 9.64227 5.10549 9.64227 7.27676C9.64164 8.35927 8.98601 9.3949 8.18475 10.0912ZM18.828 8.18364C18.5824 10.5005 15.8261 12.0981 13.5498 10.0912C12.7542 9.39428 12.0985 8.35864 12.0985 7.27676C12.0985 5.10549 15.3811 4.16985 17.1542 5.08236C18.2836 5.68549 18.9449 6.89613 18.828 8.18364Z" fill="#3E4347"/>
<path d="M15.0664 9.50555C15.9045 9.50555 16.5839 8.82613 16.5839 7.98803C16.5839 7.14993 15.9045 6.47052 15.0664 6.47052C14.2283 6.47052 13.5489 7.14993 13.5489 7.98803C13.5489 8.82613 14.2283 9.50555 15.0664 9.50555Z" fill="#3E4347"/>
<path d="M15.8654 7.18605C15.6835 7.00421 15.4332 6.95969 15.3063 7.08661C15.1794 7.21353 15.2239 7.46383 15.4057 7.64567C15.5876 7.82751 15.8379 7.87203 15.9648 7.7451C16.0917 7.61818 16.0472 7.36789 15.8654 7.18605Z" fill="white"/>
<path d="M6.81396 9.50549C7.65206 9.50549 8.33148 8.82607 8.33148 7.98797C8.33148 7.14987 7.65206 6.47046 6.81396 6.47046C5.97586 6.47046 5.29645 7.14987 5.29645 7.98797C5.29645 8.82607 5.97586 9.50549 6.81396 9.50549Z" fill="#3E4347"/>
<path d="M7.61298 7.18568C7.43114 7.00384 7.18084 6.95933 7.05392 7.08625C6.927 7.21317 6.97152 7.46346 7.15336 7.6453C7.3352 7.82714 7.58549 7.87166 7.71241 7.74474C7.83934 7.61782 7.79482 7.36752 7.61298 7.18568Z" fill="white"/>
<path d="M8.46532 2.01295C8.4897 1.93545 4.88654 2.0317 3.81591 4.03359C3.54403 4.02984 6.18218 -1.12521 8.46532 2.01295Z" fill="#3E4347"/>
<path d="M13.2694 2.01295C13.245 1.93545 16.8482 2.0317 17.9188 4.03359C18.1907 4.02984 15.5526 -1.12521 13.2694 2.01295Z" fill="#3E4347"/>
<path d="M10.3221 16.715C8.26016 16.715 7.3689 15.5975 6.95702 16.7812C6.87765 17.0087 6.85577 17.2368 6.87452 17.4612C7.97641 18.3225 9.36142 18.8387 10.8702 18.8387C12.3783 18.8387 13.7633 18.3206 14.8665 17.4568C14.8846 17.2337 14.8621 17.0068 14.7833 16.7806C14.3715 15.5975 12.3839 16.715 10.3221 16.715Z" fill="#E24B4B"/>
</svg>
