<svg width="22" height="22" viewBox="0 0 22 22" fill="none" xmlns="http://www.w3.org/2000/svg">
<path d="M11 21C16.5228 21 21 16.5228 21 11C21 5.47715 16.5228 1 11 1C5.47715 1 1 5.47715 1 11C1 16.5228 5.47715 21 11 21Z" fill="#FFD93B"/>
<path d="M21 11C21 16.525 16.5219 21 11 21C7.85626 21 5.05001 19.55 3.21564 17.2781C4.93126 18.6656 7.11564 19.4938 9.49376 19.4938C15.0156 19.4938 19.4938 15.0188 19.4938 9.49376C19.4938 7.11564 18.6656 4.93126 17.2781 3.21564C19.5469 5.05001 21 7.85626 21 11Z" fill="#F4C534"/>
<path d="M15.8488 16.7413C15.2988 17.6469 14.6831 17.7263 13.8863 17.21C13.5831 17.0263 12.9731 16.7225 12.2781 16.5231C11.225 16.1944 9.95627 16.2756 8.83689 16.8731C8.11377 17.2619 7.46314 17.5475 7.09252 17.585C6.11564 17.6519 5.23877 16.7825 5.06752 15.8913C4.88189 15.0219 5.46314 13.5363 6.77252 13.0988C7.24314 12.9488 8.15377 12.955 9.02377 13.2638C10.3669 13.7163 11.6769 14.0444 12.9506 14.3019C13.7744 14.4713 14.5419 14.7 14.9506 14.8225C16.0763 15.1356 16.3988 15.8563 15.8488 16.7413Z" fill="#FFD93B"/>
<path d="M15.8488 16.7413C15.2988 17.6469 14.6831 17.7263 13.8863 17.21C13.5831 17.0263 12.9731 16.7225 12.2781 16.5231C11.225 16.1944 9.95627 16.2756 8.83689 16.8731C8.11377 17.2619 7.46314 17.5475 7.09252 17.585C6.11564 17.6519 5.23877 16.7825 5.06752 15.8913C4.88189 15.0219 5.46314 13.5363 6.77252 13.0988C7.24314 12.9488 8.15377 12.955 9.02377 13.2638C10.3669 13.7163 11.6769 14.0444 12.9506 14.3019C13.7744 14.4713 14.5419 14.7 14.9506 14.8225C16.0763 15.1356 16.3988 15.8563 15.8488 16.7413Z" fill="#3E4347"/>
<path d="M13.4062 15.7656C14.1362 15.8294 14.8306 15.9656 15.59 16.0144C15.6206 15.6481 15.405 15.3194 14.8044 15.1194C14.4894 15.0162 13.8037 14.8131 12.9612 14.6681C12.2925 14.5575 11.6119 14.4362 10.9206 14.2994C10.23 14.1625 9.53311 13.9975 8.83248 13.7937C7.95123 13.5287 7.12811 13.5669 6.77749 13.6744C6.07061 13.8769 5.71999 14.4912 5.60999 15.0062C6.39811 15.0206 7.18311 15.2075 7.93748 15.3775C7.18248 15.5494 6.41873 15.7331 5.63186 15.9381C5.79624 16.5125 6.26686 17.1237 7.01686 17.0275C7.31686 16.9881 7.93561 16.7469 8.72061 16.365C9.33748 16.0725 9.99873 15.9181 10.6437 15.9056C11.2887 15.8925 11.915 16.0025 12.4781 16.2112C13.2062 16.4706 13.76 16.7662 14.0081 16.9037C14.6262 17.2581 15.0381 17.0819 15.3394 16.6637C14.7187 16.3106 14.0706 16.0144 13.4062 15.7656Z" fill="white"/>
<path d="M7.19188 11.51C9.04824 11.51 10.5531 10.0051 10.5531 8.14872C10.5531 6.29236 9.04824 4.78748 7.19188 4.78748C5.33551 4.78748 3.83063 6.29236 3.83063 8.14872C3.83063 10.0051 5.33551 11.51 7.19188 11.51Z" fill="#F4C534"/>
<path d="M10.1675 8.14872C10.0781 9.76372 8.67313 11.0725 7.03 11.0725C5.38688 11.0725 4.1275 9.76372 4.21688 8.14872C4.30625 6.53435 5.71125 5.22498 7.35438 5.22498C8.9975 5.22498 10.2569 6.53435 10.1675 8.14872Z" fill="white"/>
<path d="M8.03703 9.83798C8.96004 9.83798 9.70828 9.08974 9.70828 8.16673C9.70828 7.24373 8.96004 6.49548 8.03703 6.49548C7.11403 6.49548 6.36578 7.24373 6.36578 8.16673C6.36578 9.08974 7.11403 9.83798 8.03703 9.83798Z" fill="#3E4347"/>
<path d="M9.03561 7.80002C8.90749 7.92815 8.65811 7.8944 8.48249 7.71877C8.31374 7.54377 8.27374 7.30065 8.40186 7.16627C8.53686 7.03815 8.77936 7.07877 8.95499 7.2469C9.12999 7.42252 9.16374 7.6719 9.03561 7.80002Z" fill="#5A5F63"/>
<path d="M14.7812 11.51C16.6376 11.51 18.1425 10.0051 18.1425 8.14872C18.1425 6.29236 16.6376 4.78748 14.7812 4.78748C12.9249 4.78748 11.42 6.29236 11.42 8.14872C11.42 10.0051 12.9249 11.51 14.7812 11.51Z" fill="#F4C534"/>
<path d="M11.8031 8.14872C11.8925 9.76372 13.2975 11.0725 14.9406 11.0725C16.5837 11.0725 17.8431 9.76372 17.7537 8.14872C17.6644 6.53372 16.2594 5.22498 14.6162 5.22498C12.9725 5.22498 11.7131 6.53435 11.8031 8.14872Z" fill="white"/>
<path d="M13.933 9.83768C14.856 9.83768 15.6042 9.08943 15.6042 8.16643C15.6042 7.24342 14.856 6.49518 13.933 6.49518C13.01 6.49518 12.2617 7.24342 12.2617 8.16643C12.2617 9.08943 13.01 9.83768 13.933 9.83768Z" fill="#3E4347"/>
<path d="M14.9325 7.80002C14.8044 7.92815 14.555 7.8944 14.38 7.71877C14.2113 7.54377 14.1713 7.30065 14.2994 7.16627C14.4344 7.03815 14.6769 7.07877 14.8519 7.2469C15.0269 7.42252 15.0606 7.6719 14.9325 7.80002Z" fill="#5A5F63"/>
<path d="M3.36249 11.3262C5.74249 12.3444 8.05374 12.4137 10.2831 11.3262C7.70749 9.92124 4.69499 10.7519 3.36249 11.2537C3.36249 11.2537 3.36249 11.3262 3.36249 11.3262Z" fill="#FFD93B"/>
<path d="M10.1331 11.2394C9.50811 11.1275 8.65312 10.8388 7.01749 10.8581C5.88312 10.855 4.74812 11.01 3.85187 11.0825C4.47812 10.6619 5.74812 10.2363 7.01562 10.2338C8.16437 10.2563 9.24061 10.5106 10.1331 11.2394Z" fill="#F4C534"/>
</svg>
