<svg width="22" height="22" viewBox="0 0 22 22" fill="none" xmlns="http://www.w3.org/2000/svg">
<path d="M11 21C16.5228 21 21 16.5228 21 11C21 5.47715 16.5228 1 11 1C5.47715 1 1 5.47715 1 11C1 16.5228 5.47715 21 11 21Z" fill="#FFD93B"/>
<path d="M21 11C21 16.525 16.5219 21 11 21C7.85626 21 5.05001 19.55 3.21564 17.2781C4.93126 18.6656 7.11564 19.4938 9.49376 19.4938C15.0156 19.4938 19.4938 15.0188 19.4938 9.49376C19.4938 7.11564 18.6656 4.93126 17.2781 3.21564C19.5469 5.05001 21 7.85626 21 11Z" fill="#F4C534"/>
<path d="M14.4144 17.8231C13.8437 18.0675 12.6169 17.0188 10.8081 16.235C8.76436 15.3681 7.19873 16.0088 6.84436 15.6063C6.39873 15.3294 7.94998 14.0019 11.3694 14.0719C15.3381 14.2675 15.095 17.6556 14.4144 17.8231Z" fill="#3E4347"/>
<path d="M10.4475 9.69625C10.4475 11.2425 9.05874 12.6631 7.34624 12.8694C5.63312 13.0756 4.245 11.9894 4.245 10.4431C4.245 8.89687 5.63374 7.47625 7.34624 7.27C9.05874 7.06375 10.4475 8.15 10.4475 9.69625Z" fill="white"/>
<path d="M7.8644 11.1612C8.67039 11.1612 9.32378 10.5078 9.32378 9.70181C9.32378 8.89582 8.67039 8.24243 7.8644 8.24243C7.05841 8.24243 6.40503 8.89582 6.40503 9.70181C6.40503 10.5078 7.05841 11.1612 7.8644 11.1612Z" fill="#3E4347"/>
<path d="M8.75939 9.38375C8.64876 9.49438 8.42814 9.45 8.26876 9.29063C8.11439 9.13563 8.07001 8.915 8.18064 8.80438C8.28689 8.69813 8.50751 8.7425 8.66251 8.8975C8.82126 9.05688 8.86564 9.27813 8.75939 9.38375Z" fill="#5A5F63"/>
<path d="M11.5525 9.69625C11.5525 11.2425 12.9412 12.6631 14.6537 12.8694C16.3669 13.0756 17.755 11.9894 17.755 10.4431C17.755 8.89687 16.3662 7.47625 14.6537 7.27C12.9412 7.06375 11.5525 8.15 11.5525 9.69625Z" fill="white"/>
<path d="M14.137 11.1604C14.943 11.1604 15.5964 10.5071 15.5964 9.70107C15.5964 8.89508 14.943 8.2417 14.137 8.2417C13.331 8.2417 12.6776 8.89508 12.6776 9.70107C12.6776 10.5071 13.331 11.1604 14.137 11.1604Z" fill="#3E4347"/>
<path d="M13.2406 9.38375C13.3512 9.49438 13.5719 9.45 13.7312 9.29063C13.8862 9.13563 13.93 8.915 13.82 8.80438C13.7137 8.69813 13.4931 8.7425 13.3381 8.8975C13.1787 9.05688 13.1344 9.27813 13.2406 9.38375Z" fill="#5A5F63"/>
<path d="M4.85376 7.06939C5.47876 6.75752 6.60001 6.21752 7.33313 5.66627C8.36188 4.96189 8.84126 4.30689 9.46626 3.78314C9.39751 4.78564 8.70126 5.88752 7.87438 6.43189C6.91876 7.13314 5.55938 7.33127 4.85376 7.06939Z" fill="#F4C534"/>
<path d="M16.6727 5.69689C16.1871 6.28251 14.9071 6.78376 13.7377 6.65376C12.6002 6.58751 11.5671 5.94564 11.0352 5.15564C11.6602 5.26564 12.6177 5.62751 13.824 5.72064C14.7596 5.83439 16.0477 5.73501 16.6727 5.69689Z" fill="#F4C534"/>
</svg>
