<svg width="22" height="22" viewBox="0 0 22 22" fill="none" xmlns="http://www.w3.org/2000/svg">
<path d="M10.597 21.1939C16.4495 21.1939 21.1939 16.4495 21.1939 10.597C21.1939 4.74442 16.4495 0 10.597 0C4.74442 0 0 4.74442 0 10.597C0 16.4495 4.74442 21.1939 10.597 21.1939Z" fill="#FFD93B"/>
<path d="M21.1939 10.597C21.1939 16.4516 16.4489 21.1939 10.5969 21.1939C7.26537 21.1939 4.29198 19.6574 2.34845 17.2498C4.16617 18.7203 6.48095 19.5976 9.00128 19.5976C14.8525 19.5976 19.5982 14.8553 19.5982 9.00061C19.5982 6.48096 18.721 4.1655 17.2505 2.34778C19.6539 4.292 21.1939 7.26539 21.1939 10.597Z" fill="#F4C534"/>
<path d="M15.1344 20.3002C14.8924 21.4345 13.7436 22.2863 12.4917 21.9096C11.2398 21.5452 9.95484 21.5521 8.68367 21.9096C7.49637 22.2533 6.31664 21.4923 6.0609 20.2933C5.16647 15.9848 7.15538 11.0342 10.5908 11.0342C14.1025 11.0342 16.0137 16.0549 15.1344 20.3002Z" fill="#FFD93B"/>
<path d="M14.2207 20.1111C14.0811 20.7732 13.4129 21.209 12.7618 21.0172C11.3147 20.5992 9.8737 20.5992 8.43204 21.0172C7.78098 21.209 7.11274 20.7732 6.97318 20.1049C6.17707 16.2577 7.91436 11.9692 10.5935 11.9692C13.2967 11.9692 15.0113 16.2749 14.2207 20.1111Z" fill="#3E4347"/>
<path d="M13.23 20.3298C13.5429 19.5048 13.4872 18.5395 12.9007 17.718C12.5047 17.1549 11.7788 16.9446 11.1394 17.1914C10.7083 17.3578 10.2298 17.41 9.76991 17.3729C7.99619 17.2285 7.4132 18.9135 7.935 20.3298C9.67985 19.8004 11.4453 19.8265 13.23 20.3298Z" fill="#E24B4B"/>
<path d="M10.5967 19.2256C9.01753 19.2256 7.65836 19.6601 7.03137 20.2871C7.24449 20.8481 7.8433 21.1912 8.43179 21.0172C9.87277 20.5992 11.3144 20.5992 12.7616 21.0172C13.3515 21.1912 13.951 20.8474 14.1634 20.2885C13.5378 19.6601 12.1772 19.2256 10.5967 19.2256Z" fill="white"/>
<path d="M5.49372 10.2395C3.61275 10.0477 2.46051 8.71669 2.93763 6.83572C3.42094 4.95475 5.34178 3.43127 7.23582 3.43127C9.12366 3.43127 9.87371 4.908 10.0064 6.8481C10.1652 9.22612 7.67237 10.465 5.49372 10.2395Z" fill="white"/>
<path d="M8.68988 6.84601C8.68988 7.78512 7.9302 8.5558 6.99109 8.5558C6.04648 8.5503 5.2868 7.78512 5.2868 6.84601C5.2868 5.9069 6.04648 5.14172 6.99109 5.14172C7.9302 5.14172 8.68988 5.9069 8.68988 6.84601Z" fill="#3E4347"/>
<path d="M7.81698 6.01187C7.61991 5.81481 7.36287 5.75235 7.24286 5.87236C7.12285 5.99237 7.18532 6.24941 7.38238 6.44647C7.57945 6.64353 7.83648 6.706 7.95649 6.58599C8.0765 6.46598 8.01404 6.20894 7.81698 6.01187Z" fill="white"/>
<path d="M15.3297 10.3013C17.2362 10.1061 18.5658 8.75036 18.3396 6.83571C18.1065 4.92105 16.3892 3.36938 14.4951 3.36938C12.6073 3.36938 11.6606 4.87292 11.2694 6.84877C10.793 9.26942 13.1202 10.531 15.3297 10.3013Z" fill="white"/>
<path d="M15.9883 6.84601C15.9883 7.78512 15.2286 8.5558 14.2895 8.5558C13.3449 8.5503 12.5852 7.78512 12.5852 6.84601C12.5852 5.9069 13.3449 5.14172 14.2895 5.14172C15.2286 5.14172 15.9883 5.9069 15.9883 6.84601Z" fill="#3E4347"/>
<path d="M15.1145 6.01267C14.9175 5.8156 14.6604 5.75314 14.5404 5.87315C14.4204 5.99316 14.4829 6.2502 14.6799 6.44726C14.877 6.64433 15.134 6.70679 15.254 6.58678C15.3741 6.46677 15.3116 6.20973 15.1145 6.01267Z" fill="white"/>
</svg>
