<svg width="22" height="22" viewBox="0 0 22 22" fill="none" xmlns="http://www.w3.org/2000/svg">
<path d="M11 21C16.5228 21 21 16.5228 21 11C21 5.47715 16.5228 1 11 1C5.47715 1 1 5.47715 1 11C1 16.5228 5.47715 21 11 21Z" fill="#FFD93B"/>
<path d="M21 11C21 16.525 16.5219 21 11 21C7.85626 21 5.05001 19.55 3.21564 17.2781C4.93126 18.6656 7.11564 19.4938 9.49376 19.4938C15.0156 19.4938 19.4938 15.0188 19.4938 9.49376C19.4938 7.11564 18.6656 4.93126 17.2781 3.21564C19.5469 5.05001 21 7.85626 21 11Z" fill="#F4C534"/>
<path d="M17.6219 14.315C17.7763 16.4381 15.0494 19.1425 10.995 19.14C6.94064 19.1644 4.20627 16.46 4.38002 14.2944C4.3844 14.0912 4.6519 13.9925 4.90877 14.0725C9.01252 15.3656 12.9881 15.3812 17.0969 14.0994C17.3538 14.0187 17.6194 14.1144 17.6219 14.315Z" fill="#3E4347"/>
<path d="M5.05688 14.1231C5.25751 15.3119 7.86376 16.5519 11.1138 16.5019C14.3206 16.5087 16.9194 15.2469 17.1663 14.0887C17.1425 14.0937 17.1206 14.0931 17.0969 14.0987C13.0381 15.3675 9.10938 15.3631 5.05688 14.1231Z" fill="white"/>
<path d="M21 8.51062C21 11.2625 18.7612 13.5012 16.0087 13.5012C13.25 13.5012 11.0112 11.2619 11.0112 8.51062C11.0112 5.75187 13.25 3.51312 16.0087 3.51312C18.7612 3.51312 21 5.75187 21 8.51062Z" fill="#F4C534"/>
<path d="M20.0181 8.51062C20.0181 10.7219 18.22 12.52 16.0087 12.52C13.7912 12.52 11.9931 10.7219 11.9931 8.51062C11.9931 6.29312 13.7912 4.495 16.0087 4.495C18.22 4.495 20.0181 6.29312 20.0181 8.51062Z" fill="white"/>
<path d="M16.0063 10.6638C17.1978 10.6638 18.1638 9.69781 18.1638 8.50625C18.1638 7.3147 17.1978 6.34875 16.0063 6.34875C14.8147 6.34875 13.8488 7.3147 13.8488 8.50625C13.8488 9.69781 14.8147 10.6638 16.0063 10.6638Z" fill="#3E4347"/>
<path d="M17.0819 7.43328C16.8046 7.15601 16.4283 7.0828 16.2413 7.26976C16.0543 7.45672 16.1275 7.83305 16.4048 8.11032C16.6821 8.38759 17.0584 8.4608 17.2454 8.27384C17.4323 8.08688 17.3591 7.71055 17.0819 7.43328Z" fill="white"/>
<path d="M13.1562 7.42751C13.1562 10.7763 10.4312 13.5013 7.08187 13.5013C3.725 13.5013 1 10.7763 1 7.42751C1 4.07002 3.725 1.34564 7.08187 1.34564C10.4312 1.34564 13.1562 4.07002 13.1562 7.42751Z" fill="#F4C534"/>
<path d="M11.9613 7.42752C11.9613 10.1188 9.77313 12.3069 7.08188 12.3069C4.38313 12.3069 2.19501 10.1188 2.19501 7.42752C2.19501 4.72877 4.38313 2.54065 7.08188 2.54065C9.77313 2.54065 11.9613 4.72877 11.9613 7.42752Z" fill="white"/>
<path d="M7.07936 10.0506C8.52945 10.0506 9.70498 8.87509 9.70498 7.425C9.70498 5.97491 8.52945 4.79938 7.07936 4.79938C5.62927 4.79938 4.45374 5.97491 4.45374 7.425C4.45374 8.87509 5.62927 10.0506 7.07936 10.0506Z" fill="#3E4347"/>
<path d="M8.38796 6.11658C8.0504 5.77902 7.59215 5.68998 7.36443 5.9177C7.13671 6.14543 7.22574 6.60367 7.5633 6.94123C7.90086 7.27879 8.3591 7.36782 8.58683 7.1401C8.81455 6.91238 8.72551 6.45413 8.38796 6.11658Z" fill="white"/>
<path d="M10.995 19.14C12.6506 19.1406 14.0794 18.6862 15.1862 18.0081C14.4106 17.0119 12.9819 16.5794 11.7731 17.1581C11.2787 17.39 10.7306 17.3994 10.235 17.17C9.04687 16.6244 7.60375 17.0019 6.82562 18.0375C7.93 18.7075 9.35062 19.15 10.995 19.14Z" fill="#E24B4B"/>
</svg>
