<svg width="22" height="22" viewBox="0 0 22 22" fill="none" xmlns="http://www.w3.org/2000/svg">
<path d="M20.7721 9.6487C21.5809 16.1387 16.1221 21.5875 9.63521 20.77C5.21269 20.2125 1.64143 16.6425 1.08205 12.22C0.26017 5.72306 5.73019 0.256155 12.2283 1.08303C16.6521 1.64616 20.2203 5.22305 20.7721 9.6487Z" fill="#FFD93B"/>
<path d="M20.7846 12.0931C20.2665 16.6256 16.5996 20.2831 12.0658 20.7881C8.48956 21.1862 5.23892 19.6837 3.19891 17.1575C5.1708 18.7525 7.76706 19.6025 10.5633 19.2937C15.1133 18.7912 18.7915 15.1137 19.2934 10.5637C19.6021 7.76743 18.7515 5.17116 17.1571 3.19928C19.6865 5.24429 21.1946 8.50618 20.7846 12.0931Z" fill="#F4C534"/>
<path d="M17.1777 17.6331C16.9459 19.4918 15.4046 21 13.7352 21C12.0721 21 10.9071 19.4918 11.139 17.6331C11.3696 15.7812 12.9108 14.2731 14.574 14.2731C16.2434 14.2731 17.4084 15.7812 17.1777 17.6331Z" fill="#FFD93B"/>
<path d="M16.1557 17.6331C16.002 18.8644 14.9851 19.8607 13.8769 19.8607C12.7757 19.8607 12.0069 18.8644 12.1607 17.6331C12.3132 16.4088 13.3313 15.4056 14.4326 15.4056C15.5401 15.4056 16.3082 16.4081 16.1557 17.6331Z" fill="#3E4347"/>
<path d="M9.57333 10.9862C8.87957 10.7737 8.09832 10.655 7.26707 10.655C6.43581 10.655 5.64831 10.7737 4.95456 10.9862C4.6858 11.0675 4.46705 10.7737 4.61705 10.5362C5.17331 9.66747 6.15456 9.09247 7.26707 9.09247C8.37332 9.09247 9.35457 9.66747 9.91083 10.5362C10.0608 10.7737 9.84208 11.0675 9.57333 10.9862Z" fill="#3E4347"/>
<path d="M16.8969 10.9862C16.2032 10.7737 15.4219 10.655 14.5907 10.655C13.7594 10.655 12.9719 10.7737 12.2782 10.9862C12.0094 11.0675 11.7907 10.7737 11.9407 10.5362C12.4969 9.66747 13.4782 9.09247 14.5907 9.09247C15.6969 9.09247 16.6782 9.66747 17.2344 10.5362C17.3844 10.7737 17.1657 11.0675 16.8969 10.9862Z" fill="#3E4347"/>
<path d="M17.8121 4.42432C17.8121 5.06807 17.2934 5.58682 16.6496 5.58682C16.0121 5.58682 15.4933 5.06807 15.4933 4.42432C15.4933 3.78056 16.6496 1.7868 16.6496 1.7868C16.6496 1.7868 17.8121 3.78056 17.8121 4.42432Z" fill="#65B1EF"/>
<path d="M20.4811 8.00747C20.4811 8.8406 19.8092 9.51248 18.9761 9.51248C18.1511 9.51248 17.4792 8.8406 17.4792 8.00747C17.4792 7.17372 18.9761 4.59308 18.9761 4.59308C18.9761 4.59308 20.4811 7.17434 20.4811 8.00747Z" fill="#65B1EF"/>
</svg>
