<svg width="22" height="22" viewBox="0 0 22 22" fill="none" xmlns="http://www.w3.org/2000/svg">
<path d="M11 21C16.5228 21 21 16.5228 21 11C21 5.47715 16.5228 1 11 1C5.47715 1 1 5.47715 1 11C1 16.5228 5.47715 21 11 21Z" fill="#FFD93B"/>
<path d="M21 11C21 16.525 16.5219 21 11 21C7.85626 21 5.05001 19.55 3.21564 17.2781C4.93126 18.6656 7.11564 19.4938 9.49376 19.4938C15.0156 19.4938 19.4938 15.0188 19.4938 9.49376C19.4938 7.11564 18.6656 4.93126 17.2781 3.21564C19.5469 5.05001 21 7.85626 21 11Z" fill="#F4C534"/>
<path d="M6.83292 12.8025C8.79698 12.8025 10.3892 11.2103 10.3892 9.24625C10.3892 7.28219 8.79698 5.69 6.83292 5.69C4.86886 5.69 3.27667 7.28219 3.27667 9.24625C3.27667 11.2103 4.86886 12.8025 6.83292 12.8025Z" fill="#F4C534"/>
<path d="M6.8331 12.1381C8.43023 12.1381 9.72497 10.8434 9.72497 9.24624C9.72497 7.64911 8.43023 6.35437 6.8331 6.35437C5.23596 6.35437 3.94122 7.64911 3.94122 9.24624C3.94122 10.8434 5.23596 12.1381 6.8331 12.1381Z" fill="white"/>
<path d="M8.31563 8.12127C8.31688 8.97127 7.65626 9.69127 6.83876 9.72314C6.02126 9.75502 5.35251 9.08627 5.35126 8.23564C5.35001 7.38502 6.01688 6.67127 6.83438 6.64002C7.65188 6.60814 8.31438 7.27064 8.31563 8.12127Z" fill="#3E4347"/>
<path d="M7.26564 7.37811C7.26564 7.52749 7.06627 7.65186 6.82314 7.66124C6.58002 7.67061 6.38002 7.56186 6.37939 7.41186C6.37939 7.26249 6.57877 7.13186 6.82252 7.12186C7.06564 7.11374 7.26564 7.22936 7.26564 7.37811Z" fill="white"/>
<path d="M15.1668 12.8025C17.1309 12.8025 18.7231 11.2103 18.7231 9.24625C18.7231 7.28219 17.1309 5.69 15.1668 5.69C13.2028 5.69 11.6106 7.28219 11.6106 9.24625C11.6106 11.2103 13.2028 12.8025 15.1668 12.8025Z" fill="#F4C534"/>
<path d="M15.1669 12.1381C16.764 12.1381 18.0588 10.8434 18.0588 9.24624C18.0588 7.64911 16.764 6.35437 15.1669 6.35437C13.5698 6.35437 12.275 7.64911 12.275 9.24624C12.275 10.8434 13.5698 12.1381 15.1669 12.1381Z" fill="white"/>
<path d="M15.1682 9.66376C15.9879 9.66376 16.6525 8.99918 16.6525 8.17938C16.6525 7.35958 15.9879 6.69501 15.1682 6.69501C14.3484 6.69501 13.6838 7.35958 13.6838 8.17938C13.6838 8.99918 14.3484 9.66376 15.1682 9.66376Z" fill="#3E4347"/>
<path d="M15.1569 7.6819C15.402 7.6819 15.6006 7.56577 15.6006 7.42252C15.6006 7.27927 15.402 7.16315 15.1569 7.16315C14.9118 7.16315 14.7131 7.27927 14.7131 7.42252C14.7131 7.56577 14.9118 7.6819 15.1569 7.6819Z" fill="white"/>
<path d="M13.675 15.69C13.675 16.2275 13.2375 16.665 12.7 16.665H9.30001C8.76251 16.665 8.32501 16.2275 8.32501 15.69C8.32501 15.1525 8.76251 14.715 9.30001 14.715H12.7C13.2375 14.715 13.675 15.1531 13.675 15.69Z" fill="#3E4347"/>
</svg>
