<svg width="22" height="22" viewBox="0 0 22 22" fill="none" xmlns="http://www.w3.org/2000/svg">
<path d="M11 21C16.5228 21 21 16.5228 21 11C21 5.47715 16.5228 1 11 1C5.47715 1 1 5.47715 1 11C1 16.5228 5.47715 21 11 21Z" fill="#FFD93B"/>
<path d="M21 11C21 16.525 16.5219 21 11 21C7.85626 21 5.05001 19.55 3.21564 17.2781C4.93126 18.6656 7.11564 19.4938 9.49376 19.4938C15.0156 19.4938 19.4938 15.0188 19.4938 9.49376C19.4938 7.11564 18.6656 4.93126 17.2781 3.21564C19.5469 5.05001 21 7.85626 21 11Z" fill="#F4C534"/>
<path d="M17.8481 10.1694C18.2956 11.1325 13.1044 12.1294 12.6294 11.0187C12.5012 10.6625 12.9256 10.0756 14.4356 9.42935C15.5037 8.94685 16.3306 8.59873 16.5219 8.85435C16.6775 9.06248 16.2831 9.67685 15.4406 10.1981C16.6962 10.0206 17.7175 9.87623 17.8481 10.1694Z" fill="#3E4347"/>
<path d="M10.3837 10.3256C10.3837 12.0581 8.98625 13.455 7.25437 13.455C5.52937 13.455 4.125 12.0581 4.125 10.3256C4.125 8.6006 5.52937 7.19623 7.25437 7.19623C8.98625 7.19623 10.3837 8.6006 10.3837 10.3256Z" fill="#F4C534"/>
<path d="M9.95313 10.3256C9.86626 11.7137 8.58938 12.8356 7.09688 12.8356C5.60438 12.8356 4.46876 11.7137 4.55563 10.3256C4.64251 8.93749 5.91938 7.81561 7.41188 7.81561C8.90438 7.81561 10.04 8.93749 9.95313 10.3256Z" fill="white"/>
<path d="M9.07252 10.24C9.07252 11.0737 8.39564 11.7581 7.55439 11.7656C6.72002 11.7656 6.03564 11.0812 6.03564 10.2475C6.03564 9.39874 6.72002 8.72186 7.56127 8.72186C8.39564 8.72186 9.07252 9.40624 9.07252 10.24Z" fill="#3E4347"/>
<path d="M8.43125 9.9475C8.30312 10.0763 8.0675 10.0544 7.90375 9.89063C7.74687 9.72688 7.71812 9.49125 7.84687 9.36313C7.9825 9.235 8.2175 9.25625 8.38187 9.42C8.53812 9.58438 8.56625 9.81938 8.43125 9.9475Z" fill="#5A5F63"/>
<path d="M15.705 13.2537C15.3763 12.9974 14.1206 15.8556 11.5913 16.5749C10.3131 17.0262 9.07502 16.7962 8.14752 16.5212C7.46127 16.2568 7.33252 16.8581 8.03315 17.4549C9.03502 18.1087 10.4344 18.9268 12.03 18.4099C15.205 17.4143 16.1031 13.3831 15.705 13.2537Z" fill="#3E4347"/>
<path d="M12.0656 6.74435C12.8875 6.27873 14.6019 5.51186 16.4044 5.93748C16.595 5.98248 16.74 5.72748 16.5794 5.61561C14.6737 4.29123 13.0631 4.47623 11.8069 6.49123C11.7094 6.64811 11.905 6.83498 12.0656 6.74435Z" fill="#3E4347"/>
<path d="M9.93438 6.74435C9.1125 6.27873 7.39813 5.51186 5.59563 5.93748C5.405 5.98248 5.26 5.72748 5.42063 5.61561C7.32625 4.29123 8.93688 4.47623 10.1931 6.49123C10.2906 6.64811 10.095 6.83498 9.93438 6.74435Z" fill="#3E4347"/>
</svg>
