<svg xmlns="http://www.w3.org/2000/svg" viewBox="0 0 14.01 11"><path id="path0_fill" data-name="path0 fill" d="M3.91,5.5A3.18,3.18,0,0,1,7,2.27,3.18,3.18,0,0,1,10.15,5.5,3.18,3.18,0,0,1,7,8.73,3.18,3.18,0,0,1,3.91,5.5Zm5.14,0A2.07,2.07,0,0,0,7,3.4,2.06,2.06,0,0,0,5,5.5,2.06,2.06,0,0,0,7,7.6,2.07,2.07,0,0,0,9.06,5.5ZM6,5.5A1.07,1.07,0,1,1,7,6.61,1.09,1.09,0,0,1,6,5.5Zm7.69,1.24a.54.54,0,0,1-.76.17.58.58,0,0,1-.16-.78,1.17,1.17,0,0,0,0-1.24C11.86,3.49,9.67,1.13,7,1.13S2.16,3.49,1.27,4.88a1.17,1.17,0,0,0,0,1.25C2.16,7.51,4.36,9.87,7,9.87a6.43,6.43,0,0,0,4.31-2,.53.53,0,0,1,.77,0,.58.58,0,0,1,0,.8A7.48,7.48,0,0,1,7,11a6.85,6.85,0,0,1-4.2-1.57A10.9,10.9,0,0,1,.36,6.74a2.33,2.33,0,0,1,0-2.49A10.9,10.9,0,0,1,2.82,1.58,6.85,6.85,0,0,1,7,0a6.81,6.81,0,0,1,4.19,1.58,10.82,10.82,0,0,1,2.44,2.68A2.34,2.34,0,0,1,13.65,6.74Z" transform="translate(0)"/></svg>