<svg width="30" height="30" viewBox="0 0 30 30" xmlns="http://www.w3.org/2000/svg">
<path d="M10.5543 17.9109C9.49298 17.9109 8.6322 18.7866 8.6322 19.863C8.6322 20.9426 9.49298 21.8182 10.5543 21.8182C11.6125 21.8182 12.4733 20.9426 12.4733 19.863C12.4733 18.7866 11.6125 17.9109 10.5543 17.9109ZM10.5543 20.8422C10.0236 20.8422 9.59173 20.4028 9.59173 19.863C9.59173 19.3263 10.0236 18.8869 10.5543 18.8869C11.0818 18.8869 11.5138 19.3263 11.5138 19.863C11.5138 20.4028 11.0819 20.8422 10.5543 20.8422ZM8.89975 17.9118H4.59815C4.42777 17.9118 4.28966 18.0522 4.28966 18.2256V19.1778C4.28966 19.3511 4.42777 19.4916 4.59815 19.4916H8.04606C8.13612 18.8633 8.44785 18.3082 8.89975 17.9118ZM20.5965 17.9109C19.5382 17.9109 18.6775 18.7866 18.6775 19.863C18.6775 20.9426 19.5383 21.8182 20.5965 21.8182C21.6578 21.8182 22.5154 20.9426 22.5154 19.863C22.5154 18.7866 21.6578 17.9109 20.5965 17.9109ZM20.5965 20.8422C20.0658 20.8422 19.637 20.4028 19.637 19.863C19.637 19.3263 20.0658 18.8869 20.5965 18.8869C21.1271 18.8869 21.5559 19.3263 21.5559 19.863C21.556 20.4028 21.1271 20.8422 20.5965 20.8422ZM25.6006 17.9109H24.8509V13.6458C24.8509 13.1468 24.7028 12.6572 24.4282 12.2429L22.5494 9.41213C22.0928 8.72167 21.3246 8.3074 20.504 8.3074H17.5916C17.2522 8.3074 16.9745 8.58672 16.9745 8.93509V17.9109H12.208C12.6584 18.3095 12.97 18.8619 13.0595 19.4927H18.0913C18.2672 18.2467 19.3223 17.2832 20.5965 17.2832C21.8706 17.2832 22.9258 18.2467 23.1047 19.4927H25.6006C25.7734 19.4927 25.9091 19.3514 25.9091 19.1788V18.2248C25.9091 18.0521 25.7733 17.9109 25.6006 17.9109ZM22.5277 12.8079H18.6837C18.514 12.8079 18.3752 12.6698 18.3752 12.494V10.3254C18.3752 10.1528 18.514 10.0116 18.6837 10.0116H21.0253C21.1271 10.0116 21.2228 10.0618 21.2783 10.1434L22.7808 12.3151C22.9257 12.5223 22.7777 12.8079 22.5277 12.8079ZM15.506 17.2832H4.70792C4.36717 17.2832 4.09091 17.0022 4.09091 16.6556V13.831C4.09091 13.4843 4.36717 13.2033 4.70792 13.2033H15.506C15.8467 13.2033 16.123 13.4843 16.123 13.831V16.6556C16.123 17.0022 15.8467 17.2832 15.506 17.2832ZM9.02717 12.2618H4.70792C4.36717 12.2618 4.09091 11.9807 4.09091 11.6341V8.80958C4.09091 8.46291 4.36717 8.18188 4.70792 8.18188H9.02713C9.36792 8.18188 9.64417 8.46291 9.64417 8.80958V11.6341C9.64421 11.9807 9.36795 12.2618 9.02717 12.2618ZM15.506 12.2618H11.1868C10.846 12.2618 10.5697 11.9808 10.5697 11.6342V8.80958C10.5697 8.46291 10.846 8.18192 11.1868 8.18192H15.506C15.8468 8.18192 16.123 8.46295 16.123 8.80958V11.6342C16.123 11.9807 15.8467 12.2618 15.506 12.2618Z" />
</svg>
