<svg viewBox="0 0 25 25" xmlns="http://www.w3.org/2000/svg">
<path d="M10.2273 12.499C10.2273 13.6996 11.2006 14.6739 12.4012 14.6739C13.6018 14.6739 14.5751 13.6996 14.5751 12.499C14.5751 11.2984 13.6018 10.3261 12.4012 10.3261C11.2006 10.3261 10.2273 11.2984 10.2273 12.499ZM10.2273 19.416C10.2273 20.6166 11.2006 21.5909 12.4012 21.5909C13.6018 21.5909 14.5751 20.6166 14.5751 19.416C14.5751 18.2154 13.6008 17.2431 12.4012 17.2431C11.2016 17.2431 10.2273 18.2154 10.2273 19.416ZM10.2273 5.58202C10.2273 6.78261 11.2006 7.75692 12.4012 7.75692C13.6018 7.75692 14.5751 6.78261 14.5751 5.58202C14.5751 4.38143 13.6018 3.40909 12.4012 3.40909C11.2006 3.40909 10.2273 4.38143 10.2273 5.58202Z" />
</svg>
