<svg viewBox="0 0 22 22" xmlns="http://www.w3.org/2000/svg">
<path fill-rule="evenodd" clip-rule="evenodd" d="M7.44444 10.1111C7.44444 9.74292 7.74292 9.44444 8.11111 9.44444H14.3333C14.7015 9.44444 15 9.74292 15 10.1111C15 10.4793 14.7015 10.7778 14.3333 10.7778H8.11111C7.74292 10.7778 7.44444 10.4793 7.44444 10.1111ZM7.44444 12.7778C7.44444 12.4096 7.74292 12.1111 8.11111 12.1111H14.3333C14.7015 12.1111 15 12.4096 15 12.7778C15 13.146 14.7015 13.4444 14.3333 13.4444H8.11111C7.74292 13.4444 7.44444 13.146 7.44444 12.7778ZM7.44444 15.4444C7.44444 15.0763 7.74292 14.7778 8.11111 14.7778H11.2222C11.5904 14.7778 11.8889 15.0763 11.8889 15.4444C11.8889 15.8126 11.5904 16.1111 11.2222 16.1111H8.11111C7.74292 16.1111 7.44444 15.8126 7.44444 15.4444ZM11.4444 4.33333H6.33333V17.6667H16.1111V9C16.1111 9 12.9757 9 12.4578 9C11.9399 9 11.4444 8.47204 11.4444 8.00978C11.4444 7.54752 11.4444 4.33333 11.4444 4.33333ZM17.4444 8.33333V18.1111C17.4444 18.602 17.0465 19 16.5556 19H5.88889C5.39797 19 5 18.602 5 18.1111V3.88889C5 3.39797 5.39797 3 5.88889 3H12.1111L17.4444 8.33333Z"/>
</svg>
