<svg viewBox="0 0 22 22" xmlns="http://www.w3.org/2000/svg">
<path fill-rule="evenodd" clip-rule="evenodd" d="M18.8303 5.11802C18.7171 5.03943 18.583 5 18.4284 5H3.57147C3.41661 5 3.28273 5.03943 3.16959 5.11802C3.05657 5.19672 3 5.28995 3 5.39762V6.19282C3 6.30048 3.05657 6.39363 3.16962 6.47236C3.28286 6.55104 3.4168 6.59037 3.5715 6.59037H18.4284C18.583 6.59037 18.7171 6.55102 18.8303 6.47236C18.9433 6.39365 19 6.3005 19 6.19282V5.39762C18.9999 5.28995 18.9433 5.19678 18.8303 5.11802ZM3.57147 11.9399H18.4284C18.583 11.9399 18.7171 11.9792 18.8303 12.058C18.9433 12.1366 19 12.2299 19 12.3375V13.1326C19 13.2403 18.9433 13.3335 18.8303 13.4121C18.7171 13.4908 18.583 13.5303 18.4284 13.5303H3.5715C3.4168 13.5303 3.28286 13.4908 3.16962 13.4121C3.05657 13.3335 3 13.2402 3 13.1326V12.3375C3 12.2299 3.05657 12.1366 3.16959 12.058C3.28273 11.9793 3.41661 11.9399 3.57147 11.9399ZM3.57147 15.4096H18.4284C18.583 15.4096 18.7171 15.449 18.8303 15.5277C18.9433 15.6064 19 15.6996 19 15.8072V16.6024C19 16.71 18.9433 16.8033 18.8303 16.8821C18.7171 16.9607 18.583 17 18.4284 17H3.5715C3.4168 17 3.28286 16.9607 3.16962 16.8821C3.05657 16.8032 3 16.71 3 16.6024V15.8072C3 15.6996 3.05657 15.6064 3.16959 15.5277C3.28273 15.449 3.41661 15.4096 3.57147 15.4096ZM3.57147 8.47001H18.4284C18.583 8.47001 18.7171 8.50933 18.8303 8.58803C18.9433 8.66671 19 8.75981 19 8.86756V9.66277C19 9.77041 18.9433 9.86367 18.8303 9.94225C18.7171 10.021 18.583 10.0604 18.4284 10.0604H3.5715C3.4168 10.0604 3.28286 10.021 3.16962 9.94225C3.05657 9.86367 3 9.77041 3 9.66277V8.86756C3 8.75988 3.05657 8.66669 3.16959 8.58803C3.28273 8.50933 3.41661 8.47001 3.57147 8.47001Z"/>
</svg>
