<svg viewBox="0 0 22 22" xmlns="http://www.w3.org/2000/svg">
<path d="M16.0286 9.71429H9.4C8.76914 9.71429 8.71429 10.2251 8.71429 10.8571C8.71429 11.4891 8.76914 12 9.4 12H16.0286C16.6594 12 16.7143 11.4891 16.7143 10.8571C16.7143 10.2251 16.6594 9.71429 16.0286 9.71429ZM18.3143 15.4286H9.4C8.76914 15.4286 8.71429 15.9394 8.71429 16.5714C8.71429 17.2034 8.76914 17.7143 9.4 17.7143H18.3143C18.9451 17.7143 19 17.2034 19 16.5714C19 15.9394 18.9451 15.4286 18.3143 15.4286ZM9.4 6.28571H18.3143C18.9451 6.28571 19 5.77486 19 5.14286C19 4.51086 18.9451 4 18.3143 4H9.4C8.76914 4 8.71429 4.51086 8.71429 5.14286C8.71429 5.77486 8.76914 6.28571 9.4 6.28571ZM5.74286 9.71429H3.68571C3.05486 9.71429 3 10.2251 3 10.8571C3 11.4891 3.05486 12 3.68571 12H5.74286C6.37371 12 6.42857 11.4891 6.42857 10.8571C6.42857 10.2251 6.37371 9.71429 5.74286 9.71429ZM5.74286 15.4286H3.68571C3.05486 15.4286 3 15.9394 3 16.5714C3 17.2034 3.05486 17.7143 3.68571 17.7143H5.74286C6.37371 17.7143 6.42857 17.2034 6.42857 16.5714C6.42857 15.9394 6.37371 15.4286 5.74286 15.4286ZM5.74286 4H3.68571C3.05486 4 3 4.51086 3 5.14286C3 5.77486 3.05486 6.28571 3.68571 6.28571H5.74286C6.37371 6.28571 6.42857 5.77486 6.42857 5.14286C6.42857 4.51086 6.37371 4 5.74286 4Z" />
</svg>
