<svg viewBox="0 0 22 22" xmlns="http://www.w3.org/2000/svg">
<path d="M17.4 6H4.6C3.7192 6 3 6.70714 3 7.57143V15.4286C3 16.2929 3.7192 17 4.6 17H17.4C18.28 17 19 16.2929 19 15.4286V7.57143C19 6.70714 18.28 6 17.4 6ZM17.4 15.4286H4.6V10.7143H17.4V15.4286ZM17.4 8.35714H4.6V7.57143H17.4V8.35714ZM6.2 12.3643V12.8357H6.68V12.3643H6.2ZM9.08 13.3064V13.7786H10.04V13.3064H10.52V12.8349H11V12.3635H10.04V12.8349H9.5592V13.3064H9.08ZM11 13.7786V13.3064H10.5192V13.7786H11ZM8.6 13.7786V13.3064H7.64V13.7786H8.6ZM9.08 12.8349H9.56V12.3635H8.6V13.3056H9.08V12.8349ZM7.1592 13.3064H7.64V12.8349H8.12V12.3635H7.16V12.8349H6.68V13.3064H6.2V13.7786H7.1592V13.3064Z" />
</svg>
