<svg viewBox="0 0 22 22" xmlns="http://www.w3.org/2000/svg">
<path fill-rule="evenodd" clip-rule="evenodd" d="M17.2222 5C16.2409 5 15.4444 5.79556 15.4444 6.77778C15.4444 7.76 16.2409 8.55556 17.2222 8.55556C18.2036 8.55556 19 7.76 19 6.77778C19 5.79556 18.2036 5 17.2222 5ZM13.2222 5.88889H3.44444C3.19911 5.88889 3 6.088 3 6.33333V7.22222C3 7.46756 3.19911 7.66667 3.44444 7.66667H13.2222C13.4676 7.66667 13.6667 7.46756 13.6667 7.22222V6.33333C13.6667 6.088 13.4676 5.88889 13.2222 5.88889ZM13.2222 10.3333H3.44444C3.19911 10.3333 3 10.5324 3 10.7778V11.6667C3 11.912 3.19911 12.1111 3.44444 12.1111H13.2222C13.4676 12.1111 13.6667 11.912 13.6667 11.6667V10.7778C13.6667 10.5324 13.4676 10.3333 13.2222 10.3333ZM13.2222 14.7778H3.44444C3.19911 14.7778 3 14.9769 3 15.2222V16.1111C3 16.3564 3.19911 16.5556 3.44444 16.5556H13.2222C13.4676 16.5556 13.6667 16.3564 13.6667 16.1111V15.2222C13.6667 14.9769 13.4676 14.7778 13.2222 14.7778Z"/>
</svg>
