<svg viewBox="0 0 22 22" xmlns="http://www.w3.org/2000/svg">
<path d="M16.0002 17.65H5.00024C4.36512 17.65 3.85024 17.1351 3.85024 16.5V15.8216C3.85024 15.4551 4.02489 15.1106 4.32047 14.894L7.40562 12.633C7.9211 12.2553 8.57794 12.1264 9.19795 12.2814L9.56631 12.3735C10.1794 12.5268 10.8208 12.5268 11.4338 12.3735L11.8022 12.2814C12.4222 12.1264 13.079 12.2552 13.5945 12.633L16.68 14.894C16.9756 15.1106 17.1502 15.4551 17.1502 15.8216V16.5C17.1502 17.1351 16.6354 17.65 16.0002 17.65ZM7.35024 6.99987C7.35024 5.27216 8.77771 3.86294 10.5181 3.87281C12.2446 3.88261 13.6502 5.28618 13.6502 7.00013C13.6502 8.72784 12.2228 10.1371 10.4824 10.1272C8.75592 10.1174 7.35024 8.71382 7.35024 6.99987Z" stroke-width="1.7"/>
</svg>
