<svg viewBox="0 0 22 22" xmlns="http://www.w3.org/2000/svg">
<path d="M16.484 18.15H5.00017C4.36505 18.15 3.85017 17.6351 3.85017 17V16.2025C3.85017 15.836 4.02482 15.4915 4.3204 15.2749L7.56807 12.8948C8.08356 12.517 8.7404 12.3882 9.36041 12.5432L9.80817 12.6551C10.4212 12.8084 11.0626 12.8084 11.6757 12.6551L12.1235 12.5432C12.7435 12.3882 13.4003 12.517 13.9158 12.8948L17.1638 15.2749C17.4594 15.4915 17.634 15.836 17.634 16.2025V17C17.634 17.6351 17.1192 18.15 16.484 18.15ZM7.46308 7.1289C7.46308 5.33004 8.94917 3.86327 10.7607 3.87355C12.5577 3.88375 14.0211 5.34464 14.0211 7.12917C14.0211 8.92802 12.5351 10.3948 10.7235 10.3845C8.92648 10.3743 7.46308 8.91342 7.46308 7.1289Z" />
</svg>
