<svg viewBox="0 0 22 22" xmlns="http://www.w3.org/2000/svg">
<path fill-rule="evenodd" clip-rule="evenodd" d="M4.77822 16.3367H16.3367V11.8911L18.1149 10.1129V16.3367C18.1149 17.3147 17.3147 18.1149 16.3367 18.1149H4.77822C3.8002 18.1149 3 17.3147 3 16.3367V4.77822C3 3.8002 3.8002 3 4.77822 3H11.002L9.22379 4.77822H4.77822V16.3367ZM18.717 5.73187C19.081 5.37526 19.0958 4.78186 18.75 4.40648C18.4042 4.0311 17.8288 4.01589 17.4648 4.3725L10.8345 10.8681L8.55192 8.51427C8.19689 8.14816 7.62129 8.14816 7.26627 8.51427C6.91124 8.88039 6.91124 9.47398 7.26627 9.8401L10.1754 12.8401C10.524 13.1996 11.0869 13.207 11.4443 12.8569L18.717 5.73187Z" />
</svg>
