<svg viewBox="0 0 18 18" xmlns="http://www.w3.org/2000/svg">
<path fill-rule="evenodd" clip-rule="evenodd" d="M14.2184 9.48564C13.7071 8.88901 12.9487 8.47436 11.9429 8.24137C12.6478 7.91749 13.0739 7.69877 13.2216 7.58519C13.5795 7.31811 13.8494 7.01975 14.0309 6.69026C14.2128 6.36064 14.3036 5.99703 14.3036 5.59936C14.3036 5.23008 14.2441 4.88351 14.1246 4.55963C14.0053 4.23568 13.8207 3.94025 13.5707 3.67323C13.315 3.40628 13.0253 3.19025 12.7014 3.02547C12.4002 2.8778 12.1275 2.76702 11.8832 2.69317C11.298 2.53974 10.7554 2.46302 10.2554 2.46302H9.62473C9.51113 2.46302 9.3959 2.46159 9.27945 2.45872L9.18214 2.45646L9.09635 2.45454C9.06802 2.45454 9.02817 2.45604 8.97689 2.45875C8.92575 2.46162 8.88587 2.46305 8.85751 2.46305L8.47393 2.47162L5.23544 2.5824L3.01961 2.63356L3.0537 3.34088C3.5309 3.40344 3.8549 3.44049 4.02529 3.45177C4.31505 3.46882 4.51107 3.51153 4.61338 3.57962C4.67594 3.62514 4.71003 3.6592 4.71571 3.68193C4.77248 3.80691 4.80365 4.11654 4.80944 4.61091C4.83213 5.45184 4.85777 6.59954 4.8861 8.05403L4.90314 12.2897C4.90314 13.0169 4.87762 13.5682 4.82648 13.9431C4.80377 14.0795 4.74404 14.2244 4.64747 14.3779C4.38609 14.4856 4.03669 14.5739 3.59919 14.642C3.4686 14.659 3.27537 14.693 3.01973 14.7444L3.00269 15.5455C4.36057 15.4999 5.13326 15.4688 5.32099 15.4516C6.53678 15.3777 7.38348 15.3466 7.8607 15.3578L9.53958 15.3919C10.1989 15.4145 10.7613 15.3832 11.2272 15.2981C11.9657 15.1618 12.5423 14.9912 12.9573 14.7866C13.3776 14.5821 13.7753 14.2752 14.1502 13.8662C14.4346 13.5538 14.636 13.2214 14.7554 12.869C14.9201 12.3862 15.0025 11.9289 15.0025 11.497C15.0026 10.7585 14.7413 10.0879 14.2184 9.48564ZM7.54536 3.44338C7.98852 3.36953 8.35784 3.33261 8.65327 3.33261C9.6248 3.33261 10.3494 3.54572 10.8266 3.9718C11.3092 4.39784 11.5508 4.92915 11.5508 5.56545C11.5508 6.46892 11.2981 7.10524 10.7924 7.47453C10.2868 7.84379 9.53676 8.0285 8.5425 8.0285C8.16751 8.0285 7.85786 8.00866 7.6136 7.96889C7.60784 7.77567 7.605 7.55695 7.605 7.31259L7.6136 6.47739C7.61921 5.58545 7.60217 4.79288 7.56244 4.09959C7.55102 3.91213 7.54536 3.69353 7.54536 3.44338ZM10.767 14.2499C11.2498 14.0169 11.5965 13.6958 11.8067 13.2868C12.0224 12.8891 12.1304 12.375 12.1306 11.7445C12.1306 11.0967 12.0141 10.5854 11.7812 10.2103C11.4516 9.67621 11.051 9.3183 10.5795 9.13633C10.1249 8.95457 9.42327 8.86364 8.4744 8.86364C8.05399 8.86364 7.76703 8.892 7.6136 8.94881V10.1761L7.605 11.6505L7.6305 13.9516C7.63062 14.0368 7.66473 14.1621 7.73291 14.3267C8.1647 14.5085 8.56244 14.5993 8.92608 14.5993C9.67029 14.5993 10.284 14.4829 10.767 14.2499Z"/>
</svg>
