<svg viewBox="0 0 22 22" xmlns="http://www.w3.org/2000/svg">
<path fill-rule="evenodd" clip-rule="evenodd" d="M14.1571 6.59037H7.55718C7.45789 6.59037 7.37196 6.55102 7.29932 6.47236C7.22678 6.39363 7.19048 6.30048 7.19048 6.19282V5.39762C7.19048 5.28995 7.22678 5.19672 7.29931 5.11802C7.37191 5.03943 7.45782 5 7.55718 5H14.1571C14.2564 5 14.3424 5.03943 14.415 5.11802C14.4875 5.19681 14.5238 5.28995 14.5238 5.39762V6.19282C14.5238 6.3005 14.4875 6.39365 14.415 6.47236C14.3424 6.55102 14.2564 6.59037 14.1571 6.59037ZM17.143 10.0604H4.57147C4.42964 10.0604 4.30689 10.021 4.20311 9.94225C4.09948 9.86367 4.04762 9.77041 4.04762 9.66277V8.86756C4.04762 8.75988 4.09948 8.66669 4.20308 8.58803C4.30679 8.50933 4.42952 8.47001 4.57147 8.47001H17.143C17.2849 8.47001 17.4076 8.50933 17.5113 8.58803C17.6149 8.66671 17.6667 8.75981 17.6667 8.86756V9.66277C17.6667 9.77041 17.6149 9.86367 17.5113 9.94225C17.4076 10.021 17.2848 10.0604 17.143 10.0604ZM18.8303 15.5277C18.7171 15.449 18.583 15.4096 18.4284 15.4096H3.57147C3.41661 15.4096 3.28273 15.449 3.16959 15.5277C3.05657 15.6064 3 15.6996 3 15.8072V16.6024C3 16.71 3.05657 16.8032 3.16962 16.8821C3.28286 16.9607 3.4168 17 3.5715 17H18.4284C18.583 17 18.7171 16.9607 18.8303 16.8821C18.9433 16.8033 19 16.71 19 16.6024V15.8072C18.9999 15.6996 18.9433 15.6064 18.8303 15.5277ZM15.1429 13.5301H6.57147C6.45541 13.5301 6.35498 13.4908 6.27008 13.4121C6.18529 13.3335 6.14286 13.2402 6.14286 13.1326V12.3374C6.14286 12.2298 6.18529 12.1365 6.27005 12.0579C6.35491 11.9792 6.45533 11.9398 6.57147 11.9398H15.1429C15.2589 11.9398 15.3594 11.9792 15.4442 12.0579C15.529 12.1365 15.5715 12.2298 15.5715 12.3374V13.1325C15.5715 13.2402 15.529 13.3334 15.4442 13.412C15.3594 13.4907 15.2588 13.5301 15.1429 13.5301Z"/>
</svg>
