<svg viewBox="0 0 25 25" fill="none" xmlns="http://www.w3.org/2000/svg">
<path d="M12.501 10.2273C11.3004 10.2273 10.3261 11.2006 10.3261 12.4012C10.3261 13.6018 11.3004 14.5751 12.501 14.5751C13.7016 14.5751 14.6739 13.6018 14.6739 12.4012C14.6739 11.2006 13.7016 10.2273 12.501 10.2273ZM5.58402 10.2273C4.38343 10.2273 3.40912 11.2006 3.40912 12.4012C3.40912 13.6018 4.38343 14.5751 5.58402 14.5751C6.78461 14.5751 7.75694 13.6008 7.75694 12.4012C7.75694 11.2016 6.78461 10.2273 5.58402 10.2273ZM19.418 10.2273C18.2174 10.2273 17.2431 11.2006 17.2431 12.4012C17.2431 13.6018 18.2174 14.5751 19.418 14.5751C20.6186 14.5751 21.5909 13.6018 21.5909 12.4012C21.5909 11.2006 20.6186 10.2273 19.418 10.2273Z"/>
</svg>
