<svg viewBox="0 0 22 22" xmlns="http://www.w3.org/2000/svg">
<path d="M18.2696 3.73061C17.2898 2.75081 16.4185 3.03977 16.4185 3.03977L8.73744 10.7146L7.44556 14.5547L11.2839 13.2619L18.9605 5.58175C18.9605 5.58175 19.2485 4.71042 18.2696 3.73061ZM11.5399 12.4252L11.1212 12.8431L9.81149 13.2877C9.71902 13.0743 9.60344 12.8636 9.36871 12.6297C9.13399 12.395 8.92416 12.2794 8.71077 12.187L9.15532 10.8773L9.5741 10.4594C9.5741 10.4594 10.264 10.3803 10.9407 11.0578C11.6182 11.7344 11.5399 12.4252 11.5399 12.4252ZM16.3367 17.222H4.77822V5.66354H9.22379L11.002 3.88532H4.77822C3.8002 3.88532 3 4.68552 3 5.66354V17.222C3 18.2 3.8002 19.0002 4.77822 19.0002H16.3367C17.3147 19.0002 18.1149 18.2 18.1149 17.222V10.9982L16.3367 12.7764V17.222Z"/>
</svg>
