<svg viewBox="0 0 22 22" xmlns="http://www.w3.org/2000/svg">
<path fill-rule="evenodd" clip-rule="evenodd" d="M4.25 3C4.25 2.58579 4.58579 2.25 5 2.25H17C17.4142 2.25 17.75 2.58579 17.75 3V19C17.75 19.3019 17.569 19.5744 17.2907 19.6914C17.0123 19.8084 16.691 19.7471 16.4753 19.5359L14.8586 17.9529L13.4652 19.5016C13.323 19.6597 13.1203 19.75 12.9077 19.75C12.695 19.75 12.4924 19.6597 12.3501 19.5016L10.9911 17.991L9.63198 19.5016C9.48975 19.6597 9.28709 19.75 9.07443 19.75C8.86177 19.75 8.65911 19.6597 8.51687 19.5016L7.12567 17.9553L5.52692 19.5337C5.31167 19.7462 4.98984 19.8086 4.71077 19.692C4.43169 19.5753 4.25 19.3025 4.25 19V3ZM5.75 3.75V17.2056L6.63088 16.336C6.77672 16.192 6.97513 16.114 7.17998 16.12C7.38483 16.1261 7.57828 16.2157 7.71535 16.3681L9.07443 17.8787L10.4335 16.3681C10.5757 16.21 10.7784 16.1197 10.9911 16.1197C11.2037 16.1197 11.4064 16.21 11.5486 16.3681L12.9077 17.8787L14.2668 16.3681C14.4035 16.2161 14.5963 16.1266 14.8006 16.1201C15.0049 16.1136 15.203 16.1908 15.349 16.3338L16.25 17.216V3.75H5.75ZM7.10455 5.46254C7.10455 5.04833 7.44034 4.71254 7.85455 4.71254H12.0363C12.4505 4.71254 12.7863 5.04833 12.7863 5.46254C12.7863 5.87676 12.4505 6.21254 12.0363 6.21254H7.85455C7.44034 6.21254 7.10455 5.87676 7.10455 5.46254ZM13.3772 5.46254C13.3772 5.04833 13.713 4.71254 14.1272 4.71254H14.1599C14.5741 4.71254 14.9099 5.04833 14.9099 5.46254C14.9099 5.87676 14.5741 6.21254 14.1599 6.21254H14.1272C13.713 6.21254 13.3772 5.87676 13.3772 5.46254ZM7.10455 8.22425C7.10455 7.81004 7.44034 7.47425 7.85455 7.47425H10.4682C10.8824 7.47425 11.2182 7.81004 11.2182 8.22425C11.2182 8.63846 10.8824 8.97425 10.4682 8.97425H7.85455C7.44034 8.97425 7.10455 8.63846 7.10455 8.22425ZM7.10455 11.5383C7.10455 11.1241 7.44034 10.7883 7.85455 10.7883H12.0363C12.4505 10.7883 12.7863 11.1241 12.7863 11.5383C12.7863 11.9525 12.4505 12.2883 12.0363 12.2883H7.85455C7.44034 12.2883 7.10455 11.9525 7.10455 11.5383ZM13.3772 11.5383C13.3772 11.1241 13.713 10.7883 14.1272 10.7883H14.1599C14.5741 10.7883 14.9099 11.1241 14.9099 11.5383C14.9099 11.9525 14.5741 12.2883 14.1599 12.2883H14.1272C13.713 12.2883 13.3772 11.9525 13.3772 11.5383ZM7.10455 14.3C7.10455 13.8858 7.44034 13.55 7.85455 13.55H10.4682C10.8824 13.55 11.2182 13.8858 11.2182 14.3C11.2182 14.7142 10.8824 15.05 10.4682 15.05H7.85455C7.44034 15.05 7.10455 14.7142 7.10455 14.3Z"/>
</svg>
