<svg viewBox="0 0 22 22" xmlns="http://www.w3.org/2000/svg">
<path d="M18.4658 8.33345H14.0151L12.4044 9.94411C12.0018 10.3468 11.4658 10.5681 10.8969 10.5681C10.3262 10.5681 9.79111 10.3459 9.38756 9.94322C8.98578 9.54144 8.76356 9.00633 8.76267 8.43656C8.76267 8.40189 8.77156 8.36811 8.77244 8.33345H3.53333C3.23822 8.33345 3 8.57167 3 8.86678V11.0001H19V8.86678C19 8.57167 18.76 8.33345 18.4658 8.33345ZM11.6827 9.22145L16.176 4.72811C16.3849 4.52011 16.3867 4.18322 16.1778 3.97344L15.36 3.15567C15.152 2.94767 14.8142 2.94856 14.6044 3.15567L10.1111 7.64989C9.67733 8.08367 9.67733 8.78767 10.1111 9.22145C10.5449 9.65433 11.248 9.65522 11.6827 9.22145ZM5.50933 17.4632C5.59556 17.8197 5.96711 18.1112 6.33333 18.1112H15.6667C16.0329 18.1112 16.4044 17.8197 16.4907 17.4632L17.8444 11.889H4.15556L5.50933 17.4632Z"/>
</svg>
