<svg viewBox="0 0 22 22" xmlns="http://www.w3.org/2000/svg">
<path fill-rule="evenodd" clip-rule="evenodd" d="M13.9474 6.59037H3.57624C3.42021 6.59037 3.28519 6.55102 3.17104 6.47236C3.05704 6.39363 3 6.30048 3 6.19282V5.39762C3 5.28995 3.05704 5.19672 3.17101 5.11802C3.28509 5.03943 3.42009 5 3.57624 5H13.9474C14.1035 5 14.2388 5.03943 14.3528 5.11802C14.4667 5.19681 14.5238 5.28995 14.5238 5.39762V6.19282C14.5238 6.3005 14.4667 6.39365 14.3528 6.47236C14.2387 6.55102 14.1035 6.59037 13.9474 6.59037ZM17.2858 10.0604H3.57147C3.41674 10.0604 3.28283 10.021 3.16962 9.94225C3.05657 9.86367 3 9.77041 3 9.66277V8.86756C3 8.75988 3.05657 8.66669 3.16959 8.58803C3.28273 8.50933 3.41661 8.47001 3.57147 8.47001H17.2858C17.4405 8.47001 17.5744 8.50933 17.6875 8.58803C17.8005 8.66671 17.857 8.75981 17.857 8.86756V9.66277C17.857 9.77041 17.8005 9.86367 17.6875 9.94225C17.5744 10.021 17.4405 10.0604 17.2858 10.0604ZM18.8303 15.5277C18.7171 15.449 18.583 15.4096 18.4284 15.4096H3.57147C3.41661 15.4096 3.28273 15.449 3.16959 15.5277C3.05657 15.6064 3 15.6996 3 15.8072V16.6024C3 16.71 3.05657 16.8032 3.16962 16.8821C3.28286 16.9607 3.4168 17 3.5715 17H18.4284C18.583 17 18.7171 16.9607 18.8303 16.8821C18.9433 16.8033 19 16.71 19 16.6024V15.8072C18.9999 15.6996 18.9433 15.6064 18.8303 15.5277ZM15 13.5301H3.57147C3.41674 13.5301 3.28283 13.4908 3.16962 13.4121C3.05657 13.3335 3 13.2402 3 13.1326V12.3374C3 12.2298 3.05657 12.1365 3.16959 12.0579C3.28273 11.9792 3.41661 11.9398 3.57147 11.9398H15C15.1547 11.9398 15.2887 11.9792 15.4017 12.0579C15.5148 12.1365 15.5715 12.2298 15.5715 12.3374V13.1325C15.5715 13.2402 15.5148 13.3334 15.4017 13.412C15.2887 13.4907 15.1547 13.5301 15 13.5301Z"/>
</svg>
