<svg viewBox="0 0 22 22" xmlns="http://www.w3.org/2000/svg">
<path d="M18.2727 12.8909H16.0909V9.07981C16.0911 9.07336 16.0919 9.06705 16.0919 9.06061C16.0919 8.88577 16.0295 8.72591 15.9267 8.60048C15.9257 8.59922 15.9247 8.59792 15.9236 8.59665C15.9102 8.58056 15.8961 8.56514 15.8814 8.55021C15.8792 8.54807 15.8771 8.54589 15.875 8.54376C15.8686 8.53741 15.8626 8.53057 15.856 8.52446L10.5447 3.21314C10.5449 3.21338 10.5445 3.21295 10.5447 3.21314C10.5298 3.19825 10.5135 3.18371 10.4976 3.17033C10.4926 3.16611 10.4874 3.16218 10.4823 3.15806C10.4706 3.1488 10.4588 3.13988 10.4466 3.13139C10.4406 3.12718 10.4345 3.12301 10.4284 3.11898C10.4156 3.11059 10.4025 3.10274 10.3892 3.09522C10.3839 3.09217 10.3787 3.08887 10.3732 3.08596C10.3556 3.07656 10.3376 3.06793 10.3194 3.06002C10.312 3.05682 10.3043 3.05401 10.2968 3.05105C10.2847 3.04625 10.2725 3.04175 10.2601 3.03762C10.2516 3.03481 10.2432 3.0321 10.2346 3.02958C10.2206 3.0255 10.2064 3.02192 10.1921 3.01867C10.1858 3.01726 10.1796 3.01547 10.1731 3.01416C10.1528 3.01008 10.1322 3.00708 10.1116 3.0048C10.1053 3.00407 10.0989 3.00368 10.0925 3.0031C10.0754 3.0016 10.0583 3.00078 10.0411 3.00048C10.0375 3.00048 10.034 3 10.0303 3H3.72727C3.32562 3 3 3.32562 3 3.72727V18.2727C3 18.6744 3.32562 19 3.72727 19H15.3636C15.7653 19 16.0909 18.6744 16.0909 18.2727V14.3455H18.2727C18.6744 14.3455 19 14.0198 19 13.6182C19 13.2165 18.6744 12.8909 18.2727 12.8909ZM14.6364 17.5455H4.45455V4.45455H9.30303V9.06061C9.30303 9.46225 9.62865 9.78788 10.0303 9.78788H14.6364V12.8909L11.7861 12.8908L12.3628 12.3142C12.6468 12.0302 12.6468 11.5697 12.3628 11.2857C12.0787 11.0017 11.6183 11.0017 11.3343 11.2857L9.51607 13.1038C9.51336 13.1065 9.51103 13.1095 9.50841 13.1123C9.49459 13.1265 9.48107 13.141 9.46851 13.1564C9.4639 13.1619 9.45998 13.168 9.45552 13.1737C9.44538 13.1868 9.4352 13.1998 9.42599 13.2136C9.42274 13.2184 9.42007 13.2236 9.41692 13.2285C9.40727 13.2436 9.39777 13.2589 9.38919 13.2748C9.3873 13.2783 9.38579 13.282 9.38395 13.2856C9.37493 13.3032 9.36625 13.3209 9.35864 13.3392C9.35767 13.3416 9.35695 13.3441 9.35598 13.3465C9.34812 13.366 9.3408 13.3857 9.33464 13.4061C9.33382 13.4087 9.33333 13.4114 9.33256 13.4141C9.32674 13.4341 9.32141 13.4543 9.31729 13.4749C9.31607 13.4809 9.31554 13.487 9.31452 13.4931C9.31151 13.5104 9.30846 13.5277 9.30672 13.5455C9.30429 13.5695 9.30303 13.5937 9.30303 13.618C9.30303 13.6424 9.30429 13.6666 9.30672 13.6907C9.30846 13.7084 9.31151 13.7257 9.31452 13.743C9.31554 13.749 9.31607 13.7552 9.31729 13.7612C9.32145 13.7821 9.32684 13.8025 9.33275 13.8226C9.33343 13.825 9.33387 13.8275 9.33464 13.8299C9.34085 13.8503 9.34817 13.8703 9.35607 13.8899C9.35699 13.8922 9.35767 13.8945 9.35864 13.8968C9.36635 13.9153 9.37508 13.9333 9.38424 13.951C9.38599 13.9544 9.38739 13.9579 9.38919 13.9613C9.39782 13.9774 9.40747 13.9929 9.41731 14.0082C9.42027 14.0129 9.42284 14.0178 9.42594 14.0224C9.43549 14.0368 9.44606 14.0503 9.45658 14.0639C9.46061 14.0691 9.46424 14.0746 9.46841 14.0797C9.48238 14.0967 9.49721 14.1129 9.51263 14.1285C9.51379 14.1297 9.51486 14.1311 9.51607 14.1323L11.3343 15.9505C11.4763 16.0926 11.6624 16.1636 11.8485 16.1636C12.0346 16.1636 12.2208 16.0926 12.3628 15.9506C12.6468 15.6666 12.6468 15.2061 12.3628 14.9221L11.7861 14.3454L14.6364 14.3454V17.5455Z"/>
</svg>
