<svg viewBox="0 0 30 30" xmlns="http://www.w3.org/2000/svg">
<path d="M4.4459 10.251C3.97254 9.77764 3.97254 9.01015 4.4459 8.53682C4.91927 8.06349 5.68673 8.06349 6.1601 8.53682L4.4459 10.251ZM11.4134 15.5043L12.2705 16.3614C11.7971 16.8348 11.0297 16.8348 10.5563 16.3614L11.4134 15.5043ZM15.6641 11.2536L14.807 10.3965C15.2804 9.92313 16.0479 9.92313 16.5213 10.3965L15.6641 11.2536ZM23.9599 17.8352C24.4334 18.3086 24.4334 19.0761 23.9599 19.5494C23.4866 20.0228 22.7191 20.0228 22.2458 19.5494L23.9599 17.8352ZM22.0402 19.755L21.8025 20.9436C21.3642 20.8559 21.0096 20.5341 20.8801 20.1063C20.7506 19.6784 20.867 19.214 21.1831 18.8979L22.0402 19.755ZM24.1655 17.6297L23.3084 16.7726C23.6245 16.4565 24.089 16.34 24.5168 16.4696C24.9447 16.5991 25.2665 16.9536 25.3541 17.3919L24.1655 17.6297ZM24.6969 20.2864L25.8855 20.0486C25.965 20.4461 25.8405 20.8569 25.554 21.1435C25.2674 21.43 24.8565 21.5544 24.4592 21.4749L24.6969 20.2864ZM6.1601 8.53682L12.2705 14.6472L10.5563 16.3614L4.4459 10.251L6.1601 8.53682ZM10.5563 14.6472L14.807 10.3965L16.5213 12.1107L12.2705 16.3614L10.5563 14.6472ZM16.5213 10.3965L23.9599 17.8352L22.2458 19.5494L14.807 12.1107L16.5213 10.3965ZM21.1831 18.8979L23.3084 16.7726L25.0227 18.4868L22.8973 20.6121L21.1831 18.8979ZM25.3541 17.3919L25.8855 20.0486L23.5083 20.5241L22.977 17.8674L25.3541 17.3919ZM24.4592 21.4749L21.8025 20.9436L22.2779 18.5664L24.9346 19.0978L24.4592 21.4749Z"/>
</svg>
