<svg viewBox="0 0 22 22" xmlns="http://www.w3.org/2000/svg">
<path fill-rule="evenodd" clip-rule="evenodd" d="M14.365 7L15.3507 4.6C15.9825 4.6 16.5008 5.1032 16.5 5.72V17.88C16.5 18.4952 15.9825 19 15.3499 19H6.14926C5.51672 19 5 18.496 5 17.88V5.72C5 5.1032 5.51672 4.6 6.15008 4.6L7.13587 7H14.365ZM14.4471 4.6L13.7078 6.2H7.79224L7.05372 4.6H8.84456L9.43603 3H12.0648L12.6554 4.6H14.4471ZM7.46458 9.39999H14.0365V10.2H7.46458V9.39999ZM7.46458 15.8H14.0365V16.6H7.46458V15.8ZM14.0365 12.6H7.46458V13.4H14.0365V12.6Z" />
</svg>
