<svg width="31" height="40" viewBox="0 0 31 40" fill="none" xmlns="http://www.w3.org/2000/svg">
<path fill-rule="evenodd" clip-rule="evenodd" d="M2.49998 -6.10352e-05H19.7412L30.9999 11.2149V37.4999C30.9999 38.8811 29.88 39.9999 28.4999 39.9999H2.49998C1.11994 39.9999 0 38.8811 0 37.4999V2.49992C0 1.11871 1.12007 -6.10352e-05 2.49998 -6.10352e-05Z" fill="#E2574C"/>
<path fill-rule="evenodd" clip-rule="evenodd" d="M30.9638 11.2499H22.25C20.8699 11.2499 19.75 10.13 19.75 8.74998V0.0249634L30.9638 11.2499Z" fill="#B53629"/>
<path d="M6.96535 24.0599C6.72535 24.0599 6.53535 23.9899 6.39535 23.8499C6.25535 23.7099 6.18535 23.5199 6.18535 23.2799V17.6799C6.18535 17.4466 6.24868 17.2666 6.37535 17.1399C6.50202 17.0133 6.68202 16.9499 6.91535 16.9499H9.42535C10.192 16.9499 10.7887 17.1433 11.2154 17.5299C11.642 17.9166 11.8554 18.4566 11.8554 19.1499C11.8554 19.8433 11.642 20.3833 11.2154 20.7699C10.7887 21.1566 10.192 21.3499 9.42535 21.3499H7.74535V23.2799C7.74535 23.5199 7.67535 23.7099 7.53535 23.8499C7.39535 23.9899 7.20535 24.0599 6.96535 24.0599ZM9.22535 20.1699C10.0054 20.1699 10.3954 19.8333 10.3954 19.1599C10.3954 18.4799 10.0054 18.1399 9.22535 18.1399H7.74535V20.1699H9.22535ZM13.595 23.9999C13.3617 23.9999 13.1817 23.9366 13.055 23.8099C12.9284 23.6833 12.865 23.5033 12.865 23.2699V17.6799C12.865 17.4466 12.9284 17.2666 13.055 17.1399C13.1817 17.0133 13.3617 16.9499 13.595 16.9499H15.605C16.3717 16.9499 17.0317 17.0899 17.585 17.3699C18.1384 17.6499 18.5617 18.0533 18.855 18.5799C19.1484 19.1066 19.295 19.7366 19.295 20.4699C19.295 21.2033 19.1484 21.8366 18.855 22.3699C18.5684 22.8966 18.1484 23.2999 17.595 23.5799C17.0417 23.8599 16.3784 23.9999 15.605 23.9999H13.595ZM15.495 22.7399C16.995 22.7399 17.745 21.9833 17.745 20.4699C17.745 18.9633 16.995 18.2099 15.495 18.2099H14.425V22.7399H15.495ZM21.272 24.0599C21.0387 24.0599 20.8487 23.9899 20.702 23.8499C20.562 23.7033 20.492 23.5133 20.492 23.2799V17.6799C20.492 17.4466 20.5553 17.2666 20.682 17.1399C20.8087 17.0133 20.9887 16.9499 21.222 16.9499H24.662C24.9153 16.9499 25.102 16.9999 25.222 17.0999C25.342 17.1999 25.402 17.3566 25.402 17.5699C25.402 17.7766 25.342 17.9299 25.222 18.0299C25.102 18.1299 24.9153 18.1799 24.662 18.1799H22.032V19.7999H24.462C24.7153 19.7999 24.902 19.8499 25.022 19.9499C25.142 20.0499 25.202 20.2066 25.202 20.4199C25.202 20.6266 25.142 20.7799 25.022 20.8799C24.902 20.9799 24.7153 21.0299 24.462 21.0299H22.032V23.2799C22.032 23.5199 21.962 23.7099 21.822 23.8499C21.6887 23.9899 21.5053 24.0599 21.272 24.0599Z" fill="white"/>
</svg>
