<svg viewBox="0 0 50 50" xmlns="http://www.w3.org/2000/svg">
<path d="M25.0002 22.4431C21.9875 22.4431 19.5456 24.9249 19.5456 27.9828C19.5456 31.0408 21.9875 33.5226 25.0002 33.5226C28.0111 33.5226 30.4547 31.0408 30.4547 27.9828C30.4547 24.9249 28.0111 22.4431 25.0002 22.4431ZM39.5456 16.9033H35.182C34.582 16.9033 33.9347 16.4306 33.7475 15.8507L32.6184 12.4142C32.4275 11.8363 31.7838 11.3635 31.182 11.3635H18.8184C18.2184 11.3635 17.5711 11.8363 17.3838 12.4124L16.2529 15.8507C16.0638 16.4306 15.4184 16.9033 14.8184 16.9033H10.4547C8.45472 16.9033 6.81836 18.5652 6.81836 20.5965V37.2158C6.81836 39.247 8.45472 40.909 10.4547 40.909H39.5456C41.5456 40.909 43.182 39.247 43.182 37.2158V20.5965C43.182 18.5652 41.5456 16.9033 39.5456 16.9033ZM25.0002 37.2158C19.9784 37.2158 15.9093 33.0831 15.9093 27.9828C15.9093 22.8826 19.9784 18.7499 25.0002 18.7499C30.0202 18.7499 34.0911 22.8826 34.0911 27.9828C34.0911 33.0831 30.0202 37.2158 25.0002 37.2158ZM38.6365 22.8124C37.9329 22.8124 37.3638 22.2326 37.3638 21.5179C37.3638 20.807 37.9329 20.2253 38.6365 20.2253C39.3402 20.2253 39.9093 20.8051 39.9093 21.5179C39.9093 22.2326 39.3402 22.8124 38.6365 22.8124Z"/>
</svg>
