<svg viewBox="0 0 22 22" xmlns="http://www.w3.org/2000/svg">
<path d="M14.8417 12.8131C14.8417 13.514 15.0408 13.7935 15.5617 13.7935C16.7225 13.7935 17.4617 12.3125 17.4617 9.84939C17.4617 6.08469 14.7217 4.28244 11.3008 4.28244C7.78167 4.28244 4.58083 6.64539 4.58083 11.111C4.58083 15.3763 7.38083 17.6992 11.6808 17.6992C13.1408 17.6992 14.1208 17.539 15.62 17.0384L15.9417 18.3792C14.4617 18.8607 12.88 19 11.6608 19C6.02083 19 3 15.8961 3 11.1101C3 6.2841 6.50083 3 11.3208 3C16.3408 3 19 6.00375 19 9.68836C19 12.8123 18.0208 15.1952 14.9408 15.1952C13.54 15.1952 12.6208 14.6345 12.5008 13.3922C12.1408 14.7739 11.1808 15.1952 9.88 15.1952C8.14 15.1952 6.68 13.8527 6.68 11.1502C6.68 8.42678 7.96083 6.74468 10.2608 6.74468C11.4808 6.74468 12.2408 7.22528 12.5792 7.98623L13.16 6.92491H14.84V12.8131H14.8417ZM12.3825 10.1698C12.3825 9.06925 11.5617 8.60784 10.8817 8.60784C10.1417 8.60784 9.3225 9.20776 9.3225 10.9708C9.3225 12.3725 9.9425 13.1535 10.8817 13.1535C11.5417 13.1535 12.3825 12.733 12.3825 11.5715V10.1698Z" />
</svg>
