<svg viewBox="0 0 22 22" xmlns="http://www.w3.org/2000/svg">
<path d="M11.0004 3C6.58148 3 3 6.58148 3 10.9996C3 15.4185 6.58148 19 11.0004 19C15.4177 19 19 15.4185 19 10.9996C19 6.58148 15.4177 3 11.0004 3ZM11.747 5.88818C12.527 5.88818 12.7562 6.34066 12.7562 6.85813C12.7562 7.50393 12.2395 8.1014 11.3571 8.1014C10.6188 8.1014 10.2671 7.73059 10.2888 7.11645C10.2888 6.59898 10.7213 5.88818 11.747 5.88818ZM9.74882 15.791C9.21551 15.791 8.82636 15.4669 9.19884 14.0461L9.80965 11.5254C9.91547 11.1221 9.93297 10.9604 9.80965 10.9604C9.65049 10.9604 8.95802 11.2387 8.54971 11.5137L8.28389 11.0779C9.57966 9.99547 11.0696 9.3605 11.707 9.3605C12.2404 9.3605 12.3287 9.99047 12.0629 10.9604L11.3629 13.6103C11.2387 14.0786 11.2921 14.2402 11.4162 14.2402C11.5762 14.2402 12.0995 14.0469 12.6145 13.6411L12.9162 14.0461C11.6554 15.306 10.2813 15.791 9.74882 15.791Z"/>
</svg>
