<svg width="18" height="18" viewBox="0 0 18 18" fill="none" xmlns="http://www.w3.org/2000/svg">
<mask id="mask0" mask-type="alpha" maskUnits="userSpaceOnUse" x="2" y="2" width="14" height="14">
<path fill-rule="evenodd" clip-rule="evenodd" d="M14.6878 14.2574C14.9345 14.2893 15.2045 14.3612 15.4982 14.473C15.5297 14.6809 15.5453 14.8326 15.5453 14.9283C15.5453 15.003 15.5429 15.0722 15.5375 15.1361C15.1179 15.1361 14.6143 15.1148 14.0271 15.0722C13.5392 15.0297 13.0435 15.0083 12.5403 15.0083C12.126 15.0083 11.7718 15.0137 11.4781 15.0244L9.90469 15.1122L9.44839 15.1283C9.44839 14.8886 9.45866 14.6809 9.47968 14.505L10.5103 14.2814C10.8042 14.2122 10.9824 14.151 11.0454 14.0977C11.1084 14.0339 11.1398 13.9619 11.1398 13.882C11.1398 13.8021 11.1241 13.717 11.0926 13.6263L10.7231 12.7156L9.99925 10.8939L6.45895 10.878C6.30684 11.2241 6.03419 11.954 5.6408 13.0671C5.52019 13.4082 5.45984 13.6317 5.45984 13.7383C5.45984 13.9035 5.50443 14.018 5.59359 14.0818C5.72991 14.1936 6.00002 14.2789 6.4039 14.3375C6.41962 14.3375 6.45509 14.3429 6.51011 14.3534C6.56518 14.3641 6.64386 14.3773 6.74612 14.3934C6.84835 14.4093 6.95457 14.4254 7.06468 14.4413C7.07 14.5905 7.07259 14.7449 7.07259 14.9048C7.07259 14.9952 7.06735 15.0672 7.05686 15.1205C6.71077 15.1205 5.79557 15.0672 4.31125 14.9608L3.93359 15.0245C3.50883 15.099 3.07088 15.1364 2.61981 15.1364H2.45459L2.47032 14.5049C2.5857 14.4677 2.79544 14.4198 3.0997 14.361C3.56645 14.276 3.85494 14.1933 3.96506 14.1135C4.06993 14.0283 4.19585 13.8471 4.34272 13.5702L6.20721 8.64829L8.40993 2.86363H8.99998H9.41686L9.50344 3.03143L11.1162 6.86651C11.6565 8.15564 11.9815 8.94664 12.0917 9.23954C12.2962 9.78284 12.5479 10.4088 12.8468 11.1171C12.9831 11.4261 13.1537 11.8629 13.3583 12.4276C13.4841 12.7845 13.6545 13.1814 13.8696 13.618C13.985 13.8791 14.0768 14.0308 14.1451 14.0736C14.2604 14.1749 14.4414 14.236 14.6878 14.2574ZM8.96455 9.93071C9.16644 9.93329 9.30411 9.93474 9.37757 9.93474L9.60588 9.91882C9.43797 9.41279 9.19675 8.77089 8.88194 7.99319C8.60402 7.29005 8.36281 6.72811 8.15825 6.30729L6.82088 9.90275C7.20372 9.9081 7.60627 9.91336 8.02844 9.91882L8.96455 9.93071Z" fill="white"/>
</mask>
<g mask="url(#mask0)">
<rect width="18" height="18" fill="#8697A8"/>
</g>
</svg>
