<svg viewBox="0 0 16 16" xmlns="http://www.w3.org/2000/svg">
<path d="M7.99982 2.18188C4.78649 2.18188 2.18164 4.78673 2.18164 8.00007C2.18164 11.2134 4.78649 13.8182 7.99982 13.8182C11.2126 13.8182 13.818 11.2134 13.818 7.99946C13.818 4.78673 11.2126 2.18188 7.99982 2.18188ZM7.90831 11.3934H7.8774C7.40346 11.3795 7.06891 11.0298 7.08285 10.5625C7.09619 10.1031 7.43861 9.76916 7.89679 9.76916L7.92467 9.77037C8.41194 9.78431 8.74285 10.1304 8.72891 10.611C8.71497 11.0716 8.37861 11.3934 7.90831 11.3934ZM9.90285 7.43522C9.79134 7.59279 9.54649 7.79037 9.2374 8.03098L8.89679 8.26552C8.71013 8.41098 8.5974 8.54855 8.55558 8.68249C8.52164 8.78795 8.50588 8.81643 8.50285 9.03158V9.08613H7.20285L7.20649 8.97582C7.22285 8.52492 7.23376 8.25825 7.42103 8.03825C7.71497 7.69401 8.36346 7.27582 8.39073 7.25825C8.48407 7.18855 8.56225 7.10916 8.62043 7.0237C8.75679 6.83522 8.81679 6.68734 8.81679 6.5431C8.81679 6.34067 8.7574 6.1534 8.63922 5.98795C8.52528 5.82673 8.30891 5.74673 7.99619 5.74673C7.68588 5.74673 7.47316 5.84492 7.34649 6.04734C7.21558 6.25401 7.14952 6.47158 7.14952 6.69401V6.74976H5.80952L5.81194 6.69158C5.84649 5.87158 6.13982 5.28067 6.68164 4.93582C7.02285 4.71704 7.4477 4.60613 7.94285 4.60613C8.59013 4.60613 9.138 4.7637 9.56831 5.07401C10.0053 5.38855 10.2265 5.86007 10.2265 6.47461C10.2259 6.81825 10.1174 7.14128 9.90285 7.43522Z" />
</svg>
