<svg viewBox="0 0 22 22" fill="none" xmlns="http://www.w3.org/2000/svg">
<path fill-rule="evenodd" clip-rule="evenodd" d="M18.4281 5C18.5827 5 18.7168 5.03943 18.8299 5.11802C18.9429 5.19678 18.9996 5.28995 18.9996 5.39762V6.19282C18.9996 6.3005 18.9429 6.39365 18.8299 6.47236C18.7167 6.55102 18.5826 6.59037 18.4281 6.59037H8.1426C7.98783 6.59037 7.85392 6.55104 7.74075 6.47236C7.62764 6.39363 7.57106 6.30048 7.57106 6.19282V5.39762C7.57106 5.28995 7.62764 5.19672 7.74075 5.11802C7.8538 5.03943 7.98773 5 8.1426 5H18.4281ZM18.4283 8.47001H4.71424C4.55937 8.47001 4.42543 8.50933 4.31239 8.58803C4.19927 8.66669 4.14277 8.75988 4.14277 8.86756V9.66277C4.14277 9.77041 4.19927 9.86367 4.31239 9.94225C4.42556 10.021 4.55937 10.0604 4.71424 10.0604H18.4283C18.5829 10.0604 18.717 10.021 18.8302 9.94225C18.9431 9.86367 18.9998 9.77041 18.9998 9.66277V8.86756C18.9998 8.75981 18.9431 8.66671 18.8302 8.58803C18.717 8.50933 18.5829 8.47001 18.4283 8.47001ZM6.99977 11.9399H18.4281C18.5827 11.9399 18.7168 11.9792 18.83 12.058C18.943 12.1366 18.9997 12.2299 18.9997 12.3375V13.1326C18.9997 13.2403 18.943 13.3335 18.83 13.4121C18.7168 13.4908 18.5827 13.5303 18.4281 13.5303H6.99977C6.845 13.5303 6.71112 13.4908 6.59792 13.4121C6.48481 13.3335 6.4283 13.2402 6.4283 13.1326V12.3375C6.4283 12.2299 6.48477 12.1366 6.59792 12.058C6.71103 11.9793 6.8449 11.9399 6.99977 11.9399ZM3.57147 15.4096H18.4284C18.583 15.4096 18.7171 15.449 18.8303 15.5277C18.9433 15.6064 19 15.6996 19 15.8072V16.6024C19 16.71 18.9433 16.8033 18.8303 16.8821C18.7171 16.9607 18.583 17 18.4284 17H3.5715C3.4168 17 3.28286 16.9607 3.16962 16.8821C3.05657 16.8032 3 16.71 3 16.6024V15.8072C3 15.6996 3.05657 15.6064 3.16959 15.5277C3.28273 15.449 3.41661 15.4096 3.57147 15.4096Z" />
</svg>
