<svg viewBox="0 0 27 27" fill="none" xmlns="http://www.w3.org/2000/svg">
<path d="M13.501 3.68182C8.08563 3.68182 3.68176 8.0867 3.68176 13.5C3.68176 18.9133 8.08563 23.3182 13.501 23.3182C18.9143 23.3182 23.3191 18.9133 23.3191 13.5C23.3191 8.0867 18.9143 3.68182 13.501 3.68182ZM21.8751 13.5C21.8751 15.4156 21.2246 17.1818 20.1405 18.5932C19.8337 18.3539 19.5074 17.7065 19.8143 17.0356C20.1241 16.3606 20.2049 14.7978 20.1334 14.1893C20.0659 13.5818 19.7498 12.1183 18.8918 12.104C18.0347 12.0917 17.4466 11.8084 16.9373 10.7918C15.8809 8.67682 18.9204 8.2708 17.8639 7.1008C17.5684 6.77148 16.0404 8.45284 15.8164 6.21205C15.8021 6.05148 15.9545 5.81114 16.1601 5.56159C19.4778 6.67636 21.8751 9.81307 21.8751 13.5ZM12.3504 5.20875C12.1499 5.59943 11.6212 5.75795 11.3001 6.05148C10.6005 6.68455 10.2998 6.59659 9.92347 7.20409C9.54403 7.81159 8.32085 8.68602 8.32085 9.12579C8.32085 9.56557 8.93858 10.0831 9.24744 9.98284C9.55631 9.88057 10.3714 9.8867 10.8501 10.0544C11.3297 10.2242 14.853 10.394 13.7301 13.3722C13.3741 14.3192 11.8145 14.1597 11.3993 15.7275C11.3369 15.9576 11.1211 16.9405 11.1078 17.2616C11.0822 17.7586 11.4596 19.6323 10.9799 19.6323C10.4982 19.6323 9.20244 17.956 9.20244 17.6523C9.20244 17.3485 8.86699 16.2839 8.86699 15.3716C8.86699 14.4603 7.31449 14.4747 7.31449 13.2627C7.31449 12.1705 8.15619 11.6264 7.96699 11.1017C7.78188 10.5801 6.30301 10.5627 5.68631 10.4983C6.76324 7.70523 9.29654 5.63216 12.3504 5.20875ZM10.8664 21.4466C11.3696 21.1807 11.4207 20.837 11.8769 20.8197C12.3985 20.7961 12.8229 20.6161 13.411 20.4862C13.9326 20.3727 14.8663 19.843 15.6876 19.7755C16.381 19.7192 17.7484 19.8113 18.1165 20.4801C16.7921 21.3607 15.2038 21.8741 13.4999 21.8741C12.5805 21.8741 11.6948 21.7217 10.8664 21.4466Z"/>
</svg>
