<svg viewBox="0 0 22 22" xmlns="http://www.w3.org/2000/svg">
<path d="M17 6.7368H4.5V6.2368L15.5 5.3568V6.2368H17V4.7368C17 3.6368 16.109 2.8648 15.021 3.0198L4.98 4.4538C3.891 4.6098 3 5.6368 3 6.7368V16.7368C3 17.8408 3.895 18.7368 5 18.7368H17C18.104 18.7368 19 17.8408 19 16.7368V8.7368C19 7.6328 18.104 6.7368 17 6.7368ZM15.5 13.7428C14.672 13.7428 14 13.0708 14 12.2428C14 11.4148 14.672 10.7428 15.5 10.7428C16.328 10.7428 17 11.4148 17 12.2428C17 13.0708 16.328 13.7428 15.5 13.7428Z"/>
</svg>
