<svg viewBox="0 0 22 22" fill="none" xmlns="http://www.w3.org/2000/svg">
<path d="M18.2 6H3.8C3.3576 6 3 6.3576 3 6.8V16.4C3 16.8416 3.3576 17.2 3.8 17.2H18.2C18.6424 17.2 19 16.8416 19 16.4V6.8C19 6.3584 18.6424 6 18.2 6ZM13.4 9.2H16.6V10H13.4V9.2ZM11.8 15.4424C11.6968 15.3608 11.5656 15.2816 11.3768 15.2C10.4328 14.7936 9.008 14.192 9.008 13.4592C9.008 13.0184 9.2952 13.1624 9.4224 12.356C9.4752 12.0216 9.7304 12.3504 9.7784 11.5872C9.7784 11.2832 9.6392 11.2072 9.6392 11.2072C9.6392 11.2072 9.7096 10.7576 9.7376 10.4104C9.7664 10.048 9.5608 8.9704 8.716 8.7328C8.5672 8.5824 8.4672 8.644 8.9224 8.4032C7.9272 8.356 7.6952 8.8768 7.1656 9.26C6.7144 9.596 6.592 10.128 6.6144 10.4112C6.644 10.7576 6.7144 11.208 6.7144 11.208C6.7144 11.208 6.5744 11.2832 6.5744 11.5872C6.6232 12.3504 6.8784 12.0216 6.9304 12.356C7.0568 13.1624 7.3456 13.0184 7.3456 13.4592C7.3456 14.192 5.9208 14.7936 4.9768 15.2C4.8144 15.2704 4.6976 15.3384 4.6 15.408V7.6H11.8V15.4424ZM17.4 12.4H13.4V11.6H17.4V12.4Z"/>
</svg>
