<svg viewBox="0 0 22 22" xmlns="http://www.w3.org/2000/svg">
<path d="M14.5306 13.8831C14.3445 13.0996 13.966 12.5749 13.3948 12.3085L15.4754 7.8466C15.7753 7.98647 16.0867 7.99729 16.4086 7.87864C16.7309 7.76017 16.9626 7.54978 17.1034 7.24776C17.2443 6.94559 17.2565 6.63302 17.14 6.30995C17.0241 5.98709 16.8157 5.75552 16.5157 5.61563L10.9774 3.03307C10.6773 2.89314 10.3663 2.8825 10.0441 3.00104C9.72186 3.11957 9.49038 3.32983 9.34946 3.63203C9.20857 3.93418 9.19626 4.24671 9.31258 4.56973C9.42888 4.8927 9.63709 5.12416 9.93707 5.26404L7.8565 9.72584C7.28533 9.4595 6.63997 9.50689 5.92018 9.86796C5.20044 10.2291 4.67398 10.7667 4.34068 11.4815C4.27025 11.6325 4.26411 11.7888 4.32229 11.9503C4.38056 12.1117 4.48462 12.2274 4.63462 12.2974L8.13076 13.9277L6.81754 18.461C6.77316 18.6313 6.82897 18.7527 6.98473 18.8253L6.99355 18.8294C7.06248 18.8616 7.13342 18.8646 7.20539 18.8382C7.27738 18.8116 7.33546 18.7661 7.37947 18.7018L9.78349 14.6984L13.496 16.4295C13.646 16.4995 13.8017 16.5049 13.9625 16.4457C14.1237 16.3865 14.2396 16.2814 14.31 16.1303C14.6434 15.4157 14.7167 14.6666 14.5306 13.8831ZM9.92492 10.351C9.88703 10.4323 9.82999 10.487 9.75358 10.5151C9.67726 10.5432 9.5987 10.5384 9.51795 10.5007C9.43726 10.4631 9.38302 10.406 9.35548 10.3295C9.32794 10.253 9.33319 10.174 9.37108 10.0928L11.1916 6.18871C11.2295 6.1074 11.2866 6.05252 11.3629 6.02456C11.4392 5.99656 11.5178 6.00137 11.5985 6.039C11.6792 6.07665 11.7335 6.13367 11.761 6.2102C11.7886 6.28668 11.7833 6.36566 11.7454 6.44697L9.92492 10.351Z" />
</svg>
