<svg viewBox="0 0 22 22" xmlns="http://www.w3.org/2000/svg">
<path d="M17.9105 5.76028C17.8509 5.69793 17.7747 5.66659 17.682 5.66659H14.6094L13.9134 3.9271C13.814 3.67009 13.635 3.45133 13.3766 3.27076C13.118 3.09023 12.856 3 12.5909 3H9.40906C9.14399 3 8.88209 3.09023 8.62357 3.27076C8.36502 3.45133 8.18604 3.67006 8.08658 3.9271L7.39057 5.66659H4.31814C4.22526 5.66659 4.14913 5.69793 4.08944 5.76028C4.02992 5.82278 4 5.90269 4 5.99988V6.66662C4 6.76382 4.02978 6.84372 4.08944 6.90611C4.14913 6.96858 4.2254 6.99981 4.31814 6.99981H5.27261V16.9166C5.27261 17.4932 5.42839 17.9844 5.73991 18.3905C6.05151 18.797 6.42604 19 6.86357 19H15.1364C15.574 19 15.9485 18.79 16.2601 18.3699C16.5716 17.9496 16.7273 17.4514 16.7273 16.8751V6.99981H17.6819C17.7746 6.99981 17.8509 6.96858 17.9105 6.90611C17.97 6.84376 18 6.76382 18 6.66662V5.99988C18.0001 5.90269 17.97 5.82278 17.9105 5.76028ZM9.25996 4.44768C9.30632 4.38521 9.3627 4.3469 9.42898 4.33311H12.5809C12.6472 4.34701 12.7037 4.38529 12.75 4.44768L13.2274 5.66644H8.77274L9.25996 4.44768ZM15.4547 16.8752C15.4547 17.0279 15.4316 17.1686 15.3851 17.297C15.3386 17.4253 15.2904 17.5191 15.2408 17.5781C15.191 17.6373 15.1565 17.6667 15.1364 17.6667H6.8636C6.84371 17.6667 6.8091 17.6373 6.75926 17.5781C6.70949 17.5191 6.6614 17.4253 6.61497 17.297C6.56862 17.1686 6.54542 17.0277 6.54542 16.8752V6.99981H15.4546L15.4547 16.8752Z" />
<path d="M9.1365 15.6668H9.77282C9.86571 15.6668 9.94201 15.6356 10.0015 15.5731C10.0611 15.5104 10.091 15.4308 10.091 15.3334V9.33319C10.091 9.23603 10.0611 9.15612 10.0015 9.09359C9.94184 9.03123 9.86574 9 9.77282 9H9.1365C9.04362 9 8.96745 9.0312 8.90779 9.09359C8.84821 9.15612 8.81836 9.23603 8.81836 9.33319V15.3334C8.81836 15.4308 8.8481 15.5105 8.90779 15.5731C8.96745 15.6355 9.04362 15.6668 9.1365 15.6668Z" />
<path d="M12.3182 15.6668H12.9544C13.0474 15.6668 13.1237 15.6356 13.1832 15.5731C13.2428 15.5104 13.2725 15.4308 13.2725 15.3334V9.33319C13.2725 9.23603 13.2428 9.15612 13.1832 9.09359C13.1237 9.03123 13.0474 9 12.9544 9H12.3182C12.2252 9 12.1492 9.0312 12.0894 9.09359C12.0298 9.15612 12 9.23603 12 9.33319V15.3334C12 15.4308 12.0298 15.5105 12.0894 15.5731C12.1492 15.6355 12.2252 15.6668 12.3182 15.6668Z" />
</svg>
