<svg width="14" height="14" viewBox="0 0 14 14" xmlns="http://www.w3.org/2000/svg">
<path d="M4.91 3.992C5.14252 4.21583 7.41432 6.56773 7.41432 6.56773C7.53837 6.68788 7.60068 6.84423 7.60068 7.00058C7.60068 7.15694 7.53837 7.31329 7.41432 7.43234C7.41432 7.43234 5.14252 9.78533 4.91 10.0081C4.67747 10.2319 4.25916 10.2473 4.01162 10.0081C3.76352 9.76997 3.74405 9.43696 4.01162 9.14455L6.09596 7.00058L4.01162 4.85661C3.74405 4.5642 3.76352 4.23065 4.01162 3.992C4.25916 3.75281 4.67747 3.76762 4.91 3.992Z" />
<path d="M9.08999 3.992C8.85747 4.21583 6.58566 6.56773 6.58566 6.56773C6.46162 6.68788 6.39931 6.84423 6.39931 7.00058C6.39931 7.15694 6.46162 7.31329 6.58566 7.43234C6.58566 7.43234 8.85747 9.78533 9.08999 10.0081C9.32251 10.2319 9.74083 10.2473 9.98837 10.0081C10.2365 9.76997 10.2559 9.43696 9.98837 9.14455L7.90402 7.00058L9.98837 4.85661C10.2559 4.5642 10.2365 4.23065 9.98837 3.992C9.74083 3.75281 9.32251 3.76762 9.08999 3.992Z" />
</svg>
