<svg viewBox="0 0 22 22" xmlns="http://www.w3.org/2000/svg">
<path d="M18.4203 17.4816L17.3009 14.2H16.0727L16.7548 17.4H4.74567L5.42776 14.2H4.1995L3.07933 17.4816C2.79519 18.3168 3.29878 19 4.1995 19H17.3009C18.2017 19 18.7052 18.3168 18.4203 17.4816ZM14.8444 7C14.8444 4.7912 13.0119 3 10.7502 3C8.48858 3 6.65602 4.7912 6.65602 7C6.65602 10.82 10.7502 15 10.7502 15C10.7502 15 14.8444 10.82 14.8444 7ZM8.53935 7.048C8.53935 5.8552 9.52851 4.8888 10.7502 4.8888C11.9719 4.8888 12.9611 5.8552 12.9611 7.048C12.9611 8.2416 11.9711 9.208 10.7502 9.208C9.52933 9.208 8.53935 8.2408 8.53935 7.048Z" />
</svg>
