<svg viewBox="0 0 22 22" xmlns="http://www.w3.org/2000/svg">
<path d="M17.7296 7.24105C17.6407 6.88876 17.2051 6.60132 16.7608 6.60132H11.305C10.8615 6.60132 10.2402 6.34671 9.92631 6.03525L9.44912 5.56447C9.13526 5.25301 8.51475 5 8.07118 5H5.46503C5.02067 5 4.61714 5.3579 4.5683 5.79586L4.3345 8.20264H17.8905L17.7296 7.24105ZM18.5358 9.0033H3.46418C3.19036 9.0033 2.97578 9.2387 3.0022 9.51172L3.74121 17.2533C3.77084 17.5688 4.03666 17.8106 4.35452 17.8106H17.6455C17.9633 17.8106 18.2284 17.5688 18.2588 17.2533L18.9978 9.51172C19.0242 9.2387 18.8096 9.0033 18.5358 9.0033Z"/>
</svg>
