<svg viewBox="0 0 22 22" xmlns="http://www.w3.org/2000/svg">
<path d="M12.0118 4C8.21165 4 5.12022 7.04073 5.02789 10.8259V11.0009H3L6.07262 14.325L9.05974 11.0009H6.77537V10.8259C6.86684 8.00622 9.17601 5.75085 12.0118 5.75085C14.9066 5.75085 17.2534 8.10183 17.2534 11.0009C17.2534 13.8999 14.9066 16.2509 12.0118 16.2509C10.8517 16.2509 9.77959 15.871 8.91098 15.2324L7.70895 16.5163C8.89559 17.4451 10.3892 18 12.0118 18C15.8718 18 19 14.8671 19 11.0009C19 7.13463 15.8718 4 12.0118 4ZM11.1569 6.73256V11.0009C11.1569 11.1118 11.18 11.2228 11.2227 11.327C11.2663 11.4311 11.3287 11.5259 11.4074 11.6044L14.1431 14.3361C14.3851 14.1799 14.6134 14.004 14.816 13.8L12.8667 11.8545V6.73256H11.1569Z"/>
</svg>
