<svg viewBox="0 0 22 22" xmlns="http://www.w3.org/2000/svg">
<path d="M3 5.60714V14.4464C3 15.3175 3.7328 16.0536 4.6 16.0536H6.73333V18.7321C6.73333 18.8428 6.80107 18.9421 6.90373 18.9821C6.9352 18.9944 6.96773 19 7 19C7.0736 19 7.1456 18.9695 7.19733 18.9124L9.78453 16.0536H17.4C18.2672 16.0536 19 15.3175 19 14.4464V5.60714C19 4.73607 18.2672 4 17.4 4H4.6C3.7328 4 3 4.73607 3 5.60714ZM13.6667 9.89286C13.6667 9.30196 14.1451 8.82143 14.7333 8.82143C15.3216 8.82143 15.8 9.30196 15.8 9.89286C15.8 10.4837 15.3216 10.9643 14.7333 10.9643C14.1451 10.9643 13.6667 10.4837 13.6667 9.89286ZM9.93333 9.89286C9.93333 9.30196 10.4117 8.82143 11 8.82143C11.5883 8.82143 12.0667 9.30196 12.0667 9.89286C12.0667 10.4837 11.5883 10.9643 11 10.9643C10.4117 10.9643 9.93333 10.4837 9.93333 9.89286ZM6.2 9.89286C6.2 9.30196 6.6784 8.82143 7.26667 8.82143C7.85493 8.82143 8.33333 9.30196 8.33333 9.89286C8.33333 10.4837 7.85493 10.9643 7.26667 10.9643C6.6784 10.9643 6.2 10.4837 6.2 9.89286Z" />
</svg>
