<svg width="31" height="40" viewBox="0 0 31 40" fill="none" xmlns="http://www.w3.org/2000/svg">
<path fill-rule="evenodd" clip-rule="evenodd" d="M2.49998 -6.10352e-05H19.7412L30.9999 11.2149V37.4999C30.9999 38.8811 29.88 39.9999 28.4999 39.9999H2.49998C1.11994 39.9999 0 38.8811 0 37.4999V2.49992C0 1.11871 1.12007 -6.10352e-05 2.49998 -6.10352e-05Z" fill="#09B66D"/>
<path fill-rule="evenodd" clip-rule="evenodd" d="M30.9638 11.2499H22.25C20.8699 11.2499 19.75 10.13 19.75 8.74998V0.0249634L30.9638 11.2499Z" fill="#00A344"/>
<path d="M12.4206 22.8799C12.5473 23.0266 12.6106 23.1799 12.6106 23.3399C12.6106 23.5333 12.5339 23.7033 12.3806 23.8499C12.2339 23.9899 12.0639 24.0599 11.8706 24.0599C11.6706 24.0599 11.5006 23.9766 11.3606 23.8099L9.48059 21.5099L7.58059 23.8099C7.43392 23.9766 7.26392 24.0599 7.07059 24.0599C6.88392 24.0599 6.71392 23.9899 6.56059 23.8499C6.41392 23.7033 6.34059 23.5333 6.34059 23.3399C6.34059 23.1733 6.40059 23.0199 6.52059 22.8799L8.57059 20.4399L6.59059 18.0699C6.46392 17.9233 6.40059 17.7699 6.40059 17.6099C6.40059 17.4166 6.47392 17.2499 6.62059 17.1099C6.77392 16.9633 6.94392 16.8899 7.13059 16.8899C7.33059 16.8899 7.50392 16.9766 7.65059 17.1499L9.48059 19.3599L11.2906 17.1499C11.4373 16.9766 11.6106 16.8899 11.8106 16.8899C11.9973 16.8899 12.1639 16.9633 12.3106 17.1099C12.4639 17.2499 12.5406 17.4166 12.5406 17.6099C12.5406 17.7766 12.4806 17.9299 12.3606 18.0699L10.3806 20.4399L12.4206 22.8799ZM14.2786 23.9999C14.0453 23.9999 13.8653 23.9366 13.7386 23.8099C13.612 23.6833 13.5486 23.5033 13.5486 23.2699V17.6699C13.5486 17.4366 13.6186 17.2499 13.7586 17.1099C13.8986 16.9699 14.0886 16.8999 14.3286 16.8999C14.5686 16.8999 14.7586 16.9699 14.8986 17.1099C15.0386 17.2499 15.1086 17.4366 15.1086 17.6699V22.7299H17.6686C18.1553 22.7299 18.3986 22.9433 18.3986 23.3699C18.3986 23.7899 18.1553 23.9999 17.6686 23.9999H14.2786ZM21.6257 24.0899C21.0991 24.0899 20.6091 24.0299 20.1557 23.9099C19.7024 23.7833 19.3324 23.6066 19.0457 23.3799C18.9457 23.3066 18.8724 23.2299 18.8257 23.1499C18.7857 23.0633 18.7657 22.9566 18.7657 22.8299C18.7657 22.6633 18.8157 22.5166 18.9157 22.3899C19.0224 22.2633 19.1424 22.1999 19.2757 22.1999C19.3491 22.1999 19.4191 22.2133 19.4857 22.2399C19.5591 22.2599 19.6457 22.2999 19.7457 22.3599C20.0324 22.5399 20.3224 22.6733 20.6157 22.7599C20.9091 22.8399 21.2324 22.8799 21.5857 22.8799C22.0257 22.8799 22.3624 22.8066 22.5957 22.6599C22.8291 22.5133 22.9457 22.3033 22.9457 22.0299C22.9457 21.8233 22.8357 21.6566 22.6157 21.5299C22.4024 21.4033 22.0191 21.2833 21.4657 21.1699C20.8457 21.0433 20.3491 20.8899 19.9757 20.7099C19.6091 20.5299 19.3391 20.3066 19.1657 20.0399C18.9991 19.7733 18.9157 19.4499 18.9157 19.0699C18.9157 18.6499 19.0357 18.2733 19.2757 17.9399C19.5224 17.5999 19.8591 17.3366 20.2857 17.1499C20.7191 16.9566 21.2057 16.8599 21.7457 16.8599C22.6924 16.8599 23.4724 17.0966 24.0857 17.5699C24.1857 17.6499 24.2557 17.7333 24.2957 17.8199C24.3424 17.8999 24.3657 17.9999 24.3657 18.1199C24.3657 18.2866 24.3124 18.4333 24.2057 18.5599C24.1057 18.6866 23.9891 18.7499 23.8557 18.7499C23.7824 18.7499 23.7124 18.7399 23.6457 18.7199C23.5857 18.6999 23.4991 18.6566 23.3857 18.5899C23.1124 18.4166 22.8591 18.2866 22.6257 18.1999C22.3991 18.1133 22.1091 18.0699 21.7557 18.0699C21.3491 18.0699 21.0291 18.1499 20.7957 18.3099C20.5624 18.4633 20.4457 18.6766 20.4457 18.9499C20.4457 19.1099 20.4891 19.2433 20.5757 19.3499C20.6691 19.4499 20.8191 19.5399 21.0257 19.6199C21.2391 19.6999 21.5391 19.7833 21.9257 19.8699C22.8324 20.0699 23.4824 20.3266 23.8757 20.6399C24.2757 20.9533 24.4757 21.3833 24.4757 21.9299C24.4757 22.3566 24.3557 22.7333 24.1157 23.0599C23.8824 23.3866 23.5491 23.6399 23.1157 23.8199C22.6891 23.9999 22.1924 24.0899 21.6257 24.0899Z" fill="white"/>
</svg>
