<svg viewBox="0 0 30 30" xmlns="http://www.w3.org/2000/svg">
<path d="M20.6868 12.1516C20.3857 12.1516 20.0912 12.1789 19.8043 12.2258C19.0886 9.88582 16.8719 8.18182 14.2461 8.18182C11.0399 8.18182 8.44246 10.7215 8.44246 13.8535C8.44246 14.1327 8.46428 14.4076 8.50464 14.6782C8.35082 14.6596 8.19591 14.6487 8.03664 14.6487C5.857 14.6487 4.09082 16.3746 4.09082 18.5051C4.09082 20.6356 5.857 22.3636 8.03664 22.3636H12.8181V18H10.0908L14.9999 12.5455L19.909 18H17.1817V22.3636H20.6868C23.5701 22.3636 25.909 20.0771 25.909 17.2582C25.909 14.4371 23.5701 12.1516 20.6868 12.1516Z" />
</svg>
