<svg viewBox="0 0 25 25" xmlns="http://www.w3.org/2000/svg">
<path d="M15.7728 6.13633H9.77277V3.40906H7.95459V20.3182C7.95459 21.0182 8.52641 21.5909 9.2255 21.5909H15.7728C16.4719 21.5909 17.0455 21.0172 17.0455 20.3182V7.40997C17.0455 6.70815 16.4719 6.13633 15.7728 6.13633ZM10.6819 17.0454C10.0537 17.0454 9.5455 16.6391 9.5455 16.1363C9.5455 15.6336 10.0537 15.2272 10.6819 15.2272C11.31 15.2272 11.8182 15.6336 11.8182 16.1363C11.8182 16.6391 11.31 17.0454 10.6819 17.0454ZM11.8182 18.8636C11.8182 19.3663 11.31 19.7727 10.6819 19.7727C10.0537 19.7727 9.5455 19.3663 9.5455 18.8636C9.5455 18.3609 10.0537 17.9545 10.6819 17.9545C11.31 17.9545 11.8182 18.3609 11.8182 18.8636ZM9.77277 13.4091V7.95451H15.2273V13.4091H9.77277ZM14.3182 17.0454C13.69 17.0454 13.1819 16.6391 13.1819 16.1363C13.1819 15.6336 13.69 15.2272 14.3182 15.2272C14.9464 15.2272 15.4546 15.6336 15.4546 16.1363C15.4546 16.6391 14.9464 17.0454 14.3182 17.0454ZM15.4546 18.8636C15.4546 19.3663 14.9464 19.7727 14.3182 19.7727C13.69 19.7727 13.1819 19.3663 13.1819 18.8636C13.1819 18.3609 13.69 17.9545 14.3182 17.9545C14.9464 17.9545 15.4546 18.3609 15.4546 18.8636Z"/>
</svg>
