<svg viewBox="0 0 22 22" xmlns="http://www.w3.org/2000/svg">
<path fill-rule="evenodd" clip-rule="evenodd" d="M15.0001 4.00007H7.00017V6.00012H6.0001V4.00007C6.0001 3.44831 6.44788 3 7.00017 3H15.0001C15.5527 3 16 3.44831 15.9999 4.00007V6.00012H15.0001V4.00007ZM8.00016 15.0003H13V16.0005H8.00016V15.0003ZM13.9998 13.0003H8.00016V14.0004H13.9998V13.0003ZM4.00007 7.00018H18.0001C18.5528 7.00018 19 7.44836 19 8.00015V14.0004C19 14.553 18.5528 15.0003 18.0001 15.0003H16V18.0005C16 18.5533 15.5528 19.0005 15.0001 19.0005H7.0002C6.44791 19.0005 6.00012 18.5533 6.00012 18.0005V15.0003H4.00007C3.44779 15.0003 3 14.553 3 14.0004V8.00015C3 7.44836 3.44779 7.00018 4.00007 7.00018ZM7.0002 18.0005H15.0001V12.0002H7.0002V18.0005ZM16 9.00023C16 9.55301 16.4472 10.0003 16.9999 10.0003C17.5527 10.0003 18.0001 9.55298 18.0001 9.00023C18.0001 8.44847 17.5528 8.00015 16.9999 8.00015C16.4472 8.00015 16 8.4485 16 9.00023Z"/>
</svg>
