<svg viewBox="0 0 14 14" xmlns="http://www.w3.org/2000/svg">
<path d="M9.06667 13V13.5C9.19597 13.5 9.32025 13.4499 9.41341 13.3602L9.06667 13ZM12 10.1765L12.3467 10.5367C12.4447 10.4424 12.5 10.3124 12.5 10.1765H12ZM0.5 2V12H1.5V2H0.5ZM11 0.5H2V1.5H11V0.5ZM2 13.5H9.06667V12.5H2V13.5ZM9.56667 13V11.1765H8.56667V13H9.56667ZM12.5 10.1765V2H11.5V10.1765H12.5ZM10.0667 10.6765H12V9.67647H10.0667V10.6765ZM9.41341 13.3602L12.3467 10.5367L11.6533 9.81624L8.71992 12.6398L9.41341 13.3602ZM9.56667 11.1765C9.56667 10.9003 9.79052 10.6765 10.0667 10.6765V9.67647C9.23824 9.67647 8.56667 10.348 8.56667 11.1765H9.56667ZM11 1.5C11.2761 1.5 11.5 1.72386 11.5 2H12.5C12.5 1.17157 11.8284 0.5 11 0.5V1.5ZM0.5 12C0.5 12.8284 1.17157 13.5 2 13.5V12.5C1.72386 12.5 1.5 12.2761 1.5 12H0.5ZM1.5 2C1.5 1.72386 1.72386 1.5 2 1.5V0.5C1.17157 0.5 0.5 1.17157 0.5 2H1.5Z"/>
<path d="M4 6.5L3.575 6.76338C3.71117 6.98312 3.99239 7.06282 4.22361 6.94721L4 6.5ZM3.3125 5.39062L3.48232 4.92035C3.28215 4.84806 3.05815 4.91042 2.92411 5.07573C2.79008 5.24105 2.77538 5.4731 2.8875 5.65401L3.3125 5.39062ZM5 6L5.22361 6.44721C5.40247 6.35778 5.51085 6.17037 5.49914 5.97074C5.48744 5.7711 5.35791 5.59764 5.16982 5.52972L5 6ZM5.61068 8.29202C5.36344 8.16902 5.06331 8.26975 4.94032 8.51699C4.81732 8.76423 4.91805 9.06436 5.16529 9.18735L5.61068 8.29202ZM8.5 6.5C8.5 7.60457 7.60457 8.5 6.5 8.5V9.5C8.15685 9.5 9.5 8.15685 9.5 6.5H8.5ZM4.5 6.5C4.5 5.39543 5.39543 4.5 6.5 4.5V3.5C4.84315 3.5 3.5 4.84315 3.5 6.5H4.5ZM6.5 4.5C7.60457 4.5 8.5 5.39543 8.5 6.5H9.5C9.5 4.84315 8.15685 3.5 6.5 3.5V4.5ZM4.425 6.23662L3.7375 5.12724L2.8875 5.65401L3.575 6.76338L4.425 6.23662ZM3.14268 5.8609L4.83018 6.47028L5.16982 5.52972L3.48232 4.92035L3.14268 5.8609ZM4.77639 5.55279L3.77639 6.05279L4.22361 6.94721L5.22361 6.44721L4.77639 5.55279ZM6.5 8.5C6.17951 8.5 5.87798 8.42499 5.61068 8.29202L5.16529 9.18735C5.56786 9.38762 6.02152 9.5 6.5 9.5V8.5Z"/>
</svg>
