<svg viewBox="0 0 22 22" xmlns="http://www.w3.org/2000/svg">
<path fill-rule="evenodd" clip-rule="evenodd" d="M10.31 4.757C10.31 4.757 10.314 4.764 10.319 4.782C10.312 4.767 10.309 4.758 10.31 4.757ZM11.824 6.687L11 6.425L10.176 6.687C10.168 6.69 10.155 6.695 10.137 6.703C10.078 6.729 9.978 6.777 9.858 6.851C9.611 7.003 9.329 7.234 9.113 7.564C8.634 8.297 8.635 9.072 8.635 9.38V9.4C8.635 10.049 8.462 11.135 7.933 12.405C7.58 13.255 7.127 14.04 6.786 14.579C7.214 14.645 7.668 14.698 8.045 14.726C8.2 14.738 8.348 14.749 8.49 14.76C9.36 14.827 10.042 14.88 11 14.88C11.958 14.88 12.64 14.827 13.51 14.76C13.652 14.749 13.8 14.738 13.955 14.726C14.332 14.698 14.786 14.645 15.214 14.579C14.872 14.04 14.42 13.255 14.067 12.405C13.538 11.135 13.365 10.049 13.365 9.4V9.38C13.365 9.072 13.366 8.297 12.887 7.564C12.671 7.234 12.389 7.003 12.142 6.851C12.022 6.777 11.922 6.729 11.863 6.703C11.845 6.695 11.832 6.69 11.824 6.687ZM5.791 14.373L5.796 14.376C5.792 14.374 5.791 14.373 5.791 14.373ZM16.209 14.373C16.209 14.373 16.208 14.374 16.204 14.376L16.209 14.373ZM11.681 4.782C11.686 4.764 11.69 4.757 11.69 4.757C11.691 4.758 11.688 4.767 11.681 4.782ZM10.011 3.4C10.467 3 10.888 3 11 3C11.112 3 11.533 3 11.989 3.4C12.446 3.8 12.522 4.6 12.522 4.6C12.522 4.6 13.854 5.023 14.728 6.36C15.572 7.65 15.567 8.982 15.565 9.362V9.4C15.565 9.72 15.665 10.52 16.098 11.56C16.531 12.6 17.163 13.56 17.391 13.88C17.437 13.944 17.488 14.007 17.542 14.072C17.756 14.334 18 14.633 18 15.16C18 15.818 17.62 16.12 17.163 16.36C16.707 16.6 15.185 16.84 14.12 16.92C13.972 16.931 13.828 16.942 13.688 16.953H13.687C12.814 17.021 12.048 17.08 11 17.08C9.952 17.08 9.186 17.021 8.313 16.953H8.312C8.172 16.942 8.028 16.931 7.88 16.92C6.815 16.84 5.293 16.6 4.837 16.36C4.38 16.12 4 15.818 4 15.16C4 14.633 4.244 14.334 4.458 14.072C4.512 14.007 4.563 13.944 4.609 13.88C4.837 13.56 5.469 12.6 5.902 11.56C6.335 10.52 6.435 9.72 6.435 9.4V9.362C6.433 8.982 6.428 7.65 7.272 6.36C8.146 5.023 9.478 4.6 9.478 4.6C9.478 4.6 9.554 3.8 10.011 3.4ZM9.096 17.704C9.096 17.704 9.5 19 11 19C12.5 19 12.905 17.704 12.905 17.704H9.096Z"/>
</svg>
