<svg viewBox="0 0 18 18" xmlns="http://www.w3.org/2000/svg">
<path fill-rule="evenodd" clip-rule="evenodd" d="M4.11641 3.59642C3.97446 3.39236 3.55689 3.2815 2.86366 3.26442C2.65343 3.25314 2.52557 3.24174 2.48017 3.23051L2.45459 2.48048C2.52838 2.47475 2.64202 2.47201 2.79546 2.47201C3.13635 2.47201 3.45456 2.48332 3.74999 2.50601C4.49999 2.54586 4.97155 2.56562 5.16477 2.56562C5.65336 2.56562 6.13058 2.5572 6.59662 2.54013C7.25569 2.51741 7.67053 2.5032 7.84092 2.49753C8.15912 2.49753 8.40339 2.4918 8.57379 2.48045L8.56533 2.59983L8.58235 3.14523V3.22195C8.24145 3.27308 7.88925 3.2986 7.52552 3.2986C7.18462 3.2986 6.96026 3.36962 6.85217 3.51171C6.77835 3.59129 6.74142 3.96622 6.74142 4.63663C6.74142 4.7106 6.74285 4.80275 6.74572 4.91353C6.74856 5.0243 6.75002 5.09678 6.75002 5.13075L6.7587 7.08222L6.87803 9.46842C6.91214 10.173 7.05706 10.7471 7.31267 11.1901C7.51154 11.5254 7.78423 11.7867 8.13079 11.9741C8.63085 12.2413 9.13345 12.3747 9.6393 12.3747C10.2301 12.3747 10.7726 12.2953 11.267 12.1361C11.5853 12.0338 11.8665 11.889 12.1106 11.7016C12.3834 11.4969 12.5681 11.3152 12.6649 11.156C12.8692 10.8379 13.02 10.5139 13.1164 10.1843C13.2357 9.76959 13.2954 9.11926 13.2954 8.23287C13.2954 7.78401 13.2854 7.4204 13.2656 7.14191C13.2458 6.86359 13.2145 6.51556 13.1718 6.09794C13.1291 5.68039 13.0909 5.22735 13.0566 4.73875L13.0226 4.2358C12.9943 3.85511 12.926 3.6052 12.8181 3.48589C12.6249 3.28699 12.4061 3.19036 12.162 3.19604L11.3097 3.21305L11.1903 3.18756L11.2074 2.45454H11.9233L13.6704 2.53974C14.1022 2.55675 14.659 2.52842 15.3408 2.45454L15.4943 2.47159C15.5285 2.68738 15.5453 2.83231 15.5453 2.90616C15.5453 2.94601 15.5342 3.03407 15.5112 3.17039C15.2556 3.23845 15.017 3.2755 14.7953 3.28117C14.3805 3.34368 14.1562 3.39207 14.122 3.42613C14.0368 3.51126 13.9941 3.62783 13.9941 3.77556C13.9941 3.81538 13.9984 3.89195 14.007 4.00565C14.0153 4.11926 14.0197 4.20735 14.0197 4.26977C14.0651 4.37774 14.1278 5.50266 14.2072 7.64478C14.2413 8.75263 14.1986 9.61658 14.0793 10.2358C13.9941 10.6673 13.8774 11.014 13.7297 11.2753C13.5139 11.6447 13.1959 11.9942 12.7752 12.3236C12.3492 12.6475 11.8321 12.9004 11.2243 13.0822C10.6048 13.2698 9.88031 13.3633 9.05086 13.3633C8.10208 13.3633 7.29527 13.2327 6.6305 12.9714C5.95444 12.7045 5.44582 12.3577 5.10504 11.9316C4.75847 11.4999 4.52271 10.9458 4.39757 10.2697C4.30668 9.81514 4.26131 9.14195 4.26131 8.24983V5.41173C4.26131 4.34362 4.21295 3.73863 4.11641 3.59642ZM2.72728 14.4547H15.2723C15.352 14.4547 15.4174 14.4803 15.4685 14.5315C15.5195 14.5826 15.545 14.6479 15.545 14.7275V15.2728C15.545 15.3525 15.5195 15.4178 15.4685 15.4689C15.4174 15.52 15.352 15.5455 15.2723 15.5455H2.72728C2.64763 15.5455 2.58238 15.52 2.53125 15.4689C2.48017 15.4178 2.45459 15.3525 2.45459 15.2728V14.7275C2.45459 14.6479 2.48005 14.5826 2.53125 14.5315C2.58238 14.4802 2.64775 14.4547 2.72728 14.4547Z" />
</svg>
