<svg viewBox="0 0 22 22" xmlns="http://www.w3.org/2000/svg">
<path d="M7.91455 19C6.86045 19 5.87319 18.5469 5.16067 17.8245C3.77883 16.4236 3.39404 13.9787 5.33105 12.0154C6.46505 10.8659 11.01 6.25768 13.278 3.95803C14.0835 3.14169 15.1082 2.82576 16.089 3.09271C17.0534 3.35394 17.8426 4.15477 18.101 5.13194C18.3635 6.12788 18.0529 7.16708 17.2483 7.98343L9.64776 15.6897C9.21405 16.1297 8.72327 16.3901 8.23087 16.4424C7.74254 16.4946 7.27703 16.3363 6.95094 16.0056C6.3607 15.4048 6.27592 14.2774 7.2591 13.2815L12.5973 7.86914C12.8166 7.64709 13.172 7.64709 13.3913 7.86914C13.6106 8.09119 13.6106 8.45201 13.3913 8.67406L8.05233 14.0872C7.5909 14.5542 7.54851 15.0007 7.74498 15.2007C7.8314 15.2873 7.96184 15.3273 8.11266 15.3101C8.34337 15.2864 8.60669 15.1338 8.85371 14.8848L16.4542 7.17933C16.976 6.65034 17.1757 6.02828 17.0167 5.42827C16.8602 4.83642 16.3825 4.35233 15.7996 4.19314C15.2077 4.03232 14.593 4.23559 14.0713 4.76458C11.8033 7.06504 7.2591 11.6725 6.12428 12.8219C4.64381 14.3232 4.99844 16.0514 5.9539 17.0204C6.91018 17.9894 8.61321 18.3502 10.0945 16.8473L18.0415 8.78998C18.2608 8.56793 18.6162 8.56793 18.8355 8.78998C19.0548 9.01202 19.0548 9.37285 18.8355 9.59571L10.8886 17.653C9.95184 18.6016 8.90263 19 7.91455 19Z"/>
</svg>
