<svg viewBox="0 0 22 22" xmlns="http://www.w3.org/2000/svg">
<path d="M18.4771 10.1484C18.1635 9.77867 16.6467 8.12978 15.9541 7.37689C15.7416 7.14667 15.4378 7 15.1194 7H6.87984C6.56144 7 6.25759 7.14667 6.04506 7.37689C5.35169 8.12978 3.83567 9.77778 3.52213 10.1484C3.13019 10.6116 2.93786 10.9502 3.01786 11.4364C3.09787 11.9227 3.39445 13.7956 3.46718 14.1689C3.53829 14.5413 4.01992 15 4.46924 15H17.53C17.9793 15 18.4609 14.5413 18.5328 14.1689C18.6047 13.7956 18.9021 11.9227 18.9821 11.4364C19.0621 10.9502 18.8698 10.6107 18.4771 10.1484ZM14.2434 10.5582C14.1617 10.5582 14.0874 10.6044 14.051 10.6764L13.3965 12.3333H8.60273L7.94897 10.6764C7.9126 10.6044 7.83826 10.5582 7.75664 10.5582H4.91693L6.55093 8.77778H15.4483L17.0831 10.5582H14.2434Z" />
</svg>
