<svg viewBox="0 0 22 22" xmlns="http://www.w3.org/2000/svg">
<path d="M17.8736 4.12588C16.5627 2.81406 15.5782 3.01042 15.5782 3.01042L10.0763 8.51223L3.91818 14.6695L3 18.9986L7.32999 18.0804L13.4882 11.9249L18.99 6.42314C18.989 6.42314 19.1863 5.4386 17.8736 4.12588ZM7.07272 17.5604L5.59636 17.8786C5.45454 17.6122 5.28272 17.3458 4.96909 17.0313C4.65454 16.7168 4.38818 16.5468 4.12182 16.4031L4.44 14.9277L4.86727 14.5013C4.86727 14.5013 5.66999 14.5177 6.57726 15.4249C7.48363 16.3304 7.5009 17.1349 7.5009 17.1349L7.07272 17.5604Z" />
</svg>
