<svg viewBox="0 0 18 18" fill="none" xmlns="http://www.w3.org/2000/svg">
<path fill-rule="evenodd" clip-rule="evenodd" d="M12.1184 13.4407C11.1132 14.1763 9.87362 14.6106 8.53259 14.6106C5.17579 14.6106 2.45456 11.8894 2.45456 8.53258C2.45456 5.17577 5.17579 2.45455 8.53259 2.45455C11.8894 2.45455 14.6106 5.17577 14.6106 8.53258C14.6106 9.87378 14.1762 11.1135 13.4404 12.1188C13.4461 12.1242 13.4518 12.1297 13.4574 12.1353L15.2716 13.9495C15.6368 14.3147 15.6368 14.9067 15.2716 15.2719C14.9064 15.6371 14.3144 15.6371 13.9492 15.2719L12.135 13.4577C12.1294 13.4521 12.1238 13.4464 12.1184 13.4407ZM12.874 8.53258C12.874 10.9303 10.9303 12.874 8.53259 12.874C6.13488 12.874 4.19114 10.9303 4.19114 8.53258C4.19114 6.13486 6.13488 4.19113 8.53259 4.19113C10.9303 4.19113 12.874 6.13486 12.874 8.53258Z"/>
</svg>
