<svg viewBox="0 0 22 22" xmlns="http://www.w3.org/2000/svg">
<path d="M11.0004 3C6.58148 3 3 6.58148 3 10.9996C3 15.4185 6.58148 19 11.0004 19C15.4177 19 19 15.4185 19 10.9996C19 6.58148 15.4177 3 11.0004 3ZM10.9996 17.3326C7.50226 17.3326 4.66658 14.4977 4.66658 10.9996C4.66658 7.50227 7.50143 4.66658 10.9996 4.66658C14.4969 4.66658 17.3334 7.50143 17.3334 10.9996C17.3334 14.4969 14.4969 17.3326 10.9996 17.3326ZM12 6H10.3334V11.2039L7.37857 12.9105L8.21186 14.3537L11.6409 12.373C11.8392 12.2588 12 11.9789 12 11.7497C12 8.90718 12 9.70745 12 6Z" />
</svg>
