<svg viewBox="0 0 22 22" xmlns="http://www.w3.org/2000/svg">
<path d="M11 3C6.58167 3 3 6.58167 3 11C3 15.4183 6.58167 19 11 19C15.4175 19 19 15.4183 19 10.9992C19 6.58167 15.4175 3 11 3ZM11 17.3325C7.5025 17.3325 4.66667 14.4975 4.66667 10.9992C4.66667 7.50083 7.50167 4.66667 11 4.66667C14.4975 4.66667 17.3342 7.50167 17.3342 11C17.3342 14.4983 14.4975 17.3325 11 17.3325ZM8.9175 10.7917C9.6075 10.7917 10.1667 10.1392 10.1667 9.33333C10.1667 8.5275 9.60667 7.875 8.91667 7.875C8.22667 7.875 7.66667 8.5275 7.66667 9.33333C7.66667 10.1392 8.22667 10.7917 8.9175 10.7917ZM13.0833 10.7917C13.7742 10.7917 14.3333 10.1392 14.3333 9.33333C14.3333 8.5275 13.7733 7.875 13.0833 7.875C12.3933 7.875 11.8333 8.52833 11.8333 9.33333C11.8333 10.1383 12.3933 10.7917 13.0833 10.7917ZM14.6175 12.1133C14.315 11.9583 13.9383 12.0775 13.7775 12.38C13.7492 12.435 13.0533 13.7075 11.0008 13.7075C8.95833 13.7075 8.25833 12.4467 8.22333 12.3808C8.06667 12.0767 7.69667 11.9525 7.38667 12.1067C7.07833 12.2617 6.95333 12.6367 7.1075 12.9458C7.14917 13.0283 8.1475 14.9575 11.0008 14.9575C13.855 14.9575 14.8517 13.0275 14.8925 12.945C15.0458 12.6392 14.9225 12.27 14.6175 12.1133Z"/>
</svg>
