<svg viewBox="0 0 22 22" xmlns="http://www.w3.org/2000/svg">
<path d="M6.62499 15.1205C4.41825 12.7479 4.45728 9.02903 6.74987 6.71985C7.68837 5.77452 8.861 5.21064 10.0805 5.02626L10.0132 3C8.30102 3.2078 6.64548 3.97167 5.33334 5.29357C2.26126 8.38613 2.22419 13.3801 5.21334 16.5429L3.51487 18.2521L8.89027 18.5457L8.87564 12.8542L6.62499 15.1205ZM13.1096 3.45364L13.1242 9.14512L15.3749 6.87985C17.5816 9.25438 17.5426 12.9733 15.25 15.2805C14.3125 16.2258 13.1389 16.7897 11.9194 16.9741L11.9867 18.9994C13.6989 18.7916 15.3544 18.0277 16.6675 16.7068C19.7386 13.6123 19.7757 8.61831 16.7865 5.45746L18.485 3.74631L13.1096 3.45364Z" />
</svg>
