<svg viewBox="0 0 22 22" xmlns="http://www.w3.org/2000/svg">
<path fill-rule="evenodd" clip-rule="evenodd" d="M11.0002 4.4C9.78087 4.4 8.7924 5.38848 8.7924 6.60782V8.84119H13.208V6.60782C13.208 5.38848 12.2196 4.4 11.0002 4.4ZM14.608 8.84119V6.60782C14.608 4.61528 12.9928 3 11.0002 3C9.00767 3 7.3924 4.61528 7.3924 6.60782V8.84119H6.69994C5.20877 8.84119 3.99994 10.05 3.99994 11.5412V16.303C3.99994 17.7941 5.20877 19.003 6.69994 19.003H15.3005C16.7917 19.003 18.0005 17.7941 18.0005 16.303V11.5412C18.0005 10.05 16.7917 8.84119 15.3005 8.84119H14.608ZM6.69994 10.2412C5.98197 10.2412 5.39994 10.8232 5.39994 11.5412V16.303C5.39994 17.021 5.98197 17.603 6.69994 17.603H15.3005C16.0185 17.603 16.6005 17.021 16.6005 16.303V11.5412C16.6005 10.8232 16.0185 10.2412 15.3005 10.2412H13.908H8.0924H6.69994ZM14.6882 14.6887C15.1166 14.6887 15.464 14.34 15.464 13.9099C15.464 13.4798 15.1166 13.1311 14.6882 13.1311C14.2598 13.1311 13.9125 13.4798 13.9125 13.9099C13.9125 14.34 14.2598 14.6887 14.6882 14.6887ZM10.5494 13.9099C10.5494 14.34 10.2021 14.6887 9.77368 14.6887C9.34526 14.6887 8.99795 14.34 8.99795 13.9099C8.99795 13.4798 9.34526 13.1311 9.77368 13.1311C10.2021 13.1311 10.5494 13.4798 10.5494 13.9099ZM7.31792 14.6887C7.74634 14.6887 8.09365 14.3401 8.09365 13.9099C8.09365 13.4798 7.74634 13.1311 7.31792 13.1311C6.8895 13.1311 6.54219 13.4798 6.54219 13.9099C6.54219 14.3401 6.8895 14.6887 7.31792 14.6887ZM13.0064 13.9099C13.0064 14.34 12.6591 14.6887 12.2307 14.6887C11.8023 14.6887 11.455 14.34 11.455 13.9099C11.455 13.4798 11.8023 13.1311 12.2307 13.1311C12.6591 13.1311 13.0064 13.4798 13.0064 13.9099Z" />
</svg>
