<svg viewBox="0 0 22 22" xmlns="http://www.w3.org/2000/svg">
<path d="M17.4583 10.999C17.4583 10.0001 18.0734 9.21355 18.9981 8.67266C18.8305 8.11653 18.6105 7.58231 18.3391 7.08047C17.3021 7.35186 16.4632 6.9462 15.7575 6.23961C15.0519 5.53494 14.8357 4.69599 15.1071 3.65802C14.6053 3.38662 14.0711 3.16474 13.5149 3C12.9741 3.9237 11.9961 4.53791 10.999 4.53791C10.0011 4.53791 9.02404 3.9237 8.4822 3C7.92513 3.16474 7.39281 3.38662 6.89097 3.65802C7.16236 4.69599 6.94715 5.53494 6.23961 6.23961C5.53494 6.9462 4.69599 7.35186 3.65802 7.08047C3.38662 7.58231 3.16569 8.11653 3 8.67266C3.9237 9.21355 4.53791 10.0001 4.53791 10.999C4.53791 11.9961 3.9237 12.974 3 13.5159C3.16665 14.072 3.38662 14.6053 3.65802 15.1081C4.69599 14.8367 5.53494 15.0519 6.23961 15.7575C6.94524 16.4641 7.16236 17.3031 6.89097 18.3391C7.39281 18.6105 7.92608 18.8324 8.48316 18.999C9.02404 18.0725 10.002 17.4592 11 17.4592C11.997 17.4592 12.975 18.0734 13.5168 18.999C14.073 18.8314 14.6062 18.6105 15.109 18.3391C14.8376 17.3031 15.0528 16.4641 15.7594 15.7575C16.4651 15.0528 17.304 14.6472 18.341 14.9167C18.6124 14.4148 18.8334 13.8825 19 13.3245C18.0734 12.7826 17.4583 11.9961 17.4583 10.999ZM10.999 14.4767C9.07737 14.4767 7.52041 12.9198 7.52041 10.999C7.52041 9.07737 9.07832 7.51946 10.999 7.51946C12.9207 7.51946 14.4767 9.07832 14.4767 10.999C14.4767 12.9207 12.9207 14.4767 10.999 14.4767Z"/>
</svg>
