<svg viewBox="0 0 22 22" xmlns="http://www.w3.org/2000/svg">
<path fill-rule="evenodd" clip-rule="evenodd" d="M8.33333 3H4.33333C3.596 3 3 3.596 3 4.33333V8.33333C3 9.06933 3.596 9.66667 4.33333 9.66667H8.33333C9.07067 9.66667 9.66667 9.06933 9.66667 8.33333V4.33333C9.66667 3.59733 9.07067 3 8.33333 3ZM17.6667 3H13.6667C12.9293 3 12.3333 3.596 12.3333 4.33333V8.33333C12.3333 9.06933 12.9293 9.66667 13.6667 9.66667H17.6667C18.404 9.66667 19 9.06933 19 8.33333V4.33333C19 3.59733 18.404 3 17.6667 3ZM8.33333 12.3333H4.33333C3.596 12.3333 3 12.9293 3 13.6667V17.6667C3 18.4027 3.596 19 4.33333 19H8.33333C9.07067 19 9.66667 18.4027 9.66667 17.6667V13.6667C9.66667 12.9307 9.07067 12.3333 8.33333 12.3333ZM17.6667 12.3333H13.6667C12.9293 12.3333 12.3333 12.9293 12.3333 13.6667V17.6667C12.3333 18.4027 12.9293 19 13.6667 19H17.6667C18.404 19 19 18.4027 19 17.6667V13.6667C19 12.9307 18.404 12.3333 17.6667 12.3333Z" />
</svg>
