<svg viewBox="0 0 42 42" xmlns="http://www.w3.org/2000/svg">
<path fill-rule="evenodd" clip-rule="evenodd" d="M9.54541 6.36943V35.8611C9.54541 36.1224 9.83734 36.2742 10.0473 36.1222L12.8597 34.0858C13.079 33.9271 13.3735 33.9258 13.5941 34.0828L16.415 36.0907C16.747 36.327 17.1906 36.3243 17.5197 36.084L20.2487 34.0908C20.4697 33.9294 20.7677 33.9288 20.9894 34.0893L23.7566 36.0928C24.0822 36.3286 24.5188 36.333 24.8489 36.1038L27.7776 34.0709C27.9947 33.9202 28.2811 33.9208 28.4975 34.0723L31.4476 36.1372C31.6581 36.2845 31.9454 36.132 31.9454 35.8731V6.36943C31.9454 6.01479 31.6613 5.72729 31.3109 5.72729H10.18C9.82951 5.72729 9.54541 6.01479 9.54541 6.36943ZM12.9721 12.2771C12.9721 11.9225 13.2562 11.635 13.6066 11.635H22.0463C22.3968 11.635 22.6808 11.9225 22.6808 12.2771C22.6808 12.6318 22.3968 12.9193 22.0463 12.9193H13.6066C13.2562 12.9193 12.9721 12.6318 12.9721 12.2771ZM12.9721 14.942C12.9721 14.5873 13.2562 14.2998 13.6066 14.2998H20.1744C20.5248 14.2998 20.8089 14.5873 20.8089 14.942C20.8089 15.2966 20.5248 15.5841 20.1744 15.5841H13.6066C13.2562 15.5841 12.9721 15.2966 12.9721 14.942ZM12.9721 18.4737C12.9721 18.1191 13.2562 17.8316 13.6066 17.8316H22.0463C22.3968 17.8316 22.6808 18.1191 22.6808 18.4737C22.6808 18.8284 22.3968 19.1159 22.0463 19.1159H13.6066C13.2562 19.1159 12.9721 18.8284 12.9721 18.4737ZM12.9721 21.2028C12.9721 20.8481 13.2562 20.5607 13.6066 20.5607H20.1744C20.5248 20.5607 20.8089 20.8481 20.8089 21.2028C20.8089 21.5575 20.5248 21.8449 20.1744 21.8449H13.6066C13.2562 21.8449 12.9721 21.5575 12.9721 21.2028ZM12.9721 24.7345C12.9721 24.3799 13.2562 24.0925 13.6066 24.0925H22.0463C22.3968 24.0925 22.6808 24.3799 22.6808 24.7345C22.6808 25.0891 22.3968 25.3767 22.0463 25.3767H13.6066C13.2562 25.3767 12.9721 25.0891 12.9721 24.7345ZM12.9721 27.4636C12.9721 27.109 13.2562 26.8215 13.6066 26.8215H20.1744C20.5248 26.8215 20.8089 27.109 20.8089 27.4636C20.8089 27.8183 20.5248 28.1057 20.1744 28.1057H13.6066C13.2562 28.1057 12.9721 27.8183 12.9721 27.4636ZM24.8542 12.2771C24.8542 11.9225 25.1384 11.635 25.4888 11.635H28.1381C28.4886 11.635 28.7726 11.9225 28.7726 12.2771C28.7726 12.6318 28.4886 12.9193 28.1381 12.9193H25.4888C25.1384 12.9193 24.8542 12.6318 24.8542 12.2771ZM25.4888 14.2998C25.1384 14.2998 24.8542 14.5873 24.8542 14.942C24.8542 15.2966 25.1384 15.5841 25.4888 15.5841H28.1381C28.4886 15.5841 28.7726 15.2966 28.7726 14.942C28.7726 14.5873 28.4886 14.2998 28.1381 14.2998H25.4888ZM24.8542 18.4737C24.8542 18.1191 25.1384 17.8316 25.4888 17.8316H28.1381C28.4886 17.8316 28.7726 18.1191 28.7726 18.4737C28.7726 18.8284 28.4886 19.1159 28.1381 19.1159H25.4888C25.1384 19.1159 24.8542 18.8284 24.8542 18.4737ZM25.4888 20.5607C25.1384 20.5607 24.8542 20.8481 24.8542 21.2027C24.8542 21.5575 25.1384 21.8449 25.4888 21.8449H28.1381C28.4886 21.8449 28.7726 21.5575 28.7726 21.2027C28.7726 20.8481 28.4886 20.5607 28.1381 20.5607H25.4888ZM24.8542 24.7346C24.8542 24.3799 25.1384 24.0925 25.4888 24.0925H28.1381C28.4886 24.0925 28.7726 24.3799 28.7726 24.7346C28.7726 25.0892 28.4886 25.3767 28.1381 25.3767H25.4888C25.1384 25.3767 24.8542 25.0892 24.8542 24.7346ZM25.4888 26.8215C25.1384 26.8215 24.8542 27.1091 24.8542 27.4637C24.8542 27.8183 25.1384 28.1057 25.4888 28.1057H28.1381C28.4886 28.1057 28.7726 27.8183 28.7726 27.4637C28.7726 27.1091 28.4886 26.8215 28.1381 26.8215H25.4888Z" />
</svg>
