<svg viewBox="0 0 18 18" xmlns="http://www.w3.org/2000/svg">
<path fill-rule="evenodd" clip-rule="evenodd" d="M13.0596 2.47589C12.8608 2.49016 12.6675 2.50302 12.48 2.51431C11.6391 2.56532 11.031 2.59096 10.6561 2.59096C10.4629 2.59096 10.2555 2.5852 10.034 2.57392L7.3324 2.45454L7.17043 3.3324C7.2272 3.34368 7.3352 3.35515 7.49431 3.36652C8.07945 3.40049 8.48859 3.48013 8.72154 3.60512V3.929L8.65336 4.35503L8.4659 5.50561L8.32948 6.04257L8.08231 7.3806C8.08231 7.38636 8.07234 7.41905 8.05246 7.47873C8.03259 7.53833 8.00697 7.62496 7.9758 7.73857C7.9445 7.85228 7.90906 7.9844 7.86921 8.13493C7.82936 8.28544 7.78396 8.47586 7.73279 8.70598C7.68165 8.93604 7.63332 9.17616 7.58792 9.42611L7.48559 9.97161L7.0084 12.2557L6.77825 13.4401C6.71003 13.8039 6.59364 14.0909 6.42887 14.3009C6.20158 14.4146 5.87203 14.5253 5.44021 14.6335C5.02546 14.7413 4.80674 14.7982 4.78403 14.8039L4.63916 15.5284C4.77543 15.5171 5.05382 15.4916 5.47433 15.4516C6.23 15.3835 6.7243 15.3523 6.9572 15.3579L8.64474 15.3748C9.36053 15.4489 9.77241 15.497 9.88029 15.5199C9.98827 15.5368 10.0679 15.5455 10.1189 15.5455C10.2213 15.5455 10.3405 15.5398 10.4769 15.5284C10.5053 15.5228 10.5707 15.5199 10.6729 15.5199C10.6842 15.4632 10.7098 15.3466 10.7496 15.1704C10.7835 15.0056 10.8034 14.8408 10.8093 14.676C10.6387 14.6476 10.4513 14.6192 10.2466 14.5909C9.93429 14.5569 9.59606 14.4971 9.23238 14.412C9.21555 14.2983 9.21264 14.2216 9.22399 14.1818L9.32638 13.7984L9.6929 11.7956L10.0167 10.449L10.5367 7.79843C10.6616 7.19045 10.8491 6.32128 11.0993 5.19047C11.1221 4.97459 11.1588 4.7416 11.2101 4.49157C11.2782 4.16775 11.3466 3.9178 11.4146 3.74157C11.6249 3.6564 11.9119 3.56837 12.2754 3.47744C12.5825 3.40936 12.892 3.32127 13.2044 3.21332C13.2386 3.08831 13.2757 2.94344 13.3153 2.77867C13.3382 2.67063 13.3552 2.56275 13.3664 2.45484C13.3608 2.45463 13.2584 2.46171 13.0596 2.47589Z"/>
</svg>
