<svg viewBox="0 0 30 30" xmlns="http://www.w3.org/2000/svg">
<path d="M4.44593 19.4293C3.97257 19.9027 3.97257 20.6702 4.44593 21.1435C4.9193 21.6168 5.68676 21.6168 6.16013 21.1435L4.44593 19.4293ZM11.4134 14.176L12.2705 13.3189C11.7972 12.8456 11.0297 12.8456 10.5563 13.3189L11.4134 14.176ZM15.6642 18.4267L14.8071 19.2838C15.2804 19.7572 16.0479 19.7572 16.5213 19.2838L15.6642 18.4267ZM23.96 11.8451C24.4334 11.3717 24.4334 10.6042 23.96 10.1309C23.4866 9.65752 22.7191 9.65752 22.2458 10.1309L23.96 11.8451ZM22.0402 9.92531L21.8025 8.73672C21.3642 8.82439 21.0097 9.14621 20.8801 9.57405C20.7506 10.0019 20.867 10.4663 21.1831 10.7824L22.0402 9.92531ZM24.1655 12.0507L23.3084 12.9078C23.6246 13.2239 24.0891 13.3403 24.5168 13.2108C24.9447 13.0812 25.2665 12.7267 25.3541 12.2884L24.1655 12.0507ZM24.6969 9.39396L25.8855 9.63168C25.965 9.23427 25.8406 8.82344 25.554 8.53686C25.2675 8.25029 24.8566 8.1259 24.4592 8.20538L24.6969 9.39396ZM6.16013 21.1435L12.2705 15.0331L10.5563 13.3189L4.44593 19.4293L6.16013 21.1435ZM10.5563 15.0331L14.8071 19.2838L16.5213 17.5696L12.2705 13.3189L10.5563 15.0331ZM16.5213 19.2838L23.96 11.8451L22.2458 10.1309L14.8071 17.5696L16.5213 19.2838ZM21.1831 10.7824L23.3084 12.9078L25.0227 11.1936L22.8973 9.0682L21.1831 10.7824ZM25.3541 12.2884L25.8855 9.63168L23.5083 9.15625L22.9771 11.8129L25.3541 12.2884ZM24.4592 8.20538L21.8025 8.73672L22.2779 11.1139L24.9346 10.5825L24.4592 8.20538Z"/>
</svg>
