<svg width="228" height="148" viewBox="0 0 228 148" fill="none" xmlns="http://www.w3.org/2000/svg">
<circle cx="4" cy="4" r="4" fill="#EAEDF0"/>
<circle cx="24" cy="4" r="4" fill="#EAEDF0"/>
<circle cx="44" cy="4" r="4" fill="#EAEDF0"/>
<circle cx="64" cy="4" r="4" fill="#EAEDF0"/>
<circle cx="84" cy="4" r="4" fill="#EAEDF0"/>
<circle cx="104" cy="4" r="4" fill="#EAEDF0"/>
<circle cx="124" cy="4" r="4" fill="#EAEDF0"/>
<circle cx="144" cy="4" r="4" fill="#EAEDF0"/>
<circle cx="164" cy="4" r="4" fill="#EAEDF0"/>
<circle cx="184" cy="4" r="4" fill="#EAEDF0"/>
<circle cx="204" cy="4" r="4" fill="#EAEDF0"/>
<circle cx="224" cy="4" r="4" fill="#EAEDF0"/>
<circle cx="4" cy="24" r="4" fill="#EAEDF0"/>
<circle cx="24" cy="24" r="4" fill="#EAEDF0"/>
<circle cx="44" cy="24" r="4" fill="#EAEDF0"/>
<circle cx="64" cy="24" r="4" fill="#EAEDF0"/>
<circle cx="84" cy="24" r="4" fill="#EAEDF0"/>
<circle cx="104" cy="24" r="4" fill="#EAEDF0"/>
<circle cx="124" cy="24" r="4" fill="#EAEDF0"/>
<circle cx="144" cy="24" r="4" fill="#EAEDF0"/>
<circle cx="164" cy="24" r="4" fill="#EAEDF0"/>
<circle cx="184" cy="24" r="4" fill="#EAEDF0"/>
<circle cx="204" cy="24" r="4" fill="#EAEDF0"/>
<circle cx="224" cy="24" r="4" fill="#EAEDF0"/>
<circle cx="4" cy="44" r="4" fill="#EAEDF0"/>
<circle cx="24" cy="44" r="4" fill="#EAEDF0"/>
<circle cx="44" cy="44" r="4" fill="#EAEDF0"/>
<circle cx="64" cy="44" r="4" fill="#EAEDF0"/>
<circle cx="84" cy="44" r="4" fill="#EAEDF0"/>
<circle cx="104" cy="44" r="4" fill="#EAEDF0"/>
<circle cx="124" cy="44" r="4" fill="#EAEDF0"/>
<circle cx="144" cy="44" r="4" fill="#EAEDF0"/>
<circle cx="164" cy="44" r="4" fill="#EAEDF0"/>
<circle cx="184" cy="44" r="4" fill="#EAEDF0"/>
<circle cx="204" cy="44" r="4" fill="#EAEDF0"/>
<circle cx="224" cy="44" r="4" fill="#EAEDF0"/>
<circle cx="4" cy="64" r="4" fill="#EAEDF0"/>
<circle cx="24" cy="64" r="4" fill="#EAEDF0"/>
<circle cx="44" cy="64" r="4" fill="#EAEDF0"/>
<circle cx="64" cy="64" r="4" fill="#EAEDF0"/>
<circle cx="84" cy="64" r="4" fill="#EAEDF0"/>
<circle cx="104" cy="64" r="4" fill="#EAEDF0"/>
<circle cx="124" cy="64" r="4" fill="#EAEDF0"/>
<circle cx="144" cy="64" r="4" fill="#EAEDF0"/>
<circle cx="164" cy="64" r="4" fill="#EAEDF0"/>
<circle cx="184" cy="64" r="4" fill="#EAEDF0"/>
<circle cx="204" cy="64" r="4" fill="#EAEDF0"/>
<circle cx="224" cy="64" r="4" fill="#EAEDF0"/>
<circle cx="4" cy="84" r="4" fill="#EAEDF0"/>
<circle cx="24" cy="84" r="4" fill="#EAEDF0"/>
<circle cx="44" cy="84" r="4" fill="#EAEDF0"/>
<circle cx="64" cy="84" r="4" fill="#EAEDF0"/>
<circle cx="84" cy="84" r="4" fill="#EAEDF0"/>
<circle cx="104" cy="84" r="4" fill="#EAEDF0"/>
<circle cx="124" cy="84" r="4" fill="#EAEDF0"/>
<circle cx="144" cy="84" r="4" fill="#EAEDF0"/>
<circle cx="164" cy="84" r="4" fill="#EAEDF0"/>
<circle cx="184" cy="84" r="4" fill="#EAEDF0"/>
<circle cx="204" cy="84" r="4" fill="#EAEDF0"/>
<circle cx="224" cy="84" r="4" fill="#EAEDF0"/>
<circle cx="4" cy="104" r="4" fill="#EAEDF0"/>
<circle cx="24" cy="104" r="4" fill="#EAEDF0"/>
<circle cx="44" cy="104" r="4" fill="#EAEDF0"/>
<circle cx="64" cy="104" r="4" fill="#EAEDF0"/>
<circle cx="84" cy="104" r="4" fill="#EAEDF0"/>
<circle cx="104" cy="104" r="4" fill="#EAEDF0"/>
<circle cx="124" cy="104" r="4" fill="#EAEDF0"/>
<circle cx="144" cy="104" r="4" fill="#EAEDF0"/>
<circle cx="164" cy="104" r="4" fill="#EAEDF0"/>
<circle cx="184" cy="104" r="4" fill="#EAEDF0"/>
<circle cx="204" cy="104" r="4" fill="#EAEDF0"/>
<circle cx="224" cy="104" r="4" fill="#EAEDF0"/>
<circle cx="4" cy="124" r="4" fill="#EAEDF0"/>
<circle cx="24" cy="124" r="4" fill="#EAEDF0"/>
<circle cx="44" cy="124" r="4" fill="#EAEDF0"/>
<circle cx="64" cy="124" r="4" fill="#EAEDF0"/>
<circle cx="84" cy="124" r="4" fill="#EAEDF0"/>
<circle cx="104" cy="124" r="4" fill="#EAEDF0"/>
<circle cx="124" cy="124" r="4" fill="#EAEDF0"/>
<circle cx="144" cy="124" r="4" fill="#EAEDF0"/>
<circle cx="164" cy="124" r="4" fill="#EAEDF0"/>
<circle cx="184" cy="124" r="4" fill="#EAEDF0"/>
<circle cx="204" cy="124" r="4" fill="#EAEDF0"/>
<circle cx="224" cy="124" r="4" fill="#EAEDF0"/>
<circle cx="4" cy="144" r="4" fill="#EAEDF0"/>
<circle cx="24" cy="144" r="4" fill="#EAEDF0"/>
<circle cx="44" cy="144" r="4" fill="#EAEDF0"/>
<circle cx="64" cy="144" r="4" fill="#EAEDF0"/>
<circle cx="84" cy="144" r="4" fill="#EAEDF0"/>
<circle cx="104" cy="144" r="4" fill="#EAEDF0"/>
<circle cx="124" cy="144" r="4" fill="#EAEDF0"/>
<circle cx="144" cy="144" r="4" fill="#EAEDF0"/>
<circle cx="164" cy="144" r="4" fill="#EAEDF0"/>
<circle cx="184" cy="144" r="4" fill="#EAEDF0"/>
<circle cx="204" cy="144" r="4" fill="#EAEDF0"/>
<circle cx="224" cy="144" r="4" fill="#EAEDF0"/>
</svg>
