<svg width="22" height="22" viewBox="0 0 22 22" fill="none" xmlns="http://www.w3.org/2000/svg">
<path d="M10.9999 20.9998C16.5227 20.9998 20.9998 16.5227 20.9998 10.9999C20.9998 5.47712 16.5227 1 10.9999 1C5.47712 1 1 5.47712 1 10.9999C1 16.5227 5.47712 20.9998 10.9999 20.9998Z" fill="#FFD93B"/>
<path d="M20.9998 10.9996C20.9998 16.5246 16.5217 20.9996 10.9999 20.9996C7.85615 20.9996 5.04993 19.5496 3.21558 17.2777C4.93118 18.6652 7.11554 19.4933 9.49364 19.4933C15.0155 19.4933 19.4935 15.0184 19.4935 9.49341C19.4935 7.1153 18.6654 4.93094 17.2779 3.21533C19.5467 5.04969 20.9998 7.85592 20.9998 10.9996Z" fill="#F4C534"/>
<path d="M17.8477 13.6285C17.1102 16.7285 14.329 19.041 10.9978 19.041C7.66657 19.041 4.88534 16.7285 4.14785 13.6223C4.0916 13.3848 4.31035 13.1785 4.5416 13.2473C8.87906 14.541 13.1853 14.566 17.454 13.2535C17.6915 13.1785 17.904 13.391 17.8477 13.6285Z" fill="#3E4347"/>
<path d="M10.5959 16.419C8.03588 16.419 6.21215 15.6658 6.56714 17.4458C6.56902 17.4552 6.57277 17.464 6.57464 17.4733C7.78276 18.4527 9.32025 19.0402 10.9984 19.0402C12.6765 19.0402 14.214 18.4521 15.4221 17.474C15.424 17.464 15.4277 17.4552 15.4296 17.4458C15.7846 15.6658 13.1565 16.419 10.5959 16.419Z" fill="#E24B4B"/>
<path d="M4.64185 13.2729C5.01997 14.6292 7.7137 15.6754 10.9855 15.6754C14.2455 15.6754 16.9305 14.6367 17.3242 13.2873C13.1312 14.5498 8.90181 14.5242 4.64185 13.2729Z" fill="white"/>
<path d="M15.1715 13.2293C17.2954 13.2293 19.0171 11.5075 19.0171 9.38368C19.0171 7.25982 17.2954 5.53809 15.1715 5.53809C13.0477 5.53809 11.3259 7.25982 11.3259 9.38368C11.3259 11.5075 13.0477 13.2293 15.1715 13.2293Z" fill="#F4C534"/>
<path d="M18.4635 9.38374C18.3622 11.2131 16.8072 12.695 14.9891 12.695C13.1716 12.695 11.7748 11.2125 11.876 9.38374C11.9773 7.55438 13.5385 6.06689 15.356 6.06689C17.1735 6.06689 18.5647 7.55501 18.4635 9.38374Z" fill="white"/>
<path d="M16.7304 9.38192C16.7341 10.2438 16.0322 10.9457 15.1704 10.9419C14.3085 10.9457 13.606 10.2432 13.6104 9.38129C13.6066 8.51942 14.3085 7.81755 15.1704 7.8213C16.0322 7.81755 16.7341 8.52005 16.7304 9.38192Z" fill="#3E4347"/>
<path d="M15.9534 8.59836C15.7715 8.41653 15.5295 8.3637 15.4129 8.48037C15.2962 8.59703 15.349 8.83902 15.5309 9.02086C15.7127 9.20269 15.9547 9.25552 16.0713 9.13885C16.188 9.02218 16.1352 8.7802 15.9534 8.59836Z" fill="white"/>
<path d="M6.8285 13.2293C8.95237 13.2293 10.6741 11.5075 10.6741 9.38368C10.6741 7.25982 8.95237 5.53809 6.8285 5.53809C4.70464 5.53809 2.98291 7.25982 2.98291 9.38368C2.98291 11.5075 4.70464 13.2293 6.8285 13.2293Z" fill="#F4C534"/>
<path d="M3.53693 9.38374C3.63818 11.2131 5.19317 12.695 7.01128 12.695C8.82877 12.695 10.2256 11.2125 10.1244 9.38374C10.0231 7.55438 8.46189 6.06689 6.64441 6.06689C4.8263 6.06689 3.43569 7.55501 3.53693 9.38374Z" fill="white"/>
<path d="M5.27003 9.38192C5.26628 10.2438 5.96815 10.9457 6.83002 10.9419C7.69189 10.9457 8.39376 10.2432 8.39001 9.38129C8.39376 8.51942 7.69189 7.81755 6.83002 7.8213C5.96878 7.81755 5.26628 8.52005 5.27003 9.38192Z" fill="#3E4347"/>
<path d="M6.5864 8.48184C6.46973 8.36517 6.22775 8.418 6.04591 8.59984C5.86407 8.78167 5.81124 9.02365 5.92791 9.14032C6.04458 9.25699 6.28657 9.20416 6.4684 9.02232C6.65024 8.84049 6.70307 8.59851 6.5864 8.48184Z" fill="white"/>
</svg>
