<svg width="31" height="40" viewBox="0 0 31 40" fill="none" xmlns="http://www.w3.org/2000/svg">
<path fill-rule="evenodd" clip-rule="evenodd" d="M2.49998 0H19.7412L30.9999 11.215V37.5C30.9999 38.8812 29.88 40 28.4999 40H2.49998C1.11994 40 0 38.8812 0 37.5V2.49998C0 1.11877 1.12007 0 2.49998 0Z" fill="#F4B459"/>
<path fill-rule="evenodd" clip-rule="evenodd" d="M30.9638 11.25H22.25C20.8699 11.25 19.75 10.1301 19.75 8.75004V0.0250244L30.9638 11.25Z" fill="#D07C40"/>
<path d="M12.7889 22.77C13.0422 22.77 13.2289 22.82 13.3489 22.92C13.4689 23.02 13.5289 23.1733 13.5289 23.38C13.5289 23.5933 13.4689 23.75 13.3489 23.85C13.2289 23.95 13.0422 24 12.7889 24H8.65891C8.45224 24 8.28557 23.94 8.15891 23.82C8.03891 23.6933 7.97891 23.5367 7.97891 23.35C7.97891 23.1567 8.04557 22.97 8.17891 22.79L11.5089 18.18H8.72891C8.47557 18.18 8.28891 18.13 8.16891 18.03C8.04891 17.93 7.98891 17.7767 7.98891 17.57C7.98891 17.3567 8.04891 17.2 8.16891 17.1C8.28891 17 8.47557 16.95 8.72891 16.95H12.7089C12.9156 16.95 13.0789 17.0133 13.1989 17.14C13.3256 17.26 13.3889 17.4133 13.3889 17.6C13.3889 17.8 13.3256 17.9867 13.1989 18.16L9.85891 22.77H12.7889ZM15.2124 24.06C14.9724 24.06 14.7824 23.99 14.6424 23.85C14.5024 23.71 14.4324 23.52 14.4324 23.28V17.67C14.4324 17.4367 14.5024 17.25 14.6424 17.11C14.7824 16.97 14.9724 16.9 15.2124 16.9C15.4524 16.9 15.6424 16.97 15.7824 17.11C15.9224 17.25 15.9924 17.4367 15.9924 17.67V23.28C15.9924 23.52 15.9224 23.71 15.7824 23.85C15.6424 23.99 15.4524 24.06 15.2124 24.06ZM18.1714 24.06C17.9314 24.06 17.7414 23.99 17.6014 23.85C17.4614 23.71 17.3914 23.52 17.3914 23.28V17.68C17.3914 17.4467 17.4547 17.2667 17.5814 17.14C17.7081 17.0133 17.8881 16.95 18.1214 16.95H20.6314C21.3981 16.95 21.9947 17.1433 22.4214 17.53C22.8481 17.9167 23.0614 18.4567 23.0614 19.15C23.0614 19.8433 22.8481 20.3833 22.4214 20.77C21.9947 21.1567 21.3981 21.35 20.6314 21.35H18.9514V23.28C18.9514 23.52 18.8814 23.71 18.7414 23.85C18.6014 23.99 18.4114 24.06 18.1714 24.06ZM20.4314 20.17C21.2114 20.17 21.6014 19.8333 21.6014 19.16C21.6014 18.48 21.2114 18.14 20.4314 18.14H18.9514V20.17H20.4314Z" fill="white"/>
</svg>
