<svg width="31" height="40" viewBox="0 0 31 40" fill="none" xmlns="http://www.w3.org/2000/svg">
<path fill-rule="evenodd" clip-rule="evenodd" d="M2.49998 0H19.7412L30.9999 11.215V37.5C30.9999 38.8812 29.88 40 28.4999 40H2.49998C1.11994 40 0 38.8812 0 37.5V2.49998C0 1.11877 1.12007 0 2.49998 0Z" fill="#E2574C"/>
<path fill-rule="evenodd" clip-rule="evenodd" d="M30.9638 11.25H22.25C20.8699 11.25 19.75 10.1301 19.75 8.75004V0.0250244L30.9638 11.25Z" fill="#B53629"/>
<path d="M6.96535 24.06C6.72535 24.06 6.53535 23.99 6.39535 23.85C6.25535 23.71 6.18535 23.52 6.18535 23.28V17.68C6.18535 17.4467 6.24868 17.2667 6.37535 17.14C6.50202 17.0133 6.68202 16.95 6.91535 16.95H9.42535C10.192 16.95 10.7887 17.1433 11.2154 17.53C11.642 17.9167 11.8554 18.4567 11.8554 19.15C11.8554 19.8433 11.642 20.3833 11.2154 20.77C10.7887 21.1567 10.192 21.35 9.42535 21.35H7.74535V23.28C7.74535 23.52 7.67535 23.71 7.53535 23.85C7.39535 23.99 7.20535 24.06 6.96535 24.06ZM9.22535 20.17C10.0054 20.17 10.3954 19.8333 10.3954 19.16C10.3954 18.48 10.0054 18.14 9.22535 18.14H7.74535V20.17H9.22535ZM13.595 24C13.3617 24 13.1817 23.9367 13.055 23.81C12.9284 23.6833 12.865 23.5033 12.865 23.27V17.68C12.865 17.4467 12.9284 17.2667 13.055 17.14C13.1817 17.0133 13.3617 16.95 13.595 16.95H15.605C16.3717 16.95 17.0317 17.09 17.585 17.37C18.1384 17.65 18.5617 18.0533 18.855 18.58C19.1484 19.1067 19.295 19.7367 19.295 20.47C19.295 21.2033 19.1484 21.8367 18.855 22.37C18.5684 22.8967 18.1484 23.3 17.595 23.58C17.0417 23.86 16.3784 24 15.605 24H13.595ZM15.495 22.74C16.995 22.74 17.745 21.9833 17.745 20.47C17.745 18.9633 16.995 18.21 15.495 18.21H14.425V22.74H15.495ZM21.272 24.06C21.0387 24.06 20.8487 23.99 20.702 23.85C20.562 23.7033 20.492 23.5133 20.492 23.28V17.68C20.492 17.4467 20.5553 17.2667 20.682 17.14C20.8087 17.0133 20.9887 16.95 21.222 16.95H24.662C24.9153 16.95 25.102 17 25.222 17.1C25.342 17.2 25.402 17.3567 25.402 17.57C25.402 17.7767 25.342 17.93 25.222 18.03C25.102 18.13 24.9153 18.18 24.662 18.18H22.032V19.8H24.462C24.7153 19.8 24.902 19.85 25.022 19.95C25.142 20.05 25.202 20.2067 25.202 20.42C25.202 20.6267 25.142 20.78 25.022 20.88C24.902 20.98 24.7153 21.03 24.462 21.03H22.032V23.28C22.032 23.52 21.962 23.71 21.822 23.85C21.6887 23.99 21.5053 24.06 21.272 24.06Z" fill="white"/>
</svg>
