<svg width="31" height="40" viewBox="0 0 31 40" fill="none" xmlns="http://www.w3.org/2000/svg">
<path fill-rule="evenodd" clip-rule="evenodd" d="M2.49998 0H19.7412L30.9999 11.215V37.5C30.9999 38.8812 29.88 40 28.4999 40H2.49998C1.11994 40 0 38.8812 0 37.5V2.49998C0 1.11877 1.12007 0 2.49998 0Z" fill="#B3C0CE"/>
<path fill-rule="evenodd" clip-rule="evenodd" d="M30.9638 11.25H22.25C20.8699 11.25 19.75 10.1301 19.75 8.75004V0.0250244L30.9638 11.25Z" fill="#8697A8"/>
<path d="M14.8278 23.55C14.4612 23.55 14.1695 23.425 13.9528 23.175C13.7528 22.925 13.6528 22.5917 13.6528 22.175C13.6528 21.325 13.8028 20.6167 14.1028 20.05C14.4195 19.4833 14.8778 18.8583 15.4778 18.175C15.9278 17.6583 16.2528 17.2333 16.4528 16.9C16.6695 16.55 16.7778 16.1583 16.7778 15.725C16.7778 15.2583 16.6028 14.8917 16.2528 14.625C15.9195 14.3417 15.4612 14.2 14.8778 14.2C14.3445 14.2 13.8445 14.3083 13.3778 14.525C12.9278 14.7417 12.3195 15.075 11.5528 15.525C11.0695 15.7917 10.6695 15.925 10.3528 15.925C10.0028 15.925 9.70283 15.775 9.45283 15.475C9.2195 15.1583 9.10283 14.7833 9.10283 14.35C9.10283 14.05 9.15283 13.8 9.25283 13.6C9.3695 13.3833 9.5445 13.1833 9.77783 13C10.5112 12.4167 11.3528 11.9667 12.3028 11.65C13.2695 11.3167 14.2362 11.15 15.2028 11.15C16.2362 11.15 17.1612 11.3333 17.9778 11.7C18.8112 12.0667 19.4528 12.575 19.9028 13.225C20.3695 13.8583 20.6028 14.575 20.6028 15.375C20.6028 15.9917 20.4778 16.5583 20.2278 17.075C19.9945 17.575 19.7112 18.0167 19.3778 18.4C19.0445 18.7667 18.5945 19.225 18.0278 19.775C17.3945 20.3583 16.9195 20.85 16.6028 21.25C16.2862 21.6333 16.0862 22.0667 16.0028 22.55C15.9362 22.8667 15.7945 23.1167 15.5778 23.3C15.3778 23.4667 15.1278 23.55 14.8278 23.55ZM14.8778 29.15C14.2612 29.15 13.7528 28.95 13.3528 28.55C12.9528 28.1333 12.7528 27.6167 12.7528 27C12.7528 26.3833 12.9528 25.875 13.3528 25.475C13.7528 25.0583 14.2612 24.85 14.8778 24.85C15.4778 24.85 15.9778 25.0583 16.3778 25.475C16.7778 25.875 16.9778 26.3833 16.9778 27C16.9778 27.6167 16.7778 28.1333 16.3778 28.55C15.9778 28.95 15.4778 29.15 14.8778 29.15Z" fill="white"/>
</svg>
