<svg width="31" height="40" viewBox="0 0 31 40" fill="none" xmlns="http://www.w3.org/2000/svg">
<path fill-rule="evenodd" clip-rule="evenodd" d="M2.49998 0H19.7412L30.9999 11.215V37.5C30.9999 38.8812 29.88 40 28.4999 40H2.49998C1.11994 40 0 38.8812 0 37.5V2.49998C0 1.11877 1.12007 0 2.49998 0Z" fill="#26A6D1"/>
<path fill-rule="evenodd" clip-rule="evenodd" d="M30.9638 11.25H22.25C20.8699 11.25 19.75 10.1301 19.75 8.75004V0.0250244L30.9638 11.25Z" fill="#1E7EA0"/>
<path d="M5.7923 24C5.55897 24 5.37897 23.9367 5.2523 23.81C5.12564 23.6833 5.0623 23.5033 5.0623 23.27V17.68C5.0623 17.4467 5.12564 17.2667 5.2523 17.14C5.37897 17.0133 5.55897 16.95 5.7923 16.95H7.8023C8.56897 16.95 9.22897 17.09 9.78231 17.37C10.3356 17.65 10.759 18.0533 11.0523 18.58C11.3456 19.1067 11.4923 19.7367 11.4923 20.47C11.4923 21.2033 11.3456 21.8367 11.0523 22.37C10.7656 22.8967 10.3456 23.3 9.79231 23.58C9.23897 23.86 8.57564 24 7.8023 24H5.7923ZM7.6923 22.74C9.1923 22.74 9.9423 21.9833 9.9423 20.47C9.9423 18.9633 9.1923 18.21 7.6923 18.21H6.6223V22.74H7.6923ZM15.9293 24.09C15.2293 24.09 14.6193 23.9433 14.0993 23.65C13.5859 23.35 13.1893 22.93 12.9093 22.39C12.6293 21.8433 12.4893 21.2033 12.4893 20.47C12.4893 19.7367 12.6293 19.1 12.9093 18.56C13.1893 18.0133 13.5859 17.5933 14.0993 17.3C14.6193 17.0067 15.2293 16.86 15.9293 16.86C16.6293 16.86 17.2359 17.0067 17.7493 17.3C18.2693 17.5933 18.6693 18.0133 18.9493 18.56C19.2293 19.1 19.3693 19.7367 19.3693 20.47C19.3693 21.2033 19.2293 21.8433 18.9493 22.39C18.6693 22.93 18.2693 23.35 17.7493 23.65C17.2359 23.9433 16.6293 24.09 15.9293 24.09ZM15.9293 22.88C16.5159 22.88 16.9759 22.6733 17.3093 22.26C17.6493 21.8467 17.8193 21.25 17.8193 20.47C17.8193 19.69 17.6526 19.0967 17.3193 18.69C16.9859 18.2767 16.5226 18.07 15.9293 18.07C15.3359 18.07 14.8726 18.2767 14.5393 18.69C14.2126 19.0967 14.0493 19.69 14.0493 20.47C14.0493 21.25 14.2159 21.8467 14.5493 22.26C14.8826 22.6733 15.3426 22.88 15.9293 22.88ZM23.8004 24.09C23.107 24.09 22.5004 23.9433 21.9804 23.65C21.4604 23.3567 21.0604 22.9367 20.7804 22.39C20.5004 21.8433 20.3604 21.2033 20.3604 20.47C20.3604 19.7367 20.5004 19.1 20.7804 18.56C21.0604 18.0133 21.4604 17.5933 21.9804 17.3C22.5004 17.0067 23.107 16.86 23.8004 16.86C24.6737 16.86 25.427 17.1 26.0604 17.58C26.1604 17.66 26.2304 17.74 26.2704 17.82C26.3104 17.9 26.3304 18 26.3304 18.12C26.3304 18.2933 26.2804 18.4433 26.1804 18.57C26.087 18.69 25.9704 18.75 25.8304 18.75C25.737 18.75 25.6537 18.74 25.5804 18.72C25.5137 18.6933 25.437 18.65 25.3504 18.59C25.0837 18.4167 24.837 18.2933 24.6104 18.22C24.3837 18.14 24.1404 18.1 23.8804 18.1C23.2404 18.1 22.757 18.3 22.4304 18.7C22.1104 19.0933 21.9504 19.6833 21.9504 20.47C21.9504 22.0567 22.5937 22.85 23.8804 22.85C24.127 22.85 24.3604 22.8133 24.5804 22.74C24.8004 22.66 25.057 22.5333 25.3504 22.36C25.4504 22.3 25.5337 22.26 25.6004 22.24C25.667 22.2133 25.7437 22.2 25.8304 22.2C25.9704 22.2 26.087 22.2633 26.1804 22.39C26.2804 22.51 26.3304 22.6567 26.3304 22.83C26.3304 22.95 26.307 23.0533 26.2604 23.14C26.2204 23.22 26.1537 23.2967 26.0604 23.37C25.427 23.85 24.6737 24.09 23.8004 24.09Z" fill="white"/>
</svg>
