<svg width="152" height="35" viewBox="0 0 152 35" fill="none" xmlns="http://www.w3.org/2000/svg">
<path d="M59.8603 26.12C58.4003 26.12 57.0903 25.76 55.9303 25.04C54.7703 24.3 53.8503 23.31 53.1703 22.07C52.5103 20.81 52.1803 19.39 52.1803 17.81C52.1803 16.23 52.5403 14.81 53.2603 13.55C54.0003 12.29 54.9903 11.3 56.2303 10.58C57.4903 9.84 58.9003 9.47 60.4603 9.47C62.0203 9.47 63.4203 9.84 64.6603 10.58C65.9003 11.3 66.8803 12.29 67.6003 13.55C68.3403 14.81 68.7103 16.23 68.7103 17.81V24.5C68.7103 24.94 68.5603 25.31 68.2603 25.61C67.9803 25.89 67.6203 26.03 67.1803 26.03C66.7403 26.03 66.3703 25.89 66.0703 25.61C65.7903 25.31 65.6503 24.94 65.6503 24.5V23.39C64.9503 24.23 64.1003 24.9 63.1003 25.4C62.1203 25.88 61.0403 26.12 59.8603 26.12ZM60.4603 23.42C61.4803 23.42 62.3903 23.18 63.1903 22.7C63.9903 22.2 64.6203 21.53 65.0803 20.69C65.5403 19.83 65.7703 18.87 65.7703 17.81C65.7703 16.73 65.5403 15.77 65.0803 14.93C64.6203 14.07 63.9903 13.4 63.1903 12.92C62.3903 12.42 61.4803 12.17 60.4603 12.17C59.4603 12.17 58.5503 12.42 57.7303 12.92C56.9303 13.4 56.2903 14.07 55.8103 14.93C55.3503 15.77 55.1203 16.73 55.1203 17.81C55.1203 18.87 55.3503 19.83 55.8103 20.69C56.2903 21.53 56.9303 22.2 57.7303 22.7C58.5503 23.18 59.4603 23.42 60.4603 23.42ZM77.7645 26C76.7645 26 76.2645 25.5 76.2645 24.5V11.09C76.2645 10.09 76.7645 9.59 77.7645 9.59C78.7645 9.59 79.2645 10.09 79.2645 11.09V11.66C79.8645 10.96 80.5945 10.41 81.4545 10.01C82.3345 9.61 83.2845 9.41 84.3045 9.41C85.5045 9.41 86.3945 9.61 86.9745 10.01C87.5745 10.39 87.8045 10.85 87.6645 11.39C87.5645 11.81 87.3645 12.09 87.0645 12.23C86.7645 12.35 86.4145 12.37 86.0145 12.29C84.7345 12.03 83.5845 12.01 82.5645 12.23C81.5445 12.45 80.7345 12.86 80.1345 13.46C79.5545 14.06 79.2645 14.82 79.2645 15.74V24.5C79.2645 25.5 78.7645 26 77.7645 26ZM95.6843 26C95.2443 26 94.8743 25.86 94.5743 25.58C94.2943 25.28 94.1543 24.91 94.1543 24.47V11.12C94.1543 10.66 94.2943 10.29 94.5743 10.01C94.8743 9.73 95.2443 9.59 95.6843 9.59C96.1443 9.59 96.5143 9.73 96.7943 10.01C97.0743 10.29 97.2143 10.66 97.2143 11.12V24.47C97.2143 24.91 97.0743 25.28 96.7943 25.58C96.5143 25.86 96.1443 26 95.6843 26ZM95.6843 6.92C95.1443 6.92 94.6743 6.73 94.2743 6.35C93.8943 5.95 93.7043 5.48 93.7043 4.94C93.7043 4.4 93.8943 3.94 94.2743 3.56C94.6743 3.16 95.1443 2.96 95.6843 2.96C96.2243 2.96 96.6843 3.16 97.0643 3.56C97.4643 3.94 97.6643 4.4 97.6643 4.94C97.6643 5.48 97.4643 5.95 97.0643 6.35C96.6843 6.73 96.2243 6.92 95.6843 6.92ZM113.347 26.12C111.727 26.12 110.297 25.77 109.057 25.07C107.817 24.35 106.837 23.37 106.117 22.13C105.417 20.87 105.067 19.43 105.067 17.81C105.067 16.17 105.417 14.73 106.117 13.49C106.837 12.23 107.817 11.25 109.057 10.55C110.297 9.83 111.727 9.47 113.347 9.47C114.947 9.47 116.367 9.83 117.607 10.55C118.847 11.25 119.817 12.23 120.517 13.49C121.237 14.73 121.597 16.17 121.597 17.81C121.597 19.43 121.247 20.87 120.547 22.13C119.847 23.37 118.877 24.35 117.637 25.07C116.397 25.77 114.967 26.12 113.347 26.12ZM113.347 23.42C114.387 23.42 115.307 23.18 116.107 22.7C116.907 22.22 117.527 21.56 117.967 20.72C118.427 19.88 118.657 18.91 118.657 17.81C118.657 16.71 118.427 15.74 117.967 14.9C117.527 14.04 116.907 13.37 116.107 12.89C115.307 12.41 114.387 12.17 113.347 12.17C112.307 12.17 111.387 12.41 110.587 12.89C109.787 13.37 109.157 14.04 108.697 14.9C108.237 15.74 108.007 16.71 108.007 17.81C108.007 18.91 108.237 19.88 108.697 20.72C109.157 21.56 109.787 22.22 110.587 22.7C111.387 23.18 112.307 23.42 113.347 23.42ZM130.681 26.03C130.241 26.03 129.871 25.89 129.571 25.61C129.291 25.31 129.151 24.94 129.151 24.5V11.12C129.151 10.66 129.291 10.29 129.571 10.01C129.871 9.73 130.241 9.59 130.681 9.59C131.141 9.59 131.511 9.73 131.791 10.01C132.071 10.29 132.211 10.66 132.211 11.12V11.45C132.831 10.83 133.581 10.34 134.461 9.98C135.341 9.62 136.291 9.44 137.311 9.44C138.691 9.44 139.921 9.74 141.001 10.34C142.101 10.92 142.961 11.78 143.581 12.92C144.221 14.06 144.541 15.46 144.541 17.12V24.5C144.541 24.94 144.391 25.31 144.091 25.61C143.811 25.89 143.451 26.03 143.011 26.03C142.571 26.03 142.201 25.89 141.901 25.61C141.621 25.31 141.481 24.94 141.481 24.5V17.12C141.481 15.42 141.021 14.18 140.101 13.4C139.201 12.6 138.071 12.2 136.711 12.2C135.871 12.2 135.111 12.37 134.431 12.71C133.751 13.05 133.211 13.51 132.811 14.09C132.411 14.65 132.211 15.3 132.211 16.04V24.5C132.211 24.94 132.071 25.31 131.791 25.61C131.511 25.89 131.141 26.03 130.681 26.03Z" fill="#44566C"/>
<rect opacity="0.5" x="16.3203" y="18" width="20" height="20" transform="rotate(-45 16.3203 18)" fill="#FDBF5E"/>
<rect opacity="0.5" x="11.3203" y="18" width="20" height="20" transform="rotate(-45 11.3203 18)" fill="#FF8A48"/>
<rect opacity="0.5" x="6.32031" y="18" width="20" height="20" transform="rotate(-45 6.32031 18)" fill="#FF3D57"/>
<rect x="1.17822" y="18" width="20" height="20" transform="rotate(-45 1.17822 18)" fill="#FF3D57"/>
</svg>
