<svg width="50" height="50" viewBox="0 0 50 50" fill="none" xmlns="http://www.w3.org/2000/svg">
<g opacity="0.01">
<path opacity="0.01" d="M50 6.10352e-05H0V50.0001H50V6.10352e-05Z" fill="white"/>
</g>
<path fill-rule="evenodd" clip-rule="evenodd" d="M27.1437 20.0001H28.5723V21.4287H27.1437V20.0001ZM28.5723 28.5715H27.1437V27.1429H28.5723V28.5715ZM21.4294 21.4287H20.0008V20.0001H21.4294V21.4287ZM21.4294 28.5715H20.0008V27.1429H21.4294V28.5715ZM24.2865 12.8758L12.8794 24.2872L20.3394 31.7458L24.2865 35.6929L35.6923 24.2858L24.2865 12.8758Z" fill="white"/>
<path fill-rule="evenodd" clip-rule="evenodd" d="M33.666 24.2817L30.0132 20.2689V22.8817H24.286H18.5703V20.2689L14.8975 24.2817L18.5717 28.2931L18.5703 25.7103H24.286H30.0132L30.0117 28.2931L33.666 24.2817Z" fill="black"/>
<path fill-rule="evenodd" clip-rule="evenodd" d="M25.6964 24.2859H25.715V18.5702L28.2964 18.5716L24.2864 14.8987L20.2735 18.5702H22.8578V24.2859H22.8692V30.003L20.2578 30.0016L24.2678 33.683L28.275 30.003H25.6964V24.2859Z" fill="black"/>
</svg>
