<svg width="40" height="40" viewBox="0 0 40 40" fill="none" xmlns="http://www.w3.org/2000/svg">
<path d="M20 40C31.0457 40 40 31.0457 40 20C40 8.95431 31.0457 0 20 0C8.95431 0 0 8.95431 0 20C0 31.0457 8.95431 40 20 40Z" fill="#DC4E41"/>
<path d="M6.96307 20.8959C6.89212 24.337 9.26226 27.6209 12.5226 28.6919C15.5937 29.7236 19.3696 28.9518 21.4131 26.3217C22.9052 24.4789 23.2442 22.0221 23.0827 19.7268C20.4527 19.7033 17.8226 19.7112 15.1965 19.7151C15.1922 20.652 15.1965 21.5854 15.2004 22.5223C16.7752 22.5658 18.3503 22.5458 19.925 22.5776C19.5275 23.9398 18.622 25.2076 17.2476 25.6996C14.594 26.869 11.2081 25.3413 10.3732 22.5576C9.3653 19.8919 11.0153 16.675 13.7394 15.8996C15.4286 15.3053 17.1688 15.9745 18.6141 16.8526C19.3464 16.1674 20.0316 15.4351 20.7047 14.6949C19.0626 13.3209 16.9524 12.4785 14.783 12.6635C10.5265 12.7141 6.80157 16.6437 6.96307 20.8959Z" fill="#DC4E41"/>
<path d="M28.2011 17.3514C28.1932 18.1351 28.185 18.9226 28.1811 19.7059C27.3936 19.7137 26.6103 19.7177 25.8267 19.7216C25.8267 20.5052 25.8267 21.2846 25.8267 22.0682C26.6103 22.0721 27.3978 22.076 28.1811 22.0842C28.189 22.8679 28.189 23.6511 28.1968 24.4387C28.9765 24.4387 29.7601 24.4348 30.5434 24.4387C30.5477 23.6511 30.5512 22.8679 30.5594 22.0803C31.3427 22.0764 32.1303 22.0725 32.9139 22.0685C32.9139 21.2849 32.9139 20.5056 32.9139 19.7219C32.1306 19.718 31.3431 19.7141 30.5594 19.7062C30.5552 18.9226 30.5477 18.1351 30.5434 17.3518C29.7601 17.3514 28.9804 17.3514 28.2011 17.3514Z" fill="#DC4E41"/>
<path d="M6.96307 20.8952C6.80157 16.643 10.5261 12.7135 14.7826 12.6625C16.952 12.4775 19.0626 13.3199 20.7044 14.694C20.0309 15.4344 19.3457 16.1664 18.6138 16.8516C17.1684 15.9735 15.4283 15.3043 13.7391 15.8986C11.0146 16.6744 9.36458 19.8913 10.3728 22.5566C11.2078 25.3403 14.5936 26.868 17.2472 25.6986C18.6212 25.2066 19.5272 23.9389 19.9247 22.5766C18.3499 22.5452 16.7748 22.5648 15.2001 22.5213C15.1962 21.5844 15.1922 20.651 15.1962 19.7141C17.8223 19.7102 20.4523 19.7023 23.0824 19.7259C23.2439 22.0215 22.9052 24.4783 21.4128 26.3208C19.3692 28.9508 15.5937 29.7227 12.5223 28.6909C9.26262 27.6203 6.89213 24.3364 6.96307 20.8952Z" fill="white"/>
<path d="M28.2011 17.3514C28.9808 17.3514 29.7601 17.3514 30.5434 17.3514C30.5477 18.1351 30.5552 18.9226 30.5594 19.7059C31.3427 19.7137 32.1303 19.7177 32.9139 19.7216C32.9139 20.5052 32.9139 21.2846 32.9139 22.0682C32.1306 22.0721 31.3431 22.076 30.5594 22.08C30.5516 22.8675 30.5477 23.6508 30.5434 24.4383C29.7601 24.4344 28.9761 24.4383 28.1968 24.4383C28.1893 23.6508 28.1893 22.8675 28.1811 22.0839C27.3978 22.0757 26.6103 22.0721 25.8267 22.0678C25.8267 21.2842 25.8267 20.5049 25.8267 19.7212C26.6103 19.7173 27.3939 19.7134 28.1811 19.7055C28.185 18.9226 28.1929 18.1351 28.2011 17.3514Z" fill="white"/>
</svg>
