<svg width="40" height="40" viewBox="0 0 40 40" fill="none" xmlns="http://www.w3.org/2000/svg">
<path d="M20 40C31.0457 40 40 31.0457 40 20C40 8.95431 31.0457 0 20 0C8.95431 0 0 8.95431 0 20C0 31.0457 8.95431 40 20 40Z" fill="#CB2027"/>
<path d="M21.6145 26.7817C20.1025 26.6648 19.4672 25.915 18.2814 25.1952C17.6297 28.6146 16.8332 31.8924 14.4741 33.6048C13.745 28.4367 15.543 24.5549 16.3779 20.4346C14.9547 18.0388 16.5491 13.2165 19.5509 14.4048C23.2456 15.8658 16.3523 23.3132 20.9799 24.2433C25.8111 25.2145 27.7833 15.8605 24.7871 12.818C20.4583 8.42528 12.1867 12.7181 13.2038 19.0064C13.4516 20.5437 15.0403 21.0104 13.8384 23.1317C11.0679 22.5181 10.2415 20.333 10.3478 17.4199C10.5193 12.6515 14.6324 9.31266 18.758 8.85061C23.9757 8.26663 28.8728 10.7665 29.5488 15.6744C30.3093 21.2136 27.1933 27.2124 21.6145 26.7817Z" fill="#F1F2F2"/>
</svg>
