<svg width="40" height="40" viewBox="0 0 40 40" fill="none" xmlns="http://www.w3.org/2000/svg">
<path d="M20 40C31.0457 40 40 31.0457 40 20C40 8.95431 31.0457 0 20 0C8.95431 0 0 8.95431 0 20C0 31.0457 8.95431 40 20 40Z" fill="#55ACEE"/>
<path d="M32.2506 14.3734C31.3935 14.7535 30.4716 15.0105 29.5047 15.1253C30.4919 14.5339 31.2495 13.598 31.6071 12.481C30.6833 13.029 29.6598 13.4265 28.5713 13.6408C27.6993 12.7121 26.4568 12.1317 25.081 12.1317C22.4413 12.1317 20.3004 14.2725 20.3004 16.9122C20.3004 17.2869 20.3429 17.6516 20.4249 18.0017C16.4518 17.8024 12.929 15.8993 10.571 13.0062C10.1596 13.7121 9.92358 14.5339 9.92358 15.4098C9.92358 17.068 10.7682 18.5319 12.0502 19.389C11.2669 19.3644 10.5293 19.1494 9.88508 18.7904C9.88472 18.8107 9.88472 18.831 9.88472 18.851C9.88472 21.1673 11.5333 23.0992 13.7198 23.5381C13.3191 23.6479 12.8959 23.706 12.4606 23.706C12.1518 23.706 11.8527 23.6764 11.5611 23.6208C12.1693 25.5197 13.9344 26.9019 16.0268 26.9407C14.3904 28.2231 12.3294 28.9872 10.089 28.9872C9.70397 28.9872 9.32249 28.9647 8.94922 28.9201C11.0637 30.277 13.5772 31.0682 16.2768 31.0682C25.0699 31.0682 29.8787 23.7838 29.8787 17.4659C29.8787 17.2588 29.874 17.0523 29.8648 16.8477C30.7996 16.1739 31.6099 15.3321 32.2506 14.3734Z" fill="#F1F2F2"/>
</svg>
