<svg width="28" height="20" viewBox="0 0 28 20" fill="none" xmlns="http://www.w3.org/2000/svg">
<path d="M24.6156 2.38419e-06H3.0772C1.37799 2.38419e-06 0.000264096 1.37773 0.000264096 3.07694V16.9231C0.000264096 18.6223 1.37799 20 3.0772 20H24.6156C26.3148 20 27.6925 18.6223 27.6925 16.9231V3.07694C27.6924 1.37766 26.3148 2.38419e-06 24.6156 2.38419e-06Z" fill="#00247D"/>
<path d="M14.6156 10V8.43925L9.15408 4.61537H5.13184L12.8218 10H14.6156Z" fill="#EEEEEE"/>
<path d="M14.6156 8.90918L8.48408 4.61535H7.14333L14.6156 9.84766V8.90918Z" fill="#CF1B2B"/>
<path d="M6.23075 4.61398L0 9.04931V9.99854H2.56305L10.2538 4.61391L6.23075 4.61398Z" fill="#EEEEEE"/>
<path d="M8.24177 4.61537L0.564876 10H0.76946H1.89332L9.58327 4.61537H8.24177Z" fill="#CF1B2B"/>
<path d="M12.8225 0.000140429L5.13258 5.38477H9.15482L14.6156 1.56089V0.000140429H12.8225Z" fill="#EEEEEE"/>
<path d="M13.4918 0.000140429L5.80265 5.38477H7.14339L14.6156 0.152462V0.000140429H13.4918Z" fill="#CF1B2B"/>
<path d="M0.510102 1.38131L7.69251 6.40869V5.38483H10.2525L2.61314 0.0350863C1.73551 0.16787 0.979915 0.67169 0.510102 1.38131Z" fill="#EEEEEE"/>
<path d="M0.745584 1.07049L7.69258 5.93994V5.3846H8.24176L1.32993 0.544701C1.11331 0.694522 0.917039 0.871454 0.745584 1.07049Z" fill="#CF1B2B"/>
<path d="M14.6156 3.07694H9.23094V1.19209e-06H5.38489V3.07694H0.000264096V6.92306H5.38489V10H9.23101V6.92306H14.6156V3.07694H14.6156Z" fill="#EEEEEE"/>
<path d="M8.46179 10H6.1541V1.19209e-06H8.46179V10Z" fill="#CF1B2B"/>
<path d="M14.6156 6.15381H0.000284052V3.84612H14.6156V6.15381Z" fill="#CF1B2B"/>
<path d="M6.92365 16.1716L5.98369 17.04L6.07679 15.7631L4.81061 15.57L5.86679 14.8461L5.22985 13.7369L6.4537 14.1116L6.92372 12.92L7.39374 14.1116L8.61833 13.7369L7.9799 14.8461L9.03683 15.57L7.77065 15.7631L7.86449 17.04L6.92365 16.1716Z" fill="white"/>
<path d="M21.5003 3.50944L20.8857 4.07715L20.9464 3.24178L20.118 3.11562L20.8095 2.64256L20.3925 1.91644L21.1925 2.16179L21.5002 1.38254L21.8079 2.16179L22.6087 1.91644L22.191 2.64256L22.8825 3.11562L22.0547 3.24178L22.1155 4.07715L21.5003 3.50944Z" fill="white"/>
<path d="M18.4233 8.12516L17.8088 8.69287L17.8695 7.8575L17.041 7.73134L17.7325 7.25828L17.3156 6.53217L18.1156 6.77752L18.4233 5.99752L18.731 6.77752L19.5317 6.53217L19.114 7.25828L19.8055 7.73134L18.9778 7.8575L19.0385 8.69287L18.4233 8.12516Z" fill="white"/>
<path d="M25.3464 6.58659L24.7318 7.1543L24.7926 6.31892L23.9641 6.19277L24.6556 5.71971L24.2386 4.99359L25.0387 5.23894L25.3463 4.45894L25.654 5.23894L26.4548 4.99359L26.0371 5.71971L26.7286 6.19277L25.9009 6.31892L25.9616 7.1543L25.3464 6.58659Z" fill="white"/>
<path d="M21.5003 17.3556L20.8857 17.9233L20.9464 17.088L20.118 16.9618L20.8095 16.4888L20.3925 15.7626L21.1925 16.008L21.5002 15.228L21.8079 16.008L22.6087 15.7626L22.191 16.4888L22.8825 16.9618L22.0547 17.088L22.1155 17.9233L21.5003 17.3556Z" fill="white"/>
<path d="M23.8462 8.46151L24.0724 8.91996L24.5778 8.99304L24.2124 9.34921L24.2985 9.85303L23.8462 9.61538L23.3939 9.85303L23.4801 9.34921L23.1147 8.99304L23.6201 8.91996L23.8462 8.46151Z" fill="white"/>
</svg>
