<svg width="28" height="20" viewBox="0 0 28 20" fill="none" xmlns="http://www.w3.org/2000/svg">
<path d="M24.6927 0H3.15419C1.45499 0 0.0772705 1.37772 0.0772705 3.07692V16.9231C0.0772705 18.6223 1.45499 20 3.15419 20H24.6927C26.3919 20 27.7696 18.6223 27.7696 16.9231V3.07692C27.7696 1.37772 26.3919 0 24.6927 0Z" fill="#DE2910"/>
<path d="M5.46194 4.57761L6.17656 6.63148L8.35044 6.67685L6.61737 7.98993L7.24734 10.0722L5.46201 8.82996L3.67661 10.0723L4.30659 7.99L2.57352 6.67691L4.74739 6.63155L5.46194 4.57761Z" fill="#FFDE02"/>
<path d="M10.0773 1.94446L10.3389 2.47369L10.9226 2.55834L10.5004 2.97068L10.5995 3.55225L10.0773 3.27762L9.555 3.55225L9.655 2.97068L9.2319 2.55834L9.81651 2.47369L10.0773 1.94446Z" fill="#FFDE02"/>
<path d="M11.6158 5.0216L11.8774 5.55084L12.4611 5.63549L12.0389 6.04783L12.138 6.62939L11.6158 6.3547L11.0935 6.62933L11.1935 6.04776L10.7704 5.63542L11.355 5.55077L11.6158 5.0216Z" fill="#FFDE02"/>
<path d="M11.6158 8.09826L11.8774 8.6275L12.4611 8.71215L12.0389 9.12449L12.138 9.70605L11.6158 9.43136L11.0935 9.70599L11.1935 9.12442L10.7704 8.71208L11.355 8.62743L11.6158 8.09826Z" fill="#FFDE02"/>
<path d="M10.0773 11.1747L10.3389 11.7047L10.9226 11.7894L10.5004 12.2009L10.5995 12.7832L10.0773 12.5086L9.555 12.7832L9.655 12.2009L9.2319 11.7894L9.81651 11.7047L10.0773 11.1747Z" fill="#FFDE02"/>
</svg>
