<svg width="29" height="20" viewBox="0 0 29 20" fill="none" xmlns="http://www.w3.org/2000/svg">
<path d="M0.482838 17.6592C0.50285 17.7369 0.528271 17.8123 0.553638 17.8869C0.622111 18.0862 0.705188 18.2786 0.809791 18.4586C0.810603 18.4601 0.810603 18.4625 0.811414 18.4625H0.811792C1.34487 19.3787 2.32562 20.0009 3.46181 20.0009H25.0002C26.1364 20.0009 27.1172 19.3786 27.6503 18.4625H27.6507C27.6514 18.4625 27.6514 18.4601 27.6522 18.4593C27.756 18.2801 27.8391 18.0877 27.9076 17.8892C27.9337 17.8131 27.9591 17.7369 27.9791 17.6584C27.9976 17.5884 28.0114 17.5177 28.0245 17.447C28.0546 17.281 28.0761 17.1131 28.0772 16.9369V16.924V15.3856V13.8471V12.3087V10.7702V9.23181V7.69338V6.15494V4.6165V3.07785C28.0772 2.89861 28.0557 2.72477 28.0242 2.55478C28.0118 2.48403 27.9972 2.41323 27.9796 2.344C27.9588 2.26477 27.9334 2.18786 27.9072 2.1117C27.8388 1.91326 27.7564 1.72168 27.6518 1.5425C27.6518 1.54174 27.6511 1.54017 27.6503 1.53941H27.6504C27.1174 0.623242 26.1366 0.000976562 25.0004 0.000976562H14.231V1.53941V3.07785V4.61629V6.15472V7.69316V9.2316V10.77H0.384888V12.3085V13.8469V15.3853V16.924C0.384888 17.1032 0.40663 17.2762 0.437352 17.4461C0.450441 17.5177 0.465152 17.5893 0.482838 17.6592Z" fill="#EEEEEE"/>
<path d="M27.6503 1.53844C27.1173 0.622265 26.1365 0 25.0003 0H14.231V1.53844H27.6503H27.6503Z" fill="#B22334"/>
<path d="M0.384888 16.9232H28.0772V15.3848H0.384888V16.9232Z" fill="#B22334"/>
<path d="M28.0772 9.23096H14.231V10.7694H28.0772V9.23096Z" fill="#B22334"/>
<path d="M28.0772 6.15381H14.231V7.69224H28.0772V6.15381Z" fill="#B22334"/>
<path d="M28.0772 12.3076H0.384888V13.8461H28.0772V12.3076Z" fill="#B22334"/>
<path d="M25.0003 19.9999C26.1364 19.9999 27.1172 19.3775 27.6503 18.4614H0.811798C1.34487 19.3776 2.32563 19.9999 3.46182 19.9999H25.0003Z" fill="#B22334"/>
<path d="M28.0772 3.07666H14.231V4.6151H28.0772V3.07666Z" fill="#B22334"/>
<path d="M0.384888 3.077C0.384888 2.89776 0.407983 2.72544 0.437189 2.55469C0.406414 2.72468 0.384888 2.89776 0.384888 3.077Z" fill="#EEEEEE"/>
<path d="M0.811588 1.53857C0.810831 1.54009 0.810074 1.5409 0.810074 1.54241C0.810831 1.54085 0.810831 1.54009 0.811588 1.53857Z" fill="#EEEEEE"/>
<path d="M0.483109 2.34174C0.502363 2.26326 0.529244 2.18868 0.553854 2.11328C0.528487 2.18868 0.503121 2.26407 0.483109 2.34174Z" fill="#EEEEEE"/>
<path d="M14.231 0H3.46181C1.76258 0 0.384888 1.37769 0.384888 3.07693V10.7692H14.231V0Z" fill="#3C3B6E"/>
<path d="M1.92447 2.09653L2.39984 2.44193L2.21832 3.00037L2.69293 2.65497L3.1683 3.00037L2.98597 2.44193L3.46215 2.09653H2.87444L2.69293 1.53809L2.51217 2.09653H1.92447Z" fill="white"/>
<path d="M3.46294 3.6351L3.9383 3.9805L3.75598 4.53894L4.23134 4.19355L4.70671 4.53894L4.52438 3.9805L5.00056 3.6351H4.41291L4.2314 3.07666L4.05064 3.6351H3.46294Z" fill="white"/>
<path d="M6.53986 3.6351L7.01522 3.9805L6.8329 4.53894L7.30826 4.19355L7.78363 4.53894L7.6013 3.9805L8.07748 3.6351H7.48978L7.30826 3.07666L7.12751 3.6351H6.53986Z" fill="white"/>
<path d="M9.61678 3.6351L10.0921 3.9805L9.90982 4.53894L10.3852 4.19355L10.8605 4.53894L10.6782 3.9805L11.1544 3.6351H10.5667L10.3852 3.07666L10.2044 3.6351H9.61678Z" fill="white"/>
<path d="M3.46294 6.71176L3.9383 7.05716L3.75598 7.6156L4.23134 7.27021L4.70671 7.6156L4.52438 7.05716L5.00056 6.71176H4.41291L4.2314 6.15332L4.05064 6.71176H3.46294Z" fill="white"/>
<path d="M6.53986 6.71176L7.01522 7.05716L6.8329 7.6156L7.30826 7.27021L7.78363 7.6156L7.6013 7.05716L8.07748 6.71176H7.48978L7.30826 6.15332L7.12751 6.71176H6.53986Z" fill="white"/>
<path d="M9.61678 6.71176L10.0921 7.05716L9.90982 7.6156L10.3852 7.27021L10.8605 7.6156L10.6782 7.05716L11.1544 6.71176H10.5667L10.3852 6.15332L10.2044 6.71176H9.61678Z" fill="white"/>
<path d="M5.00136 2.09653L5.47672 2.44193L5.2944 3.00037L5.76977 2.65497L6.24513 3.00037L6.06281 2.44193L6.53898 2.09653H5.95128L5.76977 1.53809L5.58901 2.09653H5.00136Z" fill="white"/>
<path d="M8.07831 2.09653L8.55367 2.44193L8.37135 3.00037L8.84672 2.65497L9.32208 3.00037L9.13976 2.44193L9.61593 2.09653H9.02823L8.84672 1.53809L8.66596 2.09653H8.07831Z" fill="white"/>
<path d="M11.1552 2.09653L11.6306 2.44193L11.4483 3.00037L11.9236 2.65497L12.399 3.00037L12.2167 2.44193L12.6929 2.09653H12.1051L11.9236 1.53809L11.7429 2.09653H11.1552Z" fill="white"/>
<path d="M1.9245 5.17368L2.39987 5.51907L2.21835 6.07752L2.69296 5.73212L3.16833 6.07752L2.986 5.51907L3.46218 5.17368H2.87447L2.69296 4.61523L2.5122 5.17368H1.9245Z" fill="white"/>
<path d="M5.29479 6.07725L5.77015 5.73185L6.24476 6.07725L6.06325 5.5188L6.53862 5.17341H5.95167L5.77015 4.61572L5.58864 5.17341H5.00169L5.4763 5.5188L5.29479 6.07725Z" fill="white"/>
<path d="M8.07831 5.17368L8.55367 5.51907L8.37135 6.07752L8.84672 5.73212L9.32208 6.07752L9.13976 5.51907L9.61593 5.17368H9.02823L8.84672 4.61523L8.66596 5.17368H8.07831Z" fill="white"/>
<path d="M11.1552 5.17368L11.6306 5.51907L11.4483 6.07752L11.9236 5.73212L12.399 6.07752L12.2167 5.51907L12.6929 5.17368H12.1051L11.9236 4.61523L11.7429 5.17368H11.1552Z" fill="white"/>
<path d="M1.9245 8.25034L2.39987 8.59573L2.21835 9.15418L2.69296 8.80878L3.16833 9.15418L2.986 8.59573L3.46218 8.25034H2.87447L2.69296 7.69189L2.5122 8.25034H1.9245Z" fill="white"/>
<path d="M5.29479 9.15391L5.77015 8.80851L6.24476 9.15391L6.06325 8.59546L6.53862 8.25007H5.95167L5.77015 7.69238L5.58864 8.25007H5.00169L5.4763 8.59546L5.29479 9.15391Z" fill="white"/>
<path d="M8.07831 8.25034L8.55367 8.59573L8.37135 9.15418L8.84672 8.80878L9.32208 9.15418L9.13976 8.59573L9.61593 8.25034H9.02823L8.84672 7.69189L8.66596 8.25034H8.07831Z" fill="white"/>
<path d="M11.1552 8.25034L11.6306 8.59573L11.4483 9.15418L11.9236 8.80878L12.399 9.15418L12.2167 8.59573L12.6929 8.25034H12.1051L11.9236 7.69189L11.7429 8.25034H11.1552Z" fill="white"/>
</svg>
